<svg xmlns="http://www.w3.org/2000/svg" enable-background="new 0 0 52 52" viewBox="0 0 52 52"><path fill="#010101" d="M1.00166 47.27977c0 1.73535 1.41211 3.14746 3.14795 3.14746h21.27246c1.73584 0 3.14795-1.41211 3.14795-3.14746 0-1.68188-1.32837-3.04773-2.98914-3.13232-.44989-1.96704-2.20618-3.44287-4.30823-3.44287H8.29902c-2.10205 0-3.85834 1.47583-4.30823 3.44287C2.33003 44.23204 1.00166 45.59789 1.00166 47.27977zM8.29902 42.70457h12.97363c.98193 0 1.82959.58594 2.21143 1.42676H6.0876C6.46943 43.29051 7.31709 42.70457 8.29902 42.70457zM4.14961 46.13133h21.27246c.63281 0 1.14795.51563 1.14795 1.14844s-.51514 1.14746-1.14795 1.14746H4.14961c-.63281 0-1.14795-.51465-1.14795-1.14746S3.5168 46.13133 4.14961 46.13133zM49.42891 45.25047l.57031-.62402c1.42383-1.56152 1.3125-3.99023-.24854-5.41406L34.70039 25.47997c-.60626-.55322-1.50037-.68042-2.25983-.42163l-4.25696-3.88916 4.26483-4.67651c.39404-.43359.59619-.99707.56982-1.58789-.02075-.4668-.18646-.90015-.46625-1.25769.07507-.06311.15332-.12219.22015-.19543l1.17676-1.29004c.83936-.91895.77393-2.34961-.1499-3.19336l-7.56934-6.83105c-.88428-.80762-2.38184-.73926-3.18945.14551l-1.38049 1.51318c-.87769-.52612-2.10327-.38672-2.80408.38232L6.33027 17.91356c-.72565.79451-.77629 1.98009-.13171 2.82813L4.81953 22.2534c-.40625.44531-.61475 1.02246-.5874 1.625.02783.60254.28857 1.1582.73779 1.56738l7.57031 6.83203c.4165.38086.95654.58984 1.52051.58984.63379 0 1.2417-.26855 1.66846-.73633l1.17676-1.28906c.06696-.07336.12006-.15527.17615-.23535.3551.22449.76654.34863 1.19202.34863.6167 0 1.21094-.25781 1.63721-.71582l4.16327-4.56506 4.24762 3.86389c-.23707.88168.06241 1.70061.64233 2.22852l15.05029 13.73144C45.58567 46.93384 48.0122 46.80483 49.42891 45.25047zM24.51777 3.63036c.1377-.15137.24072-.12793.36768-.0127l7.56934 6.83105c.10498.0957.11279.25879.01709.36426l-1.17676 1.29004c-.1377.15137-.24023.12988-.36768.01367-.7932-.71686 2.87299 2.59649-7.75635-7.00989L24.51777 3.63036zM15.42891 29.49364l-1.17773 1.29004c-.13672.15039-.24121.12793-.36719.01367l-7.57031-6.83301c-.06494-.05859-.08105-.12891-.0835-.17773s.00732-.12012.06689-.18555l1.354-1.48438c10.67166 9.66192 6.99099 6.32951 7.78723 7.05042.03778.04968.05591.10193.0575.14099C15.49824 29.35692 15.48848 29.42821 15.42891 29.49364zM18.44111 28.88426c-.12109.12891-.22266.09961-.31689.01758l-1.29889-1.17676c-.02441-.02441-.04309-.05273-.06879-.07617-.91381-.82648 3.31031 2.99398-8.93701-8.08301-.08944-.08073-.09594-.21181-.01172-.30469L20.33369 5.52587c.05322-.05859.11523-.07129.15771-.07129.0351 0 .08636.01184.13849.05371 14.15463 12.80472 9.27268 8.38836 10.3288 9.34375.07275.06641.07617.22266.01123.29395L18.44111 28.88426zM25.42305 24.19676l1.41357-1.5498 4.04834 3.69922-1.40527 1.54102L25.42305 24.19676zM30.31221 30.28954c-.09602-.08729-.10163-.23448-.01465-.33008l2.72461-2.98633c.08684-.09525.23374-.10226.33057-.01563l15.05029 13.73144c.74609.68164.7998 1.84277.11914 2.58984l-.57031.62402c-.65479.71875-1.86865.77441-2.58936.11914L30.31221 30.28954z"/></svg>