<svg id="svg" version="1.1" xmlns="http://www.w3.org/2000/svg" xmlns:xlink="http://www.w3.org/1999/xlink" width="400" height="400" viewBox="0, 0, 400,400"><g id="svgg"><path id="path0" d="M112.400 66.800 C 111.190 67.211,109.700 67.559,109.088 67.574 C 108.476 67.588,106.907 68.050,105.600 68.600 C 104.293 69.150,102.886 69.600,102.473 69.600 C 102.060 69.600,101.307 69.960,100.800 70.400 C 100.293 70.840,99.590 71.203,99.239 71.206 C 98.887 71.209,98.150 71.468,97.600 71.782 C 97.050 72.095,96.060 72.641,95.400 72.994 C 88.364 76.757,79.644 84.012,75.896 89.222 C 75.510 89.760,74.782 90.740,74.279 91.400 C 72.888 93.227,71.882 94.850,71.148 96.451 C 70.783 97.249,70.285 98.024,70.042 98.174 C 69.799 98.324,69.600 98.772,69.600 99.170 C 69.600 99.567,69.271 100.321,68.868 100.846 C 68.465 101.371,67.856 102.610,67.514 103.600 C 67.172 104.590,66.699 105.940,66.462 106.600 C 65.297 109.852,64.700 112.012,64.361 114.200 C 64.157 115.520,63.769 117.590,63.500 118.800 C 62.839 121.768,62.559 253.273,63.205 257.200 C 63.440 258.630,63.873 261.555,64.167 263.700 C 64.461 265.844,64.884 267.824,65.107 268.100 C 65.331 268.375,65.725 269.632,65.984 270.893 C 66.242 272.154,66.617 273.287,66.816 273.410 C 67.015 273.533,67.380 274.391,67.626 275.317 C 67.873 276.243,68.306 277.270,68.590 277.600 C 68.873 277.930,69.235 278.624,69.393 279.141 C 69.551 279.659,70.112 280.719,70.640 281.497 C 71.168 282.275,71.600 283.148,71.600 283.436 C 71.600 283.724,71.826 284.104,72.101 284.280 C 72.765 284.704,74.800 287.723,74.800 288.285 C 74.800 289.048,85.687 299.782,88.132 301.429 C 91.831 303.922,95.292 305.958,97.600 307.001 C 98.370 307.349,99.655 307.986,100.454 308.417 C 101.254 308.848,102.223 309.200,102.607 309.200 C 102.991 309.200,103.867 309.539,104.553 309.954 C 105.239 310.369,106.880 310.837,108.200 310.995 C 109.519 311.153,111.139 311.579,111.800 311.941 C 112.896 312.543,118.674 312.617,178.600 312.800 C 214.680 312.910,244.418 313.141,244.685 313.314 C 244.951 313.487,245.291 314.297,245.439 315.114 C 245.588 315.931,246.019 317.410,246.398 318.400 C 246.776 319.390,247.199 321.330,247.338 322.710 C 247.476 324.091,247.837 325.711,248.140 326.310 C 248.443 326.910,248.809 328.604,248.954 330.075 C 249.099 331.546,249.573 333.864,250.009 335.227 C 250.444 336.589,250.800 338.310,250.800 339.051 C 250.800 339.791,251.149 341.433,251.576 342.698 C 252.003 343.964,252.475 346.260,252.626 347.800 C 252.777 349.340,253.138 351.067,253.428 351.637 C 253.718 352.208,254.080 353.607,254.231 354.746 C 254.663 358.003,254.947 357.887,259.400 352.657 C 260.280 351.623,261.514 350.197,262.141 349.489 C 262.769 348.780,263.759 347.576,264.341 346.813 C 264.924 346.050,265.670 345.137,266.000 344.784 C 268.174 342.456,272.959 336.956,274.400 335.130 C 274.950 334.433,276.384 332.768,277.586 331.431 C 278.789 330.094,279.959 328.765,280.186 328.478 C 280.414 328.191,281.050 327.436,281.600 326.800 C 282.150 326.164,282.789 325.409,283.021 325.122 C 284.935 322.749,288.205 318.924,288.597 318.599 C 288.863 318.379,290.399 316.579,292.010 314.599 C 293.621 312.620,295.251 310.640,295.633 310.200 C 297.512 308.033,301.014 304.154,301.412 303.800 C 301.658 303.580,302.747 302.328,303.830 301.018 C 304.914 299.708,306.316 298.178,306.948 297.618 C 309.412 295.432,311.744 292.957,312.608 291.610 C 313.106 290.834,314.031 289.660,314.664 289.000 C 315.298 288.340,316.276 287.080,316.839 286.200 C 317.401 285.320,318.343 283.870,318.931 282.978 C 319.519 282.087,320.000 281.080,320.000 280.740 C 320.000 280.401,320.342 279.814,320.760 279.436 C 321.179 279.057,321.633 278.148,321.771 277.414 C 321.909 276.681,322.286 275.860,322.611 275.591 C 322.935 275.322,323.200 274.712,323.200 274.236 C 323.200 273.759,323.571 272.656,324.025 271.785 C 324.478 270.913,325.025 269.120,325.240 267.800 C 325.455 266.480,325.939 264.590,326.316 263.600 C 327.377 260.808,327.373 117.423,326.311 115.077 C 325.932 114.239,325.504 112.619,325.361 111.477 C 325.218 110.335,324.785 108.860,324.399 108.200 C 324.013 107.540,323.571 106.290,323.416 105.421 C 323.261 104.553,322.789 103.404,322.367 102.867 C 321.945 102.331,321.600 101.494,321.600 101.008 C 321.600 100.522,321.240 99.798,320.800 99.400 C 320.360 99.002,320.000 98.399,320.000 98.060 C 320.000 97.720,319.577 96.803,319.060 96.022 C 318.543 95.240,317.589 93.768,316.939 92.751 C 315.897 91.119,314.818 89.765,311.289 85.660 C 310.787 85.077,310.234 84.420,310.059 84.200 C 309.764 83.830,307.573 81.936,304.042 79.001 C 303.249 78.341,302.506 77.677,302.391 77.525 C 302.035 77.052,299.184 75.200,298.813 75.200 C 298.620 75.200,297.940 74.762,297.304 74.226 C 296.667 73.690,295.671 73.133,295.090 72.987 C 294.508 72.841,293.833 72.481,293.589 72.186 C 293.345 71.892,292.572 71.526,291.872 71.374 C 291.173 71.221,290.171 70.759,289.646 70.348 C 289.121 69.937,288.304 69.600,287.831 69.600 C 287.357 69.600,286.278 69.248,285.433 68.817 C 284.588 68.386,283.065 67.911,282.048 67.762 C 281.032 67.613,279.142 67.155,277.848 66.745 C 274.176 65.582,115.833 65.634,112.400 66.800 M208.826 117.214 C 209.573 117.614,209.600 118.232,209.600 134.827 C 209.600 153.670,209.625 153.858,211.806 151.266 C 212.368 150.598,215.244 147.565,218.196 144.526 C 221.148 141.487,224.131 138.412,224.825 137.693 L 226.086 136.386 235.500 136.493 C 245.683 136.609,247.376 137.004,244.900 138.686 C 244.405 139.022,244.000 139.460,244.000 139.658 C 244.000 139.857,242.830 141.201,241.400 142.645 C 239.970 144.089,238.800 145.362,238.800 145.475 C 238.800 145.587,237.945 146.524,236.900 147.557 C 228.252 156.105,226.920 158.298,228.809 160.884 C 229.244 161.480,229.600 162.084,229.600 162.226 C 229.600 162.368,230.050 163.019,230.600 163.673 C 231.150 164.327,231.600 165.199,231.600 165.611 C 231.600 166.023,231.876 166.515,232.213 166.703 C 232.811 167.038,233.722 168.484,234.984 171.100 C 235.329 171.815,235.781 172.400,235.989 172.400 C 236.198 172.400,236.584 173.120,236.847 174.000 C 237.111 174.880,237.448 175.600,237.596 175.600 C 237.935 175.600,240.400 179.377,240.400 179.897 C 240.400 180.110,240.850 180.769,241.400 181.362 C 241.950 181.956,242.400 182.674,242.400 182.959 C 242.400 183.243,242.760 183.802,243.200 184.200 C 243.640 184.598,244.000 185.109,244.000 185.336 C 244.000 185.563,244.375 186.147,244.833 186.635 C 245.291 187.122,245.768 188.286,245.894 189.222 C 246.259 191.947,246.060 192.000,235.624 191.998 L 226.600 191.996 225.100 190.618 C 224.275 189.861,223.600 188.870,223.600 188.416 C 223.600 187.963,223.241 187.285,222.802 186.909 C 222.363 186.533,221.895 185.647,221.762 184.940 C 221.630 184.234,221.275 183.561,220.973 183.445 C 220.672 183.329,220.153 182.642,219.821 181.917 C 219.211 180.589,218.966 180.166,217.310 177.578 C 216.809 176.797,216.400 175.880,216.400 175.540 C 216.400 175.201,216.040 174.598,215.600 174.200 C 215.160 173.802,214.800 173.084,214.800 172.605 C 214.800 171.089,214.366 171.196,212.353 173.209 C 209.717 175.845,209.600 176.286,209.600 183.590 L 209.600 189.929 208.369 190.964 C 206.840 192.252,194.286 192.582,191.992 191.396 C 189.945 190.337,190.000 191.386,190.000 153.649 L 190.000 118.045 190.889 117.423 C 191.958 116.674,207.479 116.493,208.826 117.214 M120.354 124.700 C 121.137 125.351,121.203 125.847,121.298 131.800 L 121.400 138.200 127.537 138.400 C 135.433 138.657,135.200 138.444,135.200 145.395 C 135.200 151.688,135.619 151.344,127.640 151.600 L 121.400 151.800 121.294 163.334 L 121.188 174.867 122.436 176.034 C 123.904 177.405,125.052 177.495,127.096 176.400 C 129.151 175.298,131.322 175.341,132.130 176.500 C 132.719 177.345,132.759 177.157,132.779 173.449 C 132.800 169.450,134.017 165.959,135.757 164.905 C 136.034 164.737,136.376 164.285,136.518 163.900 C 136.659 163.515,137.030 163.200,137.341 163.200 C 137.653 163.200,138.203 162.750,138.563 162.200 C 138.924 161.650,139.444 161.200,139.720 161.200 C 139.996 161.200,140.530 160.840,140.907 160.400 C 141.284 159.960,142.002 159.600,142.502 159.600 C 143.002 159.600,144.129 159.207,145.006 158.727 C 146.498 157.910,147.251 157.842,156.748 157.678 L 166.895 157.502 166.657 155.760 C 166.525 154.802,166.054 153.654,165.609 153.209 C 165.164 152.764,164.800 152.220,164.800 152.000 C 164.800 151.780,164.305 151.599,163.700 151.599 C 163.095 151.598,162.011 151.238,161.290 150.799 C 159.601 149.769,154.642 149.657,153.573 150.625 C 153.193 150.968,151.829 151.352,150.541 151.477 C 149.254 151.603,147.930 151.939,147.600 152.223 C 145.107 154.375,140.000 154.600,140.000 152.559 C 140.000 152.275,139.550 151.196,139.000 150.162 C 138.450 149.127,138.000 147.948,138.000 147.540 C 138.000 147.133,137.640 146.440,137.200 146.000 C 136.131 144.931,136.164 141.600,137.243 141.600 C 137.439 141.600,137.960 141.240,138.400 140.800 C 138.840 140.360,139.716 140.000,140.346 140.000 C 140.976 140.000,141.929 139.657,142.462 139.237 C 142.995 138.818,144.325 138.341,145.416 138.178 C 146.507 138.016,147.824 137.606,148.342 137.268 C 151.163 135.427,171.256 135.495,172.613 137.350 C 172.874 137.708,173.460 138.000,173.913 138.000 C 174.367 138.000,175.273 138.450,175.927 139.000 C 176.581 139.550,177.322 140.000,177.575 140.000 C 178.190 140.000,182.000 143.587,182.000 144.166 C 182.000 144.417,182.360 144.930,182.800 145.307 C 183.240 145.684,183.600 146.288,183.600 146.649 C 183.600 147.010,184.005 147.957,184.500 148.753 L 185.400 150.200 185.400 170.334 L 185.400 190.469 184.456 191.234 C 183.606 191.923,182.812 192.000,176.536 192.000 C 167.823 192.000,166.800 191.618,166.800 188.367 C 166.800 187.019,166.220 186.841,165.600 188.000 C 165.365 188.440,164.936 188.800,164.648 188.800 C 164.360 188.800,163.801 189.156,163.407 189.592 C 163.013 190.028,162.046 190.505,161.259 190.653 C 160.471 190.801,159.035 191.272,158.068 191.700 C 155.763 192.719,146.844 192.608,145.200 191.540 C 144.650 191.182,143.550 190.776,142.755 190.637 C 141.960 190.498,140.987 190.028,140.593 189.592 C 140.199 189.156,139.706 188.800,139.498 188.800 C 139.291 188.800,138.329 187.961,137.360 186.936 L 135.600 185.073 135.600 186.527 C 135.600 187.677,135.370 188.128,134.500 188.682 C 133.895 189.067,133.306 189.509,133.192 189.666 C 132.840 190.147,130.807 190.800,129.663 190.800 C 129.066 190.800,128.133 191.115,127.589 191.500 C 126.173 192.503,115.277 192.544,114.142 191.551 C 113.734 191.194,112.727 190.781,111.905 190.633 C 111.028 190.476,110.236 190.042,109.991 189.583 C 109.760 189.152,109.353 188.800,109.086 188.800 C 108.649 188.799,107.320 187.624,105.572 185.694 C 105.226 185.312,104.416 184.100,103.772 183.000 L 102.601 181.000 102.463 166.300 L 102.325 151.600 99.063 151.587 C 94.384 151.569,94.400 151.590,94.400 145.514 C 94.400 138.973,94.798 138.400,99.347 138.400 L 102.333 138.400 102.466 131.700 C 102.540 128.015,102.746 124.775,102.924 124.500 C 103.492 123.622,119.275 123.803,120.354 124.700 M273.285 136.350 C 276.278 136.558,277.785 136.839,278.285 137.280 C 278.678 137.627,279.630 138.041,280.400 138.200 C 281.170 138.359,282.116 138.768,282.503 139.109 C 282.889 139.450,283.530 139.925,283.927 140.164 C 286.783 141.887,287.810 142.723,289.022 144.310 C 289.780 145.303,290.400 146.316,290.400 146.561 C 290.400 146.807,290.737 147.218,291.150 147.476 C 291.562 147.733,292.021 148.428,292.169 149.020 C 292.318 149.612,292.684 150.341,292.983 150.640 C 293.282 150.939,293.656 151.949,293.814 152.883 C 293.972 153.818,294.392 155.026,294.747 155.568 C 295.597 156.866,295.969 167.673,295.196 168.605 C 294.772 169.115,292.152 169.200,276.775 169.200 C 257.845 169.200,257.723 169.213,259.174 171.058 C 259.628 171.635,260.000 172.367,260.000 172.685 C 260.000 173.433,262.167 175.600,262.915 175.600 C 263.233 175.600,263.950 175.960,264.509 176.400 C 265.397 177.099,266.132 177.200,270.301 177.200 C 274.568 177.200,275.153 177.115,275.800 176.400 C 276.198 175.960,276.906 175.600,277.373 175.600 C 277.840 175.600,278.937 174.886,279.811 174.013 C 282.206 171.621,282.680 171.774,287.473 176.491 C 292.677 181.612,292.757 181.868,289.953 184.478 C 288.769 185.579,287.246 186.722,286.568 187.017 C 285.891 187.312,285.108 187.829,284.828 188.166 C 284.548 188.503,283.708 188.894,282.960 189.034 C 282.212 189.174,281.600 189.431,281.600 189.605 C 281.600 190.087,279.256 190.800,277.672 190.800 C 276.891 190.800,275.918 191.112,275.490 191.500 C 274.822 192.104,273.857 192.200,268.458 192.200 C 263.141 192.200,262.051 192.095,261.211 191.500 C 260.667 191.115,259.659 190.800,258.971 190.800 C 257.517 190.800,255.200 190.066,255.200 189.605 C 255.200 189.431,254.572 189.171,253.805 189.027 C 253.027 188.881,252.224 188.419,251.991 187.983 C 251.760 187.552,251.201 187.200,250.748 187.200 C 249.600 187.200,243.624 181.020,243.325 179.524 C 243.198 178.890,242.766 178.196,242.364 177.981 C 241.963 177.766,241.509 176.917,241.356 176.095 C 241.203 175.273,240.735 173.940,240.316 173.133 C 239.265 171.110,239.375 155.767,240.449 154.541 C 240.806 154.133,241.221 153.116,241.371 152.279 C 241.521 151.442,241.904 150.658,242.222 150.536 C 242.540 150.414,242.800 149.965,242.800 149.539 C 242.800 149.113,243.250 148.314,243.800 147.764 C 244.350 147.214,244.800 146.593,244.800 146.385 C 244.800 146.177,245.160 145.782,245.600 145.507 C 246.040 145.232,246.400 144.815,246.400 144.581 C 246.400 144.346,247.138 143.624,248.041 142.977 C 248.944 142.330,250.056 141.395,250.513 140.900 C 250.970 140.405,251.558 140.000,251.818 140.000 C 252.079 140.000,252.752 139.638,253.314 139.196 C 253.875 138.755,254.935 138.280,255.668 138.142 C 256.400 138.003,257.332 137.602,257.738 137.249 C 258.243 136.810,259.629 136.532,262.138 136.369 C 267.466 136.021,268.544 136.019,273.285 136.350 M264.780 149.922 C 262.633 150.507,258.400 155.348,258.400 157.218 C 258.400 157.971,258.736 158.000,267.600 158.000 L 276.800 158.000 276.800 156.454 C 276.800 155.514,276.487 154.509,276.000 153.891 C 275.560 153.331,275.200 152.709,275.200 152.508 C 275.200 150.762,268.133 149.008,264.780 149.922 M151.405 170.391 C 151.061 171.056,150.604 171.600,150.390 171.600 C 150.175 171.600,150.000 172.396,150.000 173.368 C 150.000 175.809,152.682 178.613,155.408 179.022 C 157.372 179.317,160.800 178.940,160.800 178.430 C 160.800 178.253,161.565 177.806,162.500 177.435 C 165.184 176.372,166.867 173.978,166.719 171.434 L 166.600 169.400 159.315 169.291 L 152.030 169.182 151.405 170.391 M148.091 194.943 C 150.566 195.272,152.251 195.703,152.722 196.130 C 153.130 196.498,153.840 196.800,154.301 196.800 C 154.762 196.800,155.673 197.250,156.327 197.800 C 156.981 198.350,157.708 198.800,157.944 198.800 C 158.588 198.800,164.000 204.341,164.000 205.000 C 164.000 205.314,164.339 205.753,164.753 205.975 C 165.168 206.197,165.626 207.013,165.772 207.789 C 166.120 209.644,166.841 209.282,168.600 206.368 C 170.565 203.114,174.963 198.800,176.315 198.800 C 176.517 198.800,177.169 198.350,177.762 197.800 C 178.356 197.250,179.299 196.800,179.858 196.800 C 180.416 196.800,181.331 196.440,181.891 196.000 C 182.598 195.444,183.514 195.200,184.897 195.200 C 185.991 195.200,188.115 194.903,189.618 194.540 C 192.157 193.928,192.518 193.928,194.702 194.540 C 195.995 194.903,197.961 195.200,199.072 195.200 C 200.424 195.200,201.408 195.444,202.046 195.938 C 202.571 196.344,203.617 196.796,204.370 196.942 C 205.124 197.088,206.024 197.477,206.370 197.805 C 206.717 198.133,208.080 199.251,209.400 200.290 C 210.720 201.328,211.867 202.338,211.948 202.534 C 212.030 202.730,212.435 203.180,212.848 203.534 C 213.262 203.888,213.600 204.382,213.600 204.630 C 213.600 204.879,214.050 205.569,214.600 206.162 C 215.150 206.756,215.600 207.654,215.600 208.159 C 215.600 208.663,215.938 209.382,216.351 209.755 C 216.800 210.162,217.212 211.270,217.378 212.516 C 217.529 213.660,217.957 214.931,218.327 215.340 C 219.342 216.461,219.592 267.551,218.588 268.555 C 217.461 269.682,196.101 269.509,194.642 268.361 L 193.575 267.522 193.613 247.061 C 193.651 226.573,193.525 223.520,192.595 222.400 C 192.321 222.070,191.800 221.215,191.438 220.500 C 191.076 219.785,190.571 219.200,190.316 219.200 C 190.060 219.200,189.430 218.804,188.914 218.320 C 187.717 217.195,183.738 216.723,179.676 217.225 C 176.075 217.670,171.557 221.519,171.079 224.550 C 170.944 225.402,170.512 226.456,170.117 226.891 C 169.451 227.627,169.391 229.126,169.276 247.929 C 169.193 261.459,169.011 268.345,168.727 268.688 C 168.059 269.493,146.782 269.418,145.210 268.605 L 144.059 268.010 143.930 245.681 L 143.800 223.352 142.700 222.046 C 142.095 221.327,141.600 220.477,141.600 220.157 C 141.600 219.837,141.285 219.464,140.900 219.328 C 140.515 219.192,139.790 218.711,139.289 218.260 C 137.549 216.693,128.075 216.647,126.435 218.197 C 126.086 218.527,125.170 219.440,124.400 220.225 C 123.630 221.009,122.595 222.032,122.100 222.498 C 121.605 222.963,121.200 223.793,121.200 224.341 C 121.200 224.889,120.885 225.685,120.500 226.110 C 119.858 226.819,119.783 228.602,119.600 247.656 C 119.428 265.538,119.316 268.482,118.800 268.809 C 117.688 269.511,96.322 269.301,95.289 268.577 L 94.400 267.955 94.400 232.453 C 94.400 197.278,94.408 196.943,95.216 196.075 C 96.017 195.215,96.226 195.200,107.193 195.200 C 120.511 195.200,119.600 194.799,119.600 200.665 C 119.600 202.693,119.780 204.464,120.000 204.600 C 120.220 204.736,120.400 204.604,120.400 204.307 C 120.400 203.464,125.674 198.800,126.626 198.800 C 126.768 198.800,127.419 198.350,128.073 197.800 C 128.727 197.250,129.631 196.800,130.083 196.800 C 130.536 196.800,131.467 196.463,132.153 196.051 C 132.984 195.552,134.556 195.218,136.864 195.051 C 138.769 194.914,140.749 194.626,141.264 194.412 C 141.779 194.198,142.650 194.114,143.200 194.225 C 143.750 194.336,145.951 194.659,148.091 194.943 M269.800 195.894 C 270.460 196.228,271.880 196.651,272.956 196.835 C 274.060 197.024,275.243 197.525,275.672 197.985 C 276.089 198.433,276.846 198.800,277.354 198.800 C 277.861 198.800,278.602 199.160,279.000 199.600 C 279.398 200.040,279.956 200.400,280.239 200.400 C 280.523 200.400,280.990 200.715,281.277 201.100 C 281.565 201.485,282.305 202.061,282.922 202.380 C 283.540 202.698,284.765 203.778,285.644 204.780 C 286.524 205.781,287.504 206.885,287.822 207.234 C 288.140 207.582,288.400 208.161,288.400 208.519 C 288.400 208.878,288.748 209.358,289.173 209.586 C 289.598 209.813,290.073 210.404,290.228 210.900 C 290.383 211.395,290.845 212.229,291.255 212.754 C 291.665 213.279,292.000 214.109,292.000 214.600 C 292.000 215.091,292.342 215.927,292.760 216.459 C 293.190 217.005,293.648 218.462,293.814 219.813 C 293.976 221.126,294.284 222.313,294.499 222.451 C 295.875 223.337,296.102 237.822,294.758 239.038 C 293.955 239.765,292.801 239.809,269.858 240.000 L 245.800 240.200 245.902 241.502 C 246.017 242.972,246.265 243.326,249.339 246.400 C 252.768 249.829,252.932 249.922,256.478 250.455 C 261.766 251.249,268.701 250.608,270.215 249.186 C 270.675 248.753,271.385 248.400,271.792 248.400 C 272.200 248.400,272.818 248.143,273.166 247.828 C 273.515 247.513,274.322 246.774,274.960 246.186 C 277.921 243.456,278.612 243.723,285.212 250.156 C 290.968 255.767,291.493 256.937,289.193 259.026 C 288.482 259.672,287.613 260.515,287.261 260.900 C 286.910 261.285,286.391 261.600,286.108 261.600 C 285.826 261.600,285.203 262.050,284.725 262.600 C 284.247 263.150,283.646 263.600,283.390 263.600 C 283.134 263.600,282.598 263.960,282.200 264.400 C 281.802 264.840,281.179 265.200,280.816 265.200 C 280.453 265.200,279.545 265.650,278.800 266.200 C 277.937 266.837,276.914 267.200,275.984 267.200 C 275.069 267.200,274.273 267.477,273.852 267.943 C 273.376 268.468,272.392 268.752,270.490 268.913 C 269.010 269.038,267.260 269.422,266.600 269.767 C 264.884 270.665,252.590 270.689,251.318 269.797 C 250.844 269.466,249.099 269.080,247.438 268.939 C 245.237 268.753,244.237 268.483,243.748 267.942 C 243.348 267.501,242.533 267.200,241.738 267.200 C 240.933 267.200,240.081 266.881,239.600 266.400 C 239.160 265.960,238.522 265.600,238.182 265.600 C 237.842 265.600,237.137 265.173,236.615 264.652 C 236.094 264.130,235.237 263.596,234.712 263.464 C 232.831 262.992,225.200 254.910,225.200 253.390 C 225.200 253.163,224.840 252.670,224.400 252.293 C 223.960 251.916,223.600 251.213,223.600 250.730 C 223.600 250.247,223.241 249.470,222.803 249.003 C 222.347 248.518,221.896 247.308,221.749 246.177 C 221.608 245.090,221.202 243.866,220.846 243.458 C 219.875 242.343,219.876 223.256,220.846 222.142 C 221.202 221.734,221.604 220.410,221.739 219.200 C 221.880 217.943,222.245 216.810,222.592 216.557 C 222.925 216.313,223.309 215.557,223.445 214.877 C 223.581 214.197,224.031 213.334,224.446 212.958 C 224.861 212.583,225.200 212.048,225.200 211.769 C 225.200 211.490,225.650 210.727,226.200 210.073 C 226.750 209.419,227.200 208.698,227.200 208.469 C 227.200 208.241,227.560 207.940,228.000 207.800 C 228.440 207.660,228.800 207.398,228.800 207.217 C 228.800 206.760,233.132 202.400,233.586 202.400 C 233.789 202.400,234.206 202.041,234.513 201.603 C 234.820 201.164,235.647 200.691,236.350 200.550 C 237.053 200.409,237.796 199.982,238.000 199.600 C 238.204 199.218,238.933 198.793,239.618 198.656 C 240.304 198.519,241.325 198.045,241.886 197.604 C 242.448 197.162,243.474 196.800,244.165 196.800 C 244.856 196.800,245.867 196.485,246.411 196.100 C 248.229 194.813,267.326 194.645,269.800 195.894 M255.815 212.880 C 255.383 213.130,254.245 213.482,253.286 213.661 C 250.575 214.167,246.374 218.754,245.644 222.004 C 245.451 222.862,245.002 223.855,244.647 224.211 C 244.291 224.566,244.000 224.934,244.000 225.029 C 244.000 225.123,250.234 225.200,257.854 225.200 L 271.709 225.200 271.452 223.329 C 271.311 222.300,270.941 221.175,270.629 220.829 C 270.317 220.483,269.928 219.660,269.763 219.000 C 269.328 217.253,265.895 214.089,264.077 213.760 C 263.265 213.613,262.114 213.247,261.520 212.947 C 260.218 212.288,256.903 212.249,255.815 212.880 " stroke="none" fill="#050506" fill-rule="evenodd"></path><path id="path1" d="M0.000 200.000 L 0.000 400.000 200.000 400.000 L 400.000 400.000 400.000 200.000 L 400.000 0.000 200.000 0.000 L 0.000 0.000 0.000 200.000 M278.181 65.554 C 279.491 65.819,280.751 66.187,280.981 66.372 C 281.211 66.556,282.388 66.915,283.595 67.169 C 284.802 67.424,286.152 67.866,286.595 68.153 C 287.038 68.439,287.940 68.804,288.600 68.963 C 290.266 69.364,297.035 72.719,299.141 74.186 C 300.098 74.854,301.178 75.580,301.541 75.800 C 305.511 78.209,314.185 86.713,316.584 90.547 C 317.015 91.236,317.600 91.944,317.884 92.120 C 318.168 92.296,318.400 92.677,318.400 92.966 C 318.400 93.255,318.738 93.922,319.151 94.447 C 319.903 95.403,321.889 99.190,323.217 102.200 C 323.606 103.080,324.287 104.610,324.732 105.600 C 325.176 106.590,325.672 108.120,325.833 109.000 C 325.994 109.880,326.358 111.156,326.641 111.836 C 326.925 112.516,327.347 114.918,327.578 117.173 C 327.810 119.429,328.093 121.428,328.209 121.614 C 328.794 122.562,328.409 255.856,327.807 260.400 C 326.949 266.885,325.335 272.289,322.428 278.400 C 321.748 279.830,320.756 281.720,320.224 282.600 C 319.691 283.480,318.949 284.731,318.576 285.380 C 318.202 286.030,317.695 286.792,317.448 287.075 C 317.202 287.358,316.100 288.777,315.000 290.227 C 313.900 291.677,311.110 294.821,308.800 297.214 C 306.490 299.606,303.790 302.504,302.800 303.654 C 301.810 304.803,300.045 306.837,298.877 308.172 C 297.710 309.507,296.090 311.384,295.277 312.342 C 294.465 313.300,293.530 314.386,293.200 314.756 C 292.870 315.126,291.621 316.592,290.424 318.014 C 288.265 320.580,287.854 321.052,285.712 323.438 C 285.100 324.118,283.941 325.468,283.136 326.438 C 282.330 327.407,280.530 329.525,279.136 331.144 C 277.741 332.764,275.610 335.290,274.400 336.758 C 273.190 338.226,271.531 340.141,270.713 341.013 C 269.896 341.886,268.202 343.835,266.950 345.345 C 265.698 346.855,264.297 348.481,263.837 348.958 C 263.376 349.435,262.370 350.604,261.600 351.557 C 260.830 352.509,259.750 353.775,259.200 354.370 C 258.650 354.965,257.514 356.217,256.675 357.154 C 254.536 359.543,252.935 357.211,252.177 350.600 C 252.026 349.280,251.650 347.445,251.343 346.523 C 251.035 345.600,250.548 343.260,250.260 341.323 C 249.972 339.385,249.546 337.440,249.314 337.000 C 249.082 336.560,248.764 335.210,248.608 334.000 C 248.451 332.790,248.001 330.540,247.607 329.000 C 247.213 327.460,246.775 325.265,246.635 324.123 C 246.494 322.981,246.137 321.451,245.841 320.723 C 245.545 319.995,245.178 318.413,245.026 317.208 C 244.873 316.002,244.535 314.879,244.274 314.714 C 244.013 314.548,216.440 314.408,183.000 314.404 C 118.572 314.395,113.751 314.261,108.909 312.349 C 108.299 312.108,106.900 311.676,105.800 311.388 C 103.303 310.735,99.104 309.143,98.360 308.567 C 98.052 308.329,97.215 307.902,96.500 307.619 C 95.785 307.335,95.200 306.964,95.200 306.795 C 95.200 306.625,94.705 306.363,94.100 306.213 C 93.495 306.062,92.036 305.278,90.858 304.470 C 89.680 303.661,88.406 302.819,88.027 302.597 C 87.648 302.376,87.042 301.926,86.681 301.597 C 86.320 301.269,85.172 300.280,84.130 299.400 C 82.343 297.891,79.442 295.018,76.054 291.400 C 73.412 288.580,69.234 281.467,66.185 274.600 C 64.953 271.826,63.896 267.928,62.401 260.645 C 61.687 257.168,61.866 120.282,62.588 117.510 C 62.912 116.268,63.372 114.025,63.610 112.526 C 63.849 111.027,64.291 109.421,64.593 108.958 C 64.895 108.496,65.270 107.416,65.426 106.558 C 65.583 105.701,66.033 104.370,66.426 103.600 C 66.820 102.830,67.740 100.978,68.471 99.484 C 70.345 95.655,72.918 91.293,73.594 90.800 C 73.745 90.690,74.033 90.299,74.234 89.931 C 75.213 88.142,80.845 82.169,84.165 79.400 C 85.220 78.520,86.290 77.609,86.542 77.376 C 88.227 75.817,97.598 70.400,98.611 70.400 C 98.881 70.400,99.317 70.142,99.579 69.826 C 99.841 69.510,100.628 69.128,101.328 68.977 C 102.027 68.826,103.230 68.390,104.000 68.007 C 104.770 67.625,106.201 67.189,107.180 67.039 C 108.159 66.888,109.187 66.577,109.463 66.348 C 111.273 64.846,270.979 64.094,278.181 65.554 " stroke="none" fill="#04a4eb" fill-rule="evenodd"></path><path id="path2" d="M158.700 65.900 C 178.995 65.957,212.205 65.957,232.500 65.900 C 252.795 65.843,236.190 65.796,195.600 65.796 C 155.010 65.796,138.405 65.843,158.700 65.900 M190.889 117.423 L 190.000 118.045 190.000 153.649 C 190.000 191.386,189.945 190.337,191.992 191.396 C 194.286 192.582,206.840 192.252,208.369 190.964 L 209.600 189.929 209.600 183.590 C 209.600 176.286,209.717 175.845,212.353 173.209 C 214.366 171.196,214.800 171.089,214.800 172.605 C 214.800 173.084,215.160 173.802,215.600 174.200 C 216.040 174.598,216.400 175.201,216.400 175.540 C 216.400 175.880,216.809 176.797,217.310 177.578 C 218.966 180.166,219.211 180.589,219.821 181.917 C 220.153 182.642,220.672 183.329,220.973 183.445 C 221.275 183.561,221.630 184.234,221.762 184.940 C 221.895 185.647,222.363 186.533,222.802 186.909 C 223.241 187.285,223.600 187.963,223.600 188.416 C 223.600 188.870,224.275 189.861,225.100 190.618 L 226.600 191.996 235.624 191.998 C 246.060 192.000,246.259 191.947,245.894 189.222 C 245.768 188.286,245.291 187.122,244.833 186.635 C 244.375 186.147,244.000 185.563,244.000 185.336 C 244.000 185.109,243.640 184.598,243.200 184.200 C 242.760 183.802,242.400 183.243,242.400 182.959 C 242.400 182.674,241.950 181.956,241.400 181.362 C 240.850 180.769,240.400 180.110,240.400 179.897 C 240.400 179.377,237.935 175.600,237.596 175.600 C 237.448 175.600,237.111 174.880,236.847 174.000 C 236.584 173.120,236.198 172.400,235.989 172.400 C 235.781 172.400,235.329 171.815,234.984 171.100 C 233.722 168.484,232.811 167.038,232.213 166.703 C 231.876 166.515,231.600 166.023,231.600 165.611 C 231.600 165.199,231.150 164.327,230.600 163.673 C 230.050 163.019,229.600 162.368,229.600 162.226 C 229.600 162.084,229.244 161.480,228.809 160.884 C 226.920 158.298,228.252 156.105,236.900 147.557 C 237.945 146.524,238.800 145.587,238.800 145.475 C 238.800 145.362,239.970 144.089,241.400 142.645 C 242.830 141.201,244.000 139.857,244.000 139.658 C 244.000 139.460,244.405 139.022,244.900 138.686 C 247.376 137.004,245.683 136.609,235.500 136.493 L 226.086 136.386 224.825 137.693 C 224.131 138.412,221.148 141.487,218.196 144.526 C 215.244 147.565,212.368 150.598,211.806 151.266 C 209.625 153.858,209.600 153.670,209.600 134.827 C 209.600 118.232,209.573 117.614,208.826 117.214 C 207.479 116.493,191.958 116.674,190.889 117.423 M207.626 117.614 C 208.374 118.014,208.400 118.644,208.400 136.214 C 208.400 152.567,208.464 154.400,209.036 154.400 C 209.681 154.400,213.288 150.858,221.598 142.065 L 226.196 137.200 235.275 137.200 C 240.268 137.200,244.453 137.362,244.576 137.561 C 244.789 137.906,241.367 141.760,234.772 148.600 C 225.077 158.655,225.503 157.163,230.207 164.600 C 231.181 166.140,232.345 168.030,232.793 168.800 C 233.241 169.570,233.786 170.470,234.003 170.800 C 234.637 171.763,237.518 176.474,238.407 178.000 C 238.856 178.770,239.572 179.940,240.000 180.600 C 240.428 181.260,241.149 182.430,241.602 183.200 C 242.056 183.970,242.958 185.410,243.607 186.400 C 246.388 190.643,246.513 190.576,235.591 190.708 C 225.650 190.828,225.570 190.808,224.117 187.800 C 223.799 187.140,223.057 185.749,222.469 184.709 C 217.778 176.410,216.705 174.525,216.368 174.000 C 216.157 173.670,215.720 172.827,215.398 172.127 C 214.518 170.216,214.320 170.250,211.927 172.719 C 208.295 176.465,208.400 176.152,208.400 183.260 C 208.400 188.438,208.289 189.653,207.771 190.171 C 206.847 191.096,193.408 191.101,192.089 190.177 L 191.200 189.555 191.200 153.838 L 191.200 118.122 192.100 117.688 C 193.280 117.119,206.583 117.056,207.626 117.614 M102.924 124.500 C 102.746 124.775,102.540 128.015,102.466 131.700 L 102.333 138.400 99.347 138.400 C 94.798 138.400,94.400 138.973,94.400 145.514 C 94.400 151.590,94.384 151.569,99.063 151.587 L 102.325 151.600 102.463 166.300 L 102.601 181.000 103.772 183.000 C 104.416 184.100,105.226 185.312,105.572 185.694 C 107.320 187.624,108.649 188.799,109.086 188.800 C 109.353 188.800,109.760 189.152,109.991 189.583 C 110.236 190.042,111.028 190.476,111.905 190.633 C 112.727 190.781,113.734 191.194,114.142 191.551 C 115.277 192.544,126.173 192.503,127.589 191.500 C 128.133 191.115,129.066 190.800,129.663 190.800 C 130.807 190.800,132.840 190.147,133.192 189.666 C 133.306 189.509,133.895 189.067,134.500 188.682 C 135.370 188.128,135.600 187.677,135.600 186.527 L 135.600 185.073 137.360 186.936 C 138.329 187.961,139.291 188.800,139.498 188.800 C 139.706 188.800,140.199 189.156,140.593 189.592 C 140.987 190.028,141.960 190.498,142.755 190.637 C 143.550 190.776,144.650 191.182,145.200 191.540 C 146.844 192.608,155.763 192.719,158.068 191.700 C 159.035 191.272,160.471 190.801,161.259 190.653 C 162.046 190.505,163.013 190.028,163.407 189.592 C 163.801 189.156,164.360 188.800,164.648 188.800 C 164.936 188.800,165.365 188.440,165.600 188.000 C 166.220 186.841,166.800 187.019,166.800 188.367 C 166.800 191.618,167.823 192.000,176.536 192.000 C 182.812 192.000,183.606 191.923,184.456 191.234 L 185.400 190.469 185.400 170.334 L 185.400 150.200 184.500 148.753 C 184.005 147.957,183.600 147.010,183.600 146.649 C 183.600 146.288,183.240 145.684,182.800 145.307 C 182.360 144.930,182.000 144.417,182.000 144.166 C 182.000 143.587,178.190 140.000,177.575 140.000 C 177.322 140.000,176.581 139.550,175.927 139.000 C 175.273 138.450,174.367 138.000,173.913 138.000 C 173.460 138.000,172.874 137.708,172.613 137.350 C 171.256 135.495,151.163 135.427,148.342 137.268 C 147.824 137.606,146.507 138.016,145.416 138.178 C 144.325 138.341,142.995 138.818,142.462 139.237 C 141.929 139.657,140.976 140.000,140.346 140.000 C 139.716 140.000,138.840 140.360,138.400 140.800 C 137.960 141.240,137.439 141.600,137.243 141.600 C 136.164 141.600,136.131 144.931,137.200 146.000 C 137.640 146.440,138.000 147.133,138.000 147.540 C 138.000 147.948,138.450 149.127,139.000 150.162 C 139.550 151.196,140.000 152.275,140.000 152.559 C 140.000 154.600,145.107 154.375,147.600 152.223 C 147.930 151.939,149.254 151.603,150.541 151.477 C 151.829 151.352,153.193 150.968,153.573 150.625 C 154.642 149.657,159.601 149.769,161.290 150.799 C 162.011 151.238,163.095 151.598,163.700 151.599 C 164.305 151.599,164.800 151.780,164.800 152.000 C 164.800 152.220,165.164 152.764,165.609 153.209 C 166.054 153.654,166.525 154.802,166.657 155.760 L 166.895 157.502 156.748 157.678 C 147.251 157.842,146.498 157.910,145.006 158.727 C 144.129 159.207,143.002 159.600,142.502 159.600 C 142.002 159.600,141.284 159.960,140.907 160.400 C 140.530 160.840,139.996 161.200,139.720 161.200 C 139.444 161.200,138.924 161.650,138.563 162.200 C 138.203 162.750,137.653 163.200,137.341 163.200 C 137.030 163.200,136.659 163.515,136.518 163.900 C 136.376 164.285,136.034 164.737,135.757 164.905 C 134.017 165.959,132.800 169.450,132.779 173.449 C 132.759 177.157,132.719 177.345,132.130 176.500 C 131.322 175.341,129.151 175.298,127.096 176.400 C 125.052 177.495,123.904 177.405,122.436 176.034 L 121.188 174.867 121.294 163.334 L 121.400 151.800 127.640 151.600 C 135.619 151.344,135.200 151.688,135.200 145.395 C 135.200 138.444,135.433 138.657,127.537 138.400 L 121.400 138.200 121.298 131.800 C 121.164 123.371,121.963 124.000,111.379 124.000 C 105.313 124.000,103.165 124.127,102.924 124.500 M119.635 125.442 C 120.038 125.927,120.141 127.519,120.058 131.942 C 119.909 139.898,119.678 139.653,127.258 139.577 C 134.258 139.506,133.970 139.244,133.987 145.710 C 134.003 151.454,134.351 151.200,126.454 151.200 C 119.390 151.200,120.000 150.214,120.000 161.625 C 120.000 177.177,121.529 179.886,128.554 176.779 C 130.642 175.856,130.941 175.939,131.849 177.694 C 132.737 179.413,133.036 178.664,133.354 173.920 C 133.859 166.363,137.558 162.097,146.000 159.332 C 147.798 158.744,149.880 158.587,157.393 158.478 C 163.215 158.393,166.777 158.185,167.108 157.910 C 168.539 156.723,166.205 151.478,164.000 150.924 C 163.450 150.786,162.589 150.407,162.087 150.082 C 160.512 149.062,155.961 148.974,153.099 149.909 C 151.725 150.358,149.925 150.840,149.101 150.981 C 148.277 151.121,146.657 151.676,145.501 152.214 C 142.643 153.545,141.305 153.513,140.752 152.100 C 140.160 150.586,139.082 148.147,138.057 146.000 C 136.597 142.941,137.446 141.428,141.117 140.547 C 141.713 140.403,142.830 139.977,143.600 139.599 C 144.370 139.222,145.784 138.792,146.742 138.645 C 147.700 138.498,148.961 138.130,149.545 137.829 C 152.820 136.135,167.987 136.263,171.837 138.017 C 172.783 138.448,173.808 138.800,174.117 138.800 C 174.425 138.800,175.093 139.160,175.600 139.600 C 176.107 140.040,176.674 140.400,176.860 140.400 C 178.032 140.400,183.200 146.638,183.200 148.052 C 183.200 148.366,183.515 149.067,183.900 149.611 C 184.540 150.515,184.610 152.296,184.718 170.303 L 184.835 190.006 183.792 190.403 C 183.218 190.621,179.871 190.800,176.354 190.800 C 168.799 190.800,167.600 190.448,167.600 188.233 C 167.600 186.412,166.600 186.058,165.213 187.388 C 164.632 187.944,164.014 188.400,163.840 188.400 C 163.666 188.400,163.046 188.728,162.462 189.129 C 157.835 192.306,147.038 192.227,141.215 188.974 C 139.040 187.759,135.200 183.737,135.200 182.674 C 135.200 182.167,134.954 181.416,134.653 181.004 C 133.296 179.149,132.914 183.024,134.260 184.989 C 137.968 190.404,115.728 194.185,110.561 189.018 C 110.221 188.678,109.805 188.400,109.637 188.400 C 108.939 188.400,105.508 184.558,104.507 182.654 L 103.426 180.600 103.213 166.000 L 103.000 151.400 99.800 151.200 C 95.439 150.927,95.600 151.137,95.600 145.750 C 95.600 139.694,95.658 139.600,99.400 139.600 C 103.238 139.600,103.200 139.680,103.200 131.693 C 103.200 128.195,103.320 125.213,103.467 125.067 C 104.105 124.428,119.082 124.776,119.635 125.442 M262.138 136.369 C 259.629 136.532,258.243 136.810,257.738 137.249 C 257.332 137.602,256.400 138.003,255.668 138.142 C 254.935 138.280,253.875 138.755,253.314 139.196 C 252.752 139.638,252.079 140.000,251.818 140.000 C 251.558 140.000,250.970 140.405,250.513 140.900 C 250.056 141.395,248.944 142.330,248.041 142.977 C 247.138 143.624,246.400 144.346,246.400 144.581 C 246.400 144.815,246.040 145.232,245.600 145.507 C 245.160 145.782,244.800 146.177,244.800 146.385 C 244.800 146.593,244.350 147.214,243.800 147.764 C 243.250 148.314,242.800 149.113,242.800 149.539 C 242.800 149.965,242.540 150.414,242.222 150.536 C 241.904 150.658,241.521 151.442,241.371 152.279 C 241.221 153.116,240.806 154.133,240.449 154.541 C 239.375 155.767,239.265 171.110,240.316 173.133 C 240.735 173.940,241.203 175.273,241.356 176.095 C 241.509 176.917,241.963 177.766,242.364 177.981 C 242.766 178.196,243.198 178.890,243.325 179.524 C 243.624 181.020,249.600 187.200,250.748 187.200 C 251.201 187.200,251.760 187.552,251.991 187.983 C 252.224 188.419,253.027 188.881,253.805 189.027 C 254.572 189.171,255.200 189.431,255.200 189.605 C 255.200 190.066,257.517 190.800,258.971 190.800 C 259.659 190.800,260.667 191.115,261.211 191.500 C 262.051 192.095,263.141 192.200,268.458 192.200 C 273.857 192.200,274.822 192.104,275.490 191.500 C 275.918 191.112,276.891 190.800,277.672 190.800 C 279.256 190.800,281.600 190.087,281.600 189.605 C 281.600 189.431,282.212 189.174,282.960 189.034 C 283.708 188.894,284.548 188.503,284.828 188.166 C 285.108 187.829,285.891 187.312,286.568 187.017 C 287.246 186.722,288.769 185.579,289.953 184.478 C 292.757 181.868,292.677 181.612,287.473 176.491 C 282.680 171.774,282.206 171.621,279.811 174.013 C 278.937 174.886,277.840 175.600,277.373 175.600 C 276.906 175.600,276.198 175.960,275.800 176.400 C 275.153 177.115,274.568 177.200,270.301 177.200 C 266.132 177.200,265.397 177.099,264.509 176.400 C 263.950 175.960,263.233 175.600,262.915 175.600 C 262.167 175.600,260.000 173.433,260.000 172.685 C 260.000 172.367,259.628 171.635,259.174 171.058 C 257.723 169.213,257.845 169.200,276.775 169.200 C 292.152 169.200,294.772 169.115,295.196 168.605 C 295.969 167.673,295.597 156.866,294.747 155.568 C 294.392 155.026,293.972 153.818,293.814 152.883 C 293.656 151.949,293.282 150.939,292.983 150.640 C 292.684 150.341,292.318 149.612,292.169 149.020 C 292.021 148.428,291.562 147.733,291.150 147.476 C 290.737 147.218,290.400 146.807,290.400 146.561 C 290.400 146.316,289.780 145.303,289.022 144.310 C 287.810 142.723,286.783 141.887,283.927 140.164 C 283.530 139.925,282.889 139.450,282.503 139.109 C 282.116 138.768,281.170 138.359,280.400 138.200 C 279.630 138.041,278.678 137.627,278.285 137.280 C 277.149 136.277,269.849 135.865,262.138 136.369 M278.400 138.287 C 285.268 141.011,288.689 144.077,291.914 150.400 C 294.414 155.300,295.973 167.864,294.167 168.557 C 293.819 168.691,285.651 168.800,276.016 168.800 C 256.115 168.800,256.984 168.649,258.668 171.813 C 261.147 176.469,263.997 178.002,270.160 177.994 C 273.259 177.990,274.902 177.816,275.600 177.418 C 276.150 177.105,277.201 176.570,277.936 176.229 C 278.670 175.889,279.809 175.158,280.466 174.605 C 281.124 174.052,282.019 173.600,282.456 173.600 C 283.262 173.600,290.102 179.909,290.897 181.386 C 291.583 182.660,287.500 186.093,282.800 188.194 C 282.030 188.539,281.065 189.010,280.655 189.242 C 279.587 189.846,270.534 191.580,268.400 191.589 C 266.248 191.598,256.971 189.834,256.284 189.284 C 256.018 189.072,255.350 188.768,254.800 188.609 C 243.871 185.451,236.861 167.720,241.371 154.640 C 242.448 151.516,242.740 150.927,244.764 147.800 C 246.532 145.069,251.677 140.433,252.969 140.407 C 253.171 140.403,253.621 140.148,253.969 139.839 C 257.467 136.732,272.131 135.801,278.400 138.287 M265.433 149.092 C 261.797 149.474,256.516 156.134,257.895 158.598 C 258.304 159.329,276.547 159.630,277.229 158.917 C 278.993 157.076,275.959 150.856,272.708 149.649 C 271.501 149.201,267.390 148.886,265.433 149.092 M273.500 151.027 C 274.435 151.641,275.200 152.307,275.200 152.508 C 275.200 152.709,275.560 153.331,276.000 153.891 C 276.487 154.509,276.800 155.514,276.800 156.454 L 276.800 158.000 267.600 158.000 C 258.736 158.000,258.400 157.971,258.400 157.218 C 258.400 156.017,260.781 152.735,263.055 150.800 C 264.951 149.187,270.891 149.317,273.500 151.027 M160.000 168.058 C 151.095 168.435,149.363 169.351,149.428 173.645 C 149.550 181.690,164.912 181.579,167.224 173.516 C 168.683 168.431,167.755 167.730,160.000 168.058 M166.719 171.434 C 166.867 173.978,165.184 176.372,162.500 177.435 C 161.565 177.806,160.800 178.253,160.800 178.430 C 160.800 178.940,157.372 179.317,155.408 179.022 C 152.682 178.613,150.000 175.809,150.000 173.368 C 150.000 172.396,150.175 171.600,150.390 171.600 C 150.604 171.600,151.061 171.056,151.405 170.391 L 152.030 169.182 159.315 169.291 L 166.600 169.400 166.719 171.434 M141.264 194.412 C 140.749 194.626,138.769 194.914,136.864 195.051 C 134.556 195.218,132.984 195.552,132.153 196.051 C 131.467 196.463,130.536 196.800,130.083 196.800 C 129.631 196.800,128.727 197.250,128.073 197.800 C 127.419 198.350,126.768 198.800,126.626 198.800 C 125.674 198.800,120.400 203.464,120.400 204.307 C 120.400 204.604,120.220 204.736,120.000 204.600 C 119.780 204.464,119.600 202.693,119.600 200.665 C 119.600 194.799,120.511 195.200,107.193 195.200 C 96.226 195.200,96.017 195.215,95.216 196.075 C 94.408 196.943,94.400 197.278,94.400 232.453 L 94.400 267.955 95.289 268.577 C 96.322 269.301,117.688 269.511,118.800 268.809 C 119.316 268.482,119.428 265.538,119.600 247.656 C 119.783 228.602,119.858 226.819,120.500 226.110 C 120.885 225.685,121.200 224.889,121.200 224.341 C 121.200 223.793,121.605 222.963,122.100 222.498 C 122.595 222.032,123.630 221.009,124.400 220.225 C 125.170 219.440,126.086 218.527,126.435 218.197 C 128.075 216.647,137.549 216.693,139.289 218.260 C 139.790 218.711,140.515 219.192,140.900 219.328 C 141.285 219.464,141.600 219.837,141.600 220.157 C 141.600 220.477,142.095 221.327,142.700 222.046 L 143.800 223.352 143.930 245.681 L 144.059 268.010 145.210 268.605 C 146.782 269.418,168.059 269.493,168.727 268.688 C 169.011 268.345,169.193 261.459,169.276 247.929 C 169.391 229.126,169.451 227.627,170.117 226.891 C 170.512 226.456,170.944 225.402,171.079 224.550 C 171.557 221.519,176.075 217.670,179.676 217.225 C 183.738 216.723,187.717 217.195,188.914 218.320 C 189.430 218.804,190.060 219.200,190.316 219.200 C 190.571 219.200,191.076 219.785,191.438 220.500 C 191.800 221.215,192.321 222.070,192.595 222.400 C 193.525 223.520,193.651 226.573,193.613 247.061 L 193.575 267.522 194.642 268.361 C 196.101 269.509,217.461 269.682,218.588 268.555 C 219.592 267.551,219.342 216.461,218.327 215.340 C 217.957 214.931,217.529 213.660,217.378 212.516 C 217.212 211.270,216.800 210.162,216.351 209.755 C 215.938 209.382,215.600 208.663,215.600 208.159 C 215.600 207.654,215.150 206.756,214.600 206.162 C 214.050 205.569,213.600 204.879,213.600 204.630 C 213.600 204.382,213.262 203.888,212.848 203.534 C 212.435 203.180,212.030 202.730,211.948 202.534 C 211.867 202.338,210.720 201.328,209.400 200.290 C 208.080 199.251,206.717 198.133,206.370 197.805 C 206.024 197.477,205.124 197.088,204.370 196.942 C 203.617 196.796,202.571 196.344,202.046 195.938 C 201.408 195.444,200.424 195.200,199.072 195.200 C 197.961 195.200,195.995 194.903,194.702 194.540 C 192.518 193.928,192.157 193.928,189.618 194.540 C 188.115 194.903,185.991 195.200,184.897 195.200 C 183.514 195.200,182.598 195.444,181.891 196.000 C 181.331 196.440,180.416 196.800,179.858 196.800 C 179.299 196.800,178.356 197.250,177.762 197.800 C 177.169 198.350,176.517 198.800,176.315 198.800 C 174.963 198.800,170.565 203.114,168.600 206.368 C 166.841 209.282,166.120 209.644,165.772 207.789 C 165.626 207.013,165.168 206.197,164.753 205.975 C 164.339 205.753,164.000 205.314,164.000 205.000 C 164.000 204.341,158.588 198.800,157.944 198.800 C 157.708 198.800,156.981 198.350,156.327 197.800 C 155.673 197.250,154.762 196.800,154.301 196.800 C 153.840 196.800,153.130 196.498,152.722 196.130 C 152.251 195.703,150.566 195.272,148.091 194.943 C 145.951 194.659,143.750 194.336,143.200 194.225 C 142.650 194.114,141.779 194.198,141.264 194.412 M252.400 195.197 C 248.518 195.355,247.179 195.557,246.411 196.100 C 245.867 196.485,244.856 196.800,244.165 196.800 C 243.474 196.800,242.448 197.162,241.886 197.604 C 241.325 198.045,240.304 198.519,239.618 198.656 C 238.933 198.793,238.204 199.218,238.000 199.600 C 237.796 199.982,237.053 200.409,236.350 200.550 C 235.647 200.691,234.820 201.164,234.513 201.603 C 234.206 202.041,233.789 202.400,233.586 202.400 C 233.132 202.400,228.800 206.760,228.800 207.217 C 228.800 207.398,228.440 207.660,228.000 207.800 C 227.560 207.940,227.200 208.241,227.200 208.469 C 227.200 208.698,226.750 209.419,226.200 210.073 C 225.650 210.727,225.200 211.490,225.200 211.769 C 225.200 212.048,224.861 212.583,224.446 212.958 C 224.031 213.334,223.581 214.197,223.445 214.877 C 223.309 215.557,222.925 216.313,222.592 216.557 C 222.245 216.810,221.880 217.943,221.739 219.200 C 221.604 220.410,221.202 221.734,220.846 222.142 C 219.876 223.256,219.875 242.343,220.846 243.458 C 221.202 243.866,221.608 245.090,221.749 246.177 C 221.896 247.308,222.347 248.518,222.803 249.003 C 223.241 249.470,223.600 250.247,223.600 250.730 C 223.600 251.213,223.960 251.916,224.400 252.293 C 224.840 252.670,225.200 253.163,225.200 253.390 C 225.200 254.910,232.831 262.992,234.712 263.464 C 235.237 263.596,236.094 264.130,236.615 264.652 C 237.137 265.173,237.842 265.600,238.182 265.600 C 238.522 265.600,239.160 265.960,239.600 266.400 C 240.081 266.881,240.933 267.200,241.738 267.200 C 242.533 267.200,243.348 267.501,243.748 267.942 C 244.237 268.483,245.237 268.753,247.438 268.939 C 249.099 269.080,250.844 269.466,251.318 269.797 C 252.590 270.689,264.884 270.665,266.600 269.767 C 267.260 269.422,269.010 269.038,270.490 268.913 C 272.392 268.752,273.376 268.468,273.852 267.943 C 274.273 267.477,275.069 267.200,275.984 267.200 C 276.914 267.200,277.937 266.837,278.800 266.200 C 279.545 265.650,280.453 265.200,280.816 265.200 C 281.179 265.200,281.802 264.840,282.200 264.400 C 282.598 263.960,283.134 263.600,283.390 263.600 C 283.646 263.600,284.247 263.150,284.725 262.600 C 285.203 262.050,285.826 261.600,286.108 261.600 C 286.391 261.600,286.910 261.285,287.261 260.900 C 287.613 260.515,288.482 259.672,289.193 259.026 C 291.493 256.937,290.968 255.767,285.212 250.156 C 278.612 243.723,277.921 243.456,274.960 246.186 C 274.322 246.774,273.515 247.513,273.166 247.828 C 272.818 248.143,272.200 248.400,271.792 248.400 C 271.385 248.400,270.675 248.753,270.215 249.186 C 268.701 250.608,261.766 251.249,256.478 250.455 C 252.932 249.922,252.768 249.829,249.339 246.400 C 246.265 243.326,246.017 242.972,245.902 241.502 L 245.800 240.200 269.858 240.000 C 292.801 239.809,293.955 239.765,294.758 239.038 C 296.102 237.822,295.875 223.337,294.499 222.451 C 294.284 222.313,293.976 221.126,293.814 219.813 C 293.648 218.462,293.190 217.005,292.760 216.459 C 292.342 215.927,292.000 215.091,292.000 214.600 C 292.000 214.109,291.665 213.279,291.255 212.754 C 290.845 212.229,290.383 211.395,290.228 210.900 C 290.073 210.404,289.598 209.813,289.173 209.586 C 288.748 209.358,288.400 208.878,288.400 208.519 C 288.400 208.161,288.140 207.582,287.822 207.234 C 287.504 206.885,286.524 205.781,285.644 204.780 C 284.765 203.778,283.540 202.698,282.922 202.380 C 282.305 202.061,281.565 201.485,281.277 201.100 C 280.990 200.715,280.523 200.400,280.239 200.400 C 279.956 200.400,279.398 200.040,279.000 199.600 C 278.602 199.160,277.861 198.800,277.354 198.800 C 276.846 198.800,276.089 198.433,275.672 197.985 C 275.243 197.525,274.060 197.024,272.956 196.835 C 271.880 196.651,270.460 196.228,269.800 195.894 C 268.410 195.192,260.418 194.872,252.400 195.197 M147.035 195.564 C 149.771 195.882,154.289 197.412,156.386 198.733 C 159.795 200.879,165.200 206.785,165.200 208.364 C 165.200 211.409,166.617 210.503,170.734 204.826 C 172.491 202.403,175.121 200.076,177.061 199.226 C 177.535 199.019,178.038 198.663,178.178 198.435 C 178.319 198.207,179.282 197.755,180.317 197.430 C 181.353 197.106,183.010 196.533,184.000 196.157 C 187.216 194.937,197.900 195.175,201.088 196.537 C 202.456 197.122,203.752 197.600,203.968 197.600 C 205.196 197.600,213.200 204.349,213.200 205.384 C 213.200 205.655,213.560 206.202,214.000 206.600 C 214.440 206.998,214.800 207.528,214.800 207.777 C 214.800 208.027,215.166 208.944,215.613 209.815 C 216.398 211.345,217.206 214.323,218.018 218.685 C 218.249 219.926,218.365 230.370,218.303 244.485 L 218.200 268.200 206.800 268.200 L 195.400 268.200 195.169 247.600 C 194.917 225.187,194.842 224.410,192.579 220.798 C 189.290 215.548,180.261 214.214,175.029 218.205 C 173.363 219.476,170.400 223.063,170.400 223.809 C 170.400 224.086,170.044 225.097,169.609 226.056 C 168.855 227.717,168.817 228.737,168.809 247.467 C 168.804 258.284,168.691 267.419,168.557 267.767 C 168.241 268.593,146.498 268.738,145.680 267.920 C 145.320 267.560,145.200 262.535,145.200 247.769 C 145.200 230.959,145.104 227.669,144.541 225.149 C 141.809 212.927,125.940 212.570,120.168 224.600 L 119.016 227.000 118.808 247.600 L 118.600 268.200 108.000 268.312 C 102.170 268.374,96.995 268.326,96.500 268.205 L 95.600 267.985 95.600 232.766 C 95.600 209.254,95.738 197.290,96.014 196.774 C 96.407 196.039,96.957 196.000,106.986 196.000 C 119.639 196.000,118.800 195.648,118.800 200.952 C 118.800 205.102,119.525 206.996,120.514 205.432 C 122.390 202.466,127.572 198.493,131.097 197.320 C 132.144 196.972,133.207 196.525,133.459 196.328 C 134.516 195.503,142.595 195.049,147.035 195.564 M266.600 196.001 C 270.104 196.802,273.862 197.927,275.000 198.514 C 275.660 198.854,276.650 199.326,277.200 199.563 C 279.664 200.625,285.005 204.955,286.600 207.184 C 287.260 208.106,288.205 209.368,288.700 209.988 C 289.195 210.608,289.600 211.290,289.600 211.504 C 289.600 211.717,289.929 212.321,290.332 212.846 C 291.085 213.827,292.152 216.581,292.870 219.400 C 293.094 220.280,293.620 222.289,294.039 223.865 C 294.616 226.037,294.800 228.097,294.800 232.375 L 294.800 238.020 293.759 238.416 C 293.113 238.661,283.701 238.805,268.940 238.794 C 255.862 238.784,245.007 238.872,244.818 238.989 C 243.857 239.583,245.906 244.138,248.392 246.934 C 252.741 251.825,263.144 253.479,269.800 250.337 C 272.446 249.088,273.827 248.230,276.300 246.300 C 277.076 245.695,277.972 245.200,278.293 245.200 C 278.918 245.200,289.004 254.899,289.676 256.147 C 290.093 256.921,287.372 260.181,285.356 261.322 C 284.891 261.585,283.721 262.336,282.756 262.991 C 280.327 264.640,277.068 266.277,275.558 266.609 C 274.862 266.762,273.552 267.224,272.646 267.635 C 271.741 268.046,270.280 268.389,269.400 268.396 C 268.520 268.403,266.810 268.675,265.600 269.000 C 263.063 269.681,255.314 269.806,253.202 269.200 C 252.435 268.981,250.382 268.622,248.639 268.403 C 246.895 268.185,245.091 267.758,244.628 267.455 C 244.166 267.153,243.230 266.782,242.547 266.632 C 237.020 265.418,228.223 257.939,225.102 251.800 C 224.542 250.700,223.706 249.055,223.242 248.146 C 222.779 247.236,222.400 246.117,222.400 245.660 C 222.400 245.203,222.012 243.878,221.538 242.715 C 220.208 239.453,220.183 226.558,221.500 222.898 C 221.995 221.523,222.400 220.028,222.400 219.578 C 222.400 219.127,222.745 218.093,223.167 217.279 C 223.589 216.466,224.127 215.350,224.364 214.800 C 226.060 210.857,231.722 204.281,235.400 201.981 C 238.326 200.151,238.594 199.997,239.600 199.564 C 240.150 199.327,241.240 198.803,242.022 198.400 C 242.805 197.996,244.155 197.537,245.022 197.380 C 245.890 197.223,246.923 196.928,247.319 196.723 C 249.326 195.686,262.985 195.174,266.600 196.001 M255.400 212.010 C 252.656 212.761,251.152 213.526,249.437 215.042 C 247.460 216.789,245.219 219.843,245.207 220.806 C 245.203 221.139,244.832 222.098,244.383 222.937 C 242.676 226.121,242.233 226.024,257.929 225.905 L 271.800 225.800 271.918 223.787 C 272.342 216.549,263.042 209.919,255.400 212.010 M261.520 212.947 C 262.114 213.247,263.265 213.613,264.077 213.760 C 265.895 214.089,269.328 217.253,269.763 219.000 C 269.928 219.660,270.317 220.483,270.629 220.829 C 270.941 221.175,271.311 222.300,271.452 223.329 L 271.709 225.200 257.854 225.200 C 250.234 225.200,244.000 225.123,244.000 225.029 C 244.000 224.934,244.291 224.566,244.647 224.211 C 245.002 223.855,245.451 222.862,245.644 222.004 C 246.374 218.754,250.575 214.167,253.286 213.661 C 254.245 213.482,255.383 213.130,255.815 212.880 C 256.903 212.249,260.218 212.288,261.520 212.947 M326.901 259.000 C 326.905 259.880,326.987 260.193,327.083 259.695 C 327.179 259.198,327.175 258.478,327.075 258.095 C 326.975 257.713,326.896 258.120,326.901 259.000 M151.269 313.100 C 168.136 313.158,195.856 313.158,212.869 313.100 C 229.881 313.042,216.080 312.995,182.200 312.995 C 148.320 312.995,134.401 313.042,151.269 313.100 " stroke="none" fill="#5e5e5e" fill-rule="evenodd"></path><path id="path3" d="M114.483 65.405 C 111.998 65.694,109.739 66.118,109.463 66.348 C 109.187 66.577,108.159 66.888,107.180 67.039 C 106.201 67.189,104.770 67.625,104.000 68.007 C 103.230 68.390,102.027 68.826,101.328 68.977 C 100.628 69.128,99.841 69.510,99.579 69.826 C 99.317 70.142,98.881 70.400,98.611 70.400 C 97.598 70.400,88.227 75.817,86.542 77.376 C 86.290 77.609,85.220 78.520,84.165 79.400 C 80.845 82.169,75.213 88.142,74.234 89.931 C 74.033 90.299,73.745 90.690,73.594 90.800 C 72.918 91.293,70.345 95.655,68.471 99.484 C 67.740 100.978,66.820 102.830,66.426 103.600 C 66.033 104.370,65.583 105.701,65.426 106.558 C 65.270 107.416,64.895 108.496,64.593 108.958 C 64.291 109.421,63.849 111.027,63.610 112.526 C 63.372 114.025,62.912 116.268,62.588 117.510 C 61.866 120.282,61.687 257.168,62.401 260.645 C 63.896 267.928,64.953 271.826,66.185 274.600 C 69.234 281.467,73.412 288.580,76.054 291.400 C 79.442 295.018,82.343 297.891,84.130 299.400 C 85.172 300.280,86.320 301.269,86.681 301.597 C 87.042 301.926,87.648 302.376,88.027 302.597 C 88.406 302.819,89.680 303.661,90.858 304.470 C 92.036 305.278,93.495 306.062,94.100 306.213 C 94.705 306.363,95.200 306.625,95.200 306.795 C 95.200 306.964,95.785 307.335,96.500 307.619 C 97.215 307.902,98.052 308.329,98.360 308.567 C 99.104 309.143,103.303 310.735,105.800 311.388 C 106.900 311.676,108.299 312.108,108.909 312.349 C 113.751 314.261,118.572 314.395,183.000 314.404 C 216.440 314.408,244.013 314.548,244.274 314.714 C 244.535 314.879,244.873 316.002,245.026 317.208 C 245.178 318.413,245.545 319.995,245.841 320.723 C 246.137 321.451,246.494 322.981,246.635 324.123 C 246.775 325.265,247.213 327.460,247.607 329.000 C 248.001 330.540,248.451 332.790,248.608 334.000 C 248.764 335.210,249.082 336.560,249.314 337.000 C 249.546 337.440,249.972 339.385,250.260 341.323 C 250.548 343.260,251.035 345.600,251.343 346.523 C 251.650 347.445,252.026 349.280,252.177 350.600 C 252.935 357.211,254.536 359.543,256.675 357.154 C 257.514 356.217,258.650 354.965,259.200 354.370 C 259.750 353.775,260.830 352.509,261.600 351.557 C 262.370 350.604,263.376 349.435,263.837 348.958 C 264.297 348.481,265.698 346.855,266.950 345.345 C 268.202 343.835,269.896 341.886,270.713 341.013 C 271.531 340.141,273.190 338.226,274.400 336.758 C 275.610 335.290,277.741 332.764,279.136 331.144 C 280.530 329.525,282.330 327.407,283.136 326.438 C 283.941 325.468,285.100 324.118,285.712 323.438 C 287.854 321.052,288.265 320.580,290.424 318.014 C 291.621 316.592,292.870 315.126,293.200 314.756 C 293.530 314.386,294.465 313.300,295.277 312.342 C 296.090 311.384,297.710 309.507,298.877 308.172 C 300.045 306.837,301.810 304.803,302.800 303.654 C 303.790 302.504,306.490 299.606,308.800 297.214 C 311.110 294.821,313.900 291.677,315.000 290.227 C 316.100 288.777,317.202 287.358,317.448 287.075 C 317.695 286.792,318.202 286.030,318.576 285.380 C 318.949 284.731,319.691 283.480,320.224 282.600 C 322.555 278.749,324.757 273.464,326.391 267.800 C 328.414 260.786,328.416 260.720,328.418 188.877 C 328.418 152.070,328.324 121.801,328.209 121.614 C 328.093 121.428,327.810 119.429,327.578 117.173 C 327.347 114.918,326.925 112.516,326.641 111.836 C 326.358 111.156,325.994 109.880,325.833 109.000 C 325.672 108.120,325.176 106.590,324.732 105.600 C 324.287 104.610,323.606 103.080,323.217 102.200 C 321.889 99.190,319.903 95.403,319.151 94.447 C 318.738 93.922,318.400 93.255,318.400 92.966 C 318.400 92.677,318.168 92.296,317.884 92.120 C 317.600 91.944,317.015 91.236,316.584 90.547 C 314.185 86.713,305.511 78.209,301.541 75.800 C 301.178 75.580,300.098 74.854,299.141 74.186 C 297.035 72.719,290.266 69.364,288.600 68.963 C 287.940 68.804,287.038 68.439,286.595 68.153 C 286.152 67.866,284.802 67.424,283.595 67.169 C 282.388 66.915,281.211 66.556,280.981 66.372 C 279.435 65.135,275.588 65.071,197.400 64.975 C 134.711 64.899,118.095 64.985,114.483 65.405 M272.644 65.973 C 275.528 66.159,278.268 66.515,278.733 66.764 C 279.198 67.013,280.528 67.396,281.689 67.614 C 283.987 68.047,287.347 69.234,289.679 70.437 C 290.493 70.857,291.414 71.200,291.725 71.200 C 292.037 71.200,292.721 71.533,293.246 71.939 C 293.771 72.345,294.739 72.810,295.397 72.971 C 296.055 73.132,296.865 73.526,297.197 73.847 C 297.529 74.167,298.700 74.997,299.800 75.690 C 305.794 79.467,318.000 91.899,318.000 94.226 C 318.000 94.368,318.450 95.019,319.000 95.673 C 319.550 96.327,320.000 97.134,320.000 97.468 C 320.000 97.801,320.360 98.531,320.800 99.091 C 321.240 99.650,321.600 100.377,321.600 100.707 C 321.600 101.036,321.944 101.867,322.363 102.553 C 322.783 103.239,323.341 104.605,323.603 105.588 C 323.864 106.572,324.331 107.737,324.639 108.177 C 324.948 108.618,325.200 109.459,325.200 110.047 C 325.200 110.635,325.605 112.350,326.100 113.858 L 327.000 116.600 327.000 189.400 C 327.000 256.986,326.951 262.345,326.317 264.223 C 325.941 265.336,325.511 267.046,325.361 268.023 C 325.210 269.000,324.753 270.468,324.344 271.284 C 323.935 272.100,323.600 273.007,323.600 273.299 C 323.600 273.592,323.244 274.529,322.809 275.383 C 322.374 276.236,321.824 277.520,321.588 278.235 C 321.352 278.951,320.898 279.752,320.580 280.017 C 320.261 280.282,320.000 280.763,320.000 281.087 C 320.000 281.411,319.595 282.241,319.100 282.930 C 318.605 283.619,318.020 284.478,317.800 284.839 C 315.803 288.111,311.350 293.500,307.226 297.636 C 303.706 301.167,300.943 304.221,296.888 309.062 C 295.613 310.585,294.217 312.208,293.785 312.670 C 293.353 313.131,292.280 314.378,291.400 315.441 C 290.520 316.503,288.900 318.385,287.800 319.624 C 286.700 320.863,285.141 322.670,284.335 323.639 C 277.802 331.495,273.709 336.286,270.188 340.200 C 268.406 342.180,265.171 345.960,262.998 348.600 C 260.825 351.240,258.107 354.377,256.958 355.571 L 254.869 357.741 254.424 355.971 C 254.180 354.997,253.725 353.300,253.414 352.200 C 253.102 351.100,252.732 349.210,252.590 348.000 C 252.448 346.790,251.988 344.656,251.566 343.258 C 251.145 341.860,250.800 340.128,250.800 339.410 C 250.800 338.692,250.444 336.989,250.009 335.627 C 249.573 334.264,249.099 331.946,248.954 330.475 C 248.809 329.004,248.443 327.310,248.140 326.710 C 247.837 326.111,247.476 324.491,247.338 323.110 C 247.199 321.730,246.752 319.738,246.343 318.685 C 245.934 317.632,245.600 316.367,245.600 315.874 C 245.600 315.381,245.320 314.578,244.977 314.089 L 244.355 313.200 183.477 313.185 C 123.054 313.170,113.894 313.005,111.200 311.882 C 110.430 311.561,108.904 311.169,107.809 311.011 C 106.715 310.853,105.147 310.381,104.325 309.962 C 103.504 309.543,102.634 309.200,102.391 309.200 C 101.918 309.200,97.794 307.404,96.800 306.766 C 96.470 306.554,95.480 306.016,94.600 305.571 C 93.720 305.126,92.538 304.456,91.974 304.081 C 91.410 303.706,90.330 303.001,89.574 302.513 C 87.044 300.880,82.052 296.538,79.610 293.846 C 78.834 292.991,77.435 291.520,76.500 290.577 C 75.565 289.635,74.800 288.727,74.800 288.561 C 74.800 288.395,74.031 287.075,73.092 285.629 C 70.675 281.908,70.563 281.714,69.051 278.600 C 66.294 272.921,64.540 267.658,64.009 263.475 C 63.806 261.871,63.455 259.759,63.230 258.780 C 62.523 255.712,62.657 122.187,63.370 119.082 C 63.684 117.717,64.117 115.430,64.333 114.000 C 64.718 111.446,65.254 109.578,66.857 105.200 C 67.782 102.673,68.233 101.646,68.787 100.800 C 69.004 100.470,69.465 99.570,69.812 98.800 C 70.799 96.609,71.574 95.335,74.675 90.800 C 77.394 86.825,82.978 81.204,87.686 77.705 C 90.552 75.575,91.321 75.075,93.552 73.897 C 94.788 73.244,96.070 72.482,96.400 72.205 C 96.730 71.928,97.645 71.494,98.433 71.242 C 99.221 70.989,100.564 70.426,101.417 69.991 C 102.271 69.556,103.181 69.200,103.441 69.200 C 103.700 69.200,104.697 68.844,105.656 68.409 C 106.615 67.974,107.940 67.606,108.600 67.591 C 109.260 67.577,110.520 67.284,111.400 66.940 C 112.280 66.597,115.070 66.184,117.600 66.024 C 124.117 65.610,266.303 65.564,272.644 65.973 M196.300 117.498 C 198.335 117.571,201.665 117.571,203.700 117.498 C 205.735 117.425,204.070 117.366,200.000 117.366 C 195.930 117.366,194.265 117.425,196.300 117.498 M191.700 117.865 C 191.305 118.024,191.200 125.590,191.200 153.811 L 191.200 189.555 192.089 190.177 C 193.408 191.101,206.847 191.096,207.771 190.171 C 208.289 189.653,208.400 188.438,208.400 183.260 C 208.400 176.148,208.293 176.468,211.945 172.700 C 213.172 171.435,214.059 170.400,213.917 170.400 C 213.538 170.400,209.945 174.065,208.900 175.517 C 208.057 176.688,208.000 177.170,208.000 183.104 C 208.000 187.499,207.853 189.587,207.520 189.920 C 206.789 190.651,193.057 190.591,192.445 189.854 C 192.113 189.454,192.019 179.713,192.096 153.454 C 192.153 133.734,192.200 117.614,192.200 117.632 C 192.200 117.649,191.975 117.754,191.700 117.865 M208.000 136.205 C 208.110 146.396,208.332 154.866,208.493 155.026 C 208.792 155.325,212.000 153.310,212.000 152.823 C 212.000 152.676,214.025 150.467,216.500 147.915 C 218.975 145.364,222.226 141.999,223.724 140.438 L 226.448 137.600 235.524 137.612 C 241.886 137.621,244.391 137.746,243.900 138.032 C 243.515 138.256,243.200 138.632,243.200 138.868 C 243.200 139.104,242.075 140.465,240.700 141.895 C 239.325 143.324,237.300 145.433,236.200 146.583 C 235.100 147.733,232.355 150.591,230.100 152.934 C 225.189 158.038,225.279 157.170,229.010 163.400 C 229.537 164.280,230.248 165.490,230.589 166.089 C 232.275 169.050,234.400 171.957,234.400 171.305 C 234.400 171.053,234.217 170.734,233.994 170.596 C 233.771 170.459,233.226 169.683,232.783 168.873 C 232.340 168.063,231.181 166.140,230.207 164.600 C 225.503 157.163,225.077 158.655,234.772 148.600 C 241.367 141.760,244.789 137.906,244.576 137.561 C 244.453 137.362,240.268 137.200,235.275 137.200 L 226.196 137.200 221.598 142.065 C 213.288 150.858,209.681 154.400,209.036 154.400 C 208.464 154.400,208.400 152.568,208.400 136.224 C 208.400 126.227,208.265 117.964,208.100 117.862 C 207.935 117.759,207.890 126.014,208.000 136.205 M103.377 125.317 C 103.268 125.601,103.229 128.616,103.291 132.017 L 103.403 138.200 103.601 131.499 C 103.797 124.915,103.774 124.282,103.377 125.317 M112.000 125.095 C 120.169 125.239,119.600 124.694,119.600 132.387 C 119.600 140.401,119.228 140.000,126.679 140.000 C 131.765 140.000,132.580 140.090,133.043 140.700 C 133.687 141.548,133.799 148.224,133.197 149.808 C 132.888 150.620,132.912 150.830,133.297 150.702 C 134.069 150.445,134.178 141.248,133.421 140.260 C 132.913 139.598,132.270 139.526,127.258 139.577 C 119.678 139.653,119.909 139.898,120.058 131.942 C 120.203 124.225,120.815 124.778,112.251 124.889 L 105.400 124.979 112.000 125.095 M156.000 136.772 C 154.544 136.902,156.657 137.007,160.800 137.008 C 165.438 137.010,167.230 136.915,165.600 136.752 C 162.520 136.446,159.562 136.452,156.000 136.772 M265.300 137.097 C 266.785 137.174,269.215 137.174,270.700 137.097 C 272.185 137.020,270.970 136.957,268.000 136.957 C 265.030 136.957,263.815 137.020,265.300 137.097 M149.600 137.795 C 149.050 138.106,147.790 138.483,146.800 138.633 C 145.810 138.783,144.332 139.241,143.516 139.653 C 142.700 140.064,141.797 140.400,141.510 140.400 C 140.936 140.400,138.035 141.857,137.400 142.465 C 136.840 143.001,138.308 142.427,139.800 141.527 C 140.460 141.129,141.277 140.802,141.615 140.801 C 141.954 140.801,142.896 140.461,143.709 140.046 C 144.522 139.632,146.045 139.164,147.094 139.007 C 148.142 138.850,149.360 138.525,149.800 138.286 C 150.240 138.047,151.230 137.726,152.000 137.572 L 153.400 137.292 152.000 137.260 C 151.230 137.243,150.150 137.483,149.600 137.795 M170.200 137.844 C 172.772 138.822,173.528 138.914,171.800 138.038 C 170.920 137.592,169.840 137.229,169.400 137.231 C 168.944 137.233,169.288 137.497,170.200 137.844 M258.400 138.000 C 256.013 139.002,257.239 139.013,260.015 138.014 C 261.440 137.502,261.852 137.232,261.200 137.237 C 260.650 137.241,259.390 137.585,258.400 138.000 M275.000 137.614 C 286.885 140.908,292.854 148.175,294.371 161.200 L 294.674 163.800 294.737 161.705 C 294.810 159.273,293.247 153.013,291.914 150.400 C 288.693 144.086,285.210 140.960,278.475 138.339 C 276.866 137.712,275.156 137.218,274.675 137.241 C 273.988 137.273,274.058 137.353,275.000 137.614 M102.662 138.983 C 102.478 139.463,101.760 139.600,99.427 139.600 C 96.872 139.600,96.367 139.714,96.014 140.374 C 95.400 141.521,95.473 150.271,96.100 150.676 C 96.748 151.096,103.184 151.494,102.939 151.100 C 102.837 150.935,101.518 150.800,100.009 150.800 C 95.818 150.800,96.000 151.034,96.000 145.637 C 96.000 140.025,96.017 140.000,99.837 140.000 C 102.490 140.000,103.892 139.358,103.059 138.525 C 102.971 138.437,102.792 138.643,102.662 138.983 M174.000 139.128 C 178.309 141.081,181.733 144.934,183.368 149.671 L 184.400 152.660 184.400 171.278 L 184.400 189.895 182.900 190.143 C 180.425 190.552,170.009 190.433,169.174 189.986 C 168.568 189.662,168.400 189.140,168.400 187.586 C 168.400 186.487,168.216 185.600,167.987 185.600 C 167.211 185.600,164.800 186.759,164.800 187.132 C 164.800 187.337,163.791 188.015,162.559 188.639 C 161.326 189.262,160.513 189.838,160.753 189.918 C 160.992 189.997,161.714 189.689,162.356 189.231 C 162.998 188.774,163.666 188.400,163.840 188.400 C 164.014 188.400,164.632 187.944,165.213 187.388 C 166.600 186.058,167.600 186.412,167.600 188.233 C 167.600 190.448,168.799 190.800,176.354 190.800 C 179.871 190.800,183.218 190.621,183.792 190.403 L 184.835 190.006 184.718 170.303 C 184.610 152.296,184.540 150.515,183.900 149.611 C 183.515 149.067,183.200 148.366,183.200 148.052 C 183.200 146.638,178.032 140.400,176.860 140.400 C 176.674 140.400,176.107 140.040,175.600 139.600 C 175.093 139.160,174.390 138.813,174.039 138.828 C 173.490 138.852,173.484 138.895,174.000 139.128 M254.291 139.600 C 253.731 140.040,253.122 140.403,252.937 140.407 C 251.782 140.432,246.630 144.962,244.989 147.397 C 243.458 149.666,242.000 152.343,242.006 152.871 C 242.012 153.420,242.841 152.139,243.605 150.400 C 245.154 146.876,249.651 142.313,253.246 140.617 C 255.652 139.483,256.654 138.812,255.954 138.806 C 255.599 138.803,254.850 139.160,254.291 139.600 M137.201 143.890 C 137.201 144.160,137.559 144.970,137.999 145.690 C 138.438 146.411,138.798 146.779,138.799 146.510 C 138.799 146.240,138.441 145.430,138.001 144.710 C 137.562 143.989,137.202 143.621,137.201 143.890 M138.800 147.524 C 138.800 147.809,139.145 148.707,139.567 149.521 C 139.989 150.334,140.525 151.495,140.758 152.100 C 141.262 153.405,142.452 153.539,144.713 152.548 C 145.531 152.189,146.830 151.657,147.600 151.365 C 148.484 151.031,148.705 150.833,148.200 150.830 C 147.760 150.827,146.500 151.268,145.400 151.809 C 142.657 153.158,141.293 153.125,140.950 151.700 C 140.626 150.351,138.800 146.806,138.800 147.524 M265.600 148.803 C 264.346 149.076,264.394 149.094,266.056 148.978 C 269.512 148.736,272.665 149.426,274.405 150.804 C 275.293 151.507,275.896 151.793,275.764 151.449 C 275.633 151.109,275.183 150.721,274.763 150.588 C 274.343 150.455,274.000 150.192,274.000 150.004 C 274.000 149.111,268.075 148.264,265.600 148.803 M151.000 150.018 C 149.900 150.430,149.367 150.774,149.815 150.783 C 150.264 150.793,151.614 150.446,152.815 150.014 C 154.195 149.518,154.632 149.236,154.000 149.249 C 153.450 149.260,152.100 149.606,151.000 150.018 M161.080 149.642 C 161.784 149.846,162.470 150.190,162.604 150.406 C 162.738 150.623,163.152 150.792,163.524 150.783 C 163.924 150.773,163.629 150.454,162.800 150.000 C 162.030 149.578,161.040 149.242,160.600 149.253 C 160.112 149.265,160.299 149.416,161.080 149.642 M261.284 150.712 C 259.583 152.187,258.989 153.004,257.811 155.487 C 255.847 159.626,256.673 160.000,267.774 160.000 C 279.252 160.000,279.036 160.125,277.563 154.341 C 277.358 153.539,276.888 152.766,276.518 152.624 C 275.901 152.387,275.898 152.425,276.478 153.083 C 277.745 154.518,278.076 159.174,276.913 159.209 C 267.455 159.495,258.231 159.198,257.895 158.597 C 257.004 157.006,258.685 153.784,261.906 150.908 C 262.947 149.978,263.620 149.218,263.400 149.220 C 263.180 149.222,262.228 149.894,261.284 150.712 M120.300 151.232 C 119.188 151.880,119.244 172.304,120.366 174.920 C 121.718 178.074,125.228 179.023,128.800 177.200 C 130.804 176.178,130.626 176.120,131.590 178.100 C 133.200 181.407,133.460 181.741,133.777 180.923 C 134.043 180.236,134.085 180.238,134.629 180.976 C 135.320 181.916,135.365 181.599,134.736 180.219 C 134.480 179.658,134.120 179.200,133.936 179.200 C 133.751 179.200,133.571 177.715,133.535 175.900 L 133.471 172.600 133.235 175.468 C 132.957 178.858,132.677 179.296,131.832 177.663 C 130.942 175.941,130.635 175.859,128.554 176.779 C 121.526 179.888,120.000 177.180,120.000 161.594 C 120.000 150.234,119.332 151.260,126.827 151.100 L 132.600 150.976 126.800 150.900 C 123.437 150.856,120.706 150.996,120.300 151.232 M165.708 152.200 C 166.389 152.970,167.013 153.600,167.094 153.600 C 167.175 153.600,166.760 152.970,166.173 152.200 C 165.586 151.430,164.962 150.800,164.787 150.800 C 164.612 150.800,165.026 151.430,165.708 152.200 M103.290 165.717 L 103.200 179.633 104.380 182.158 C 105.405 184.349,108.795 188.400,109.605 188.400 C 109.755 188.400,110.293 188.760,110.800 189.200 C 111.307 189.640,112.010 189.987,112.361 189.972 C 112.910 189.948,112.916 189.905,112.400 189.672 C 111.300 189.173,108.609 187.301,107.908 186.546 C 106.060 184.556,105.200 183.444,105.198 183.042 C 105.196 182.799,104.881 182.060,104.498 181.400 C 103.882 180.341,103.775 178.536,103.590 166.000 L 103.380 151.800 103.290 165.717 M241.100 155.523 C 240.715 156.615,240.406 157.843,240.414 158.254 C 240.422 158.664,240.786 158.010,241.222 156.800 C 241.659 155.590,241.967 154.361,241.908 154.070 C 241.849 153.778,241.485 154.432,241.100 155.523 M167.417 155.638 C 167.730 158.337,167.765 158.327,157.393 158.478 C 147.532 158.622,146.418 158.807,141.600 161.100 C 137.860 162.880,133.502 168.269,133.647 170.933 C 133.690 171.719,133.720 171.707,133.964 170.800 C 136.276 162.222,143.278 158.800,158.522 158.800 C 168.283 158.800,168.635 158.678,167.732 155.600 L 167.204 153.800 167.417 155.638 M240.154 164.000 C 240.154 166.750,240.218 167.875,240.296 166.500 C 240.374 165.125,240.374 162.875,240.296 161.500 C 240.218 160.125,240.154 161.250,240.154 164.000 M294.375 167.200 L 294.200 168.200 276.112 168.304 C 258.867 168.403,258.005 168.443,257.621 169.161 C 256.596 171.075,262.438 178.000,265.077 178.000 C 265.430 178.000,264.864 177.545,263.818 176.989 C 261.397 175.702,259.980 174.278,258.668 171.813 C 256.984 168.649,256.102 168.801,276.149 168.794 C 294.433 168.788,294.975 168.740,294.710 167.155 L 294.551 166.200 294.375 167.200 M153.496 168.008 C 151.042 168.814,149.212 170.447,149.244 171.800 C 149.258 172.377,149.327 172.433,149.494 172.000 C 150.720 168.810,152.939 168.043,161.173 167.964 C 167.217 167.906,167.600 168.073,167.600 170.779 C 167.600 174.322,166.026 176.678,162.481 178.441 C 161.017 179.169,160.505 179.579,161.051 179.587 C 161.519 179.594,162.120 179.337,162.387 179.015 C 162.654 178.694,163.261 178.310,163.736 178.163 C 166.933 177.170,169.249 170.761,167.377 168.089 C 166.512 166.853,157.173 166.799,153.496 168.008 M240.576 170.400 C 240.734 171.980,241.955 175.376,241.982 174.308 C 241.992 173.928,241.741 172.938,241.424 172.108 C 241.107 171.279,240.756 170.240,240.643 169.800 C 240.530 169.360,240.500 169.630,240.576 170.400 M215.201 171.815 C 215.647 172.687,216.176 173.670,216.378 174.000 C 216.580 174.330,217.689 176.310,218.843 178.400 C 221.020 182.344,222.400 184.401,222.400 183.703 C 222.400 183.480,222.149 183.090,221.843 182.836 C 221.537 182.581,221.048 181.794,220.758 181.087 C 220.467 180.379,219.821 179.196,219.323 178.457 C 218.825 177.718,217.952 176.188,217.383 175.057 C 215.959 172.225,215.369 171.209,214.842 170.682 C 214.594 170.434,214.756 170.944,215.201 171.815 M234.400 172.216 C 234.400 172.335,234.732 172.920,235.137 173.516 C 237.081 176.373,238.000 177.873,238.000 178.190 C 238.000 178.381,238.287 178.854,238.637 179.241 C 239.234 179.900,239.735 180.731,241.438 183.882 C 241.820 184.588,242.374 185.258,242.669 185.371 C 242.989 185.494,242.850 185.053,242.330 184.289 C 240.833 182.091,240.157 181.023,239.867 180.400 C 239.713 180.070,239.062 178.990,238.421 178.000 C 237.779 177.010,236.701 175.255,236.024 174.100 C 234.913 172.204,234.400 171.609,234.400 172.216 M280.466 174.605 C 279.809 175.158,278.670 175.889,277.936 176.229 C 275.801 177.218,274.560 177.988,275.091 177.994 C 275.766 178.002,280.017 175.691,281.011 174.775 C 281.566 174.264,282.130 174.109,282.798 174.284 C 283.711 174.522,290.810 181.303,290.792 181.919 C 290.777 182.422,285.898 186.400,285.296 186.400 C 285.083 186.400,284.479 186.731,283.954 187.136 C 283.429 187.541,282.370 188.102,281.600 188.384 C 278.099 189.664,277.445 189.966,278.140 189.982 C 278.546 189.992,279.446 189.741,280.140 189.425 C 280.833 189.109,282.030 188.562,282.800 188.209 C 287.596 186.014,291.581 182.657,290.897 181.386 C 290.102 179.909,283.262 173.600,282.456 173.600 C 282.019 173.600,281.124 174.052,280.466 174.605 M149.246 175.127 C 149.200 176.063,152.427 179.600,153.328 179.600 C 153.563 179.600,153.183 179.178,152.484 178.662 C 150.951 177.531,149.769 176.082,149.495 174.998 C 149.316 174.292,149.287 174.307,149.246 175.127 M242.012 175.279 C 241.992 175.726,243.742 178.881,245.121 180.885 C 246.993 183.606,252.371 187.900,254.800 188.614 C 255.350 188.776,256.155 189.154,256.589 189.454 C 257.023 189.754,257.833 189.992,258.389 189.982 C 259.467 189.964,259.478 189.969,255.218 188.380 C 251.501 186.993,244.009 180.421,243.998 178.537 C 243.995 178.119,242.030 174.894,242.012 175.279 M268.313 178.295 C 269.476 178.376,271.276 178.376,272.313 178.293 C 273.351 178.211,272.400 178.145,270.200 178.146 C 268.000 178.147,267.151 178.214,268.313 178.295 M155.511 179.893 C 156.451 179.978,157.891 179.977,158.711 179.891 C 159.530 179.805,158.760 179.736,157.000 179.737 C 155.240 179.739,154.570 179.809,155.511 179.893 M135.232 182.697 C 135.178 184.231,142.004 190.332,143.293 189.902 C 143.508 189.831,142.809 189.284,141.742 188.688 C 138.972 187.142,136.272 184.425,135.494 182.400 C 135.339 181.996,135.253 182.094,135.232 182.697 M133.261 183.400 C 133.243 183.840,133.486 184.650,133.800 185.200 C 134.941 187.196,133.989 188.299,130.000 189.604 C 129.182 189.872,129.144 189.937,129.794 189.966 C 132.839 190.098,135.636 186.973,134.248 184.989 C 133.945 184.555,133.605 183.840,133.494 183.400 L 133.293 182.600 133.261 183.400 M222.400 184.668 C 222.400 184.901,222.760 185.550,223.200 186.109 C 223.640 186.669,224.000 187.317,224.000 187.549 C 224.000 187.782,224.559 188.608,225.241 189.386 L 226.483 190.800 235.361 190.800 C 245.934 190.800,246.408 190.616,244.200 187.362 C 243.650 186.551,243.200 186.069,243.200 186.290 C 243.200 186.511,243.560 187.150,244.000 187.709 C 245.988 190.237,245.450 190.400,235.137 190.400 L 226.738 190.400 225.569 189.231 C 224.926 188.588,224.400 187.813,224.400 187.508 C 224.400 187.204,223.950 186.345,223.400 185.600 C 222.850 184.855,222.400 184.435,222.400 184.668 M115.200 190.817 C 118.192 191.816,123.041 191.821,126.400 190.829 C 129.489 189.917,128.767 189.740,125.465 190.600 C 122.539 191.362,118.757 191.360,116.236 190.596 C 113.441 189.748,112.560 189.935,115.200 190.817 M146.200 190.816 C 149.383 191.840,154.157 191.846,157.600 190.829 C 159.030 190.407,159.824 190.047,159.364 190.031 C 158.904 190.014,157.644 190.268,156.564 190.596 C 154.071 191.352,149.477 191.360,147.400 190.612 C 146.520 190.295,145.350 190.037,144.800 190.039 C 144.209 190.041,144.781 190.359,146.200 190.816 M262.800 190.822 C 267.084 191.756,269.283 191.758,273.800 190.832 C 278.180 189.934,277.192 189.802,272.000 190.593 C 268.678 191.098,267.747 191.098,264.600 190.587 C 259.675 189.788,258.663 189.921,262.800 190.822 M141.091 195.489 C 141.801 195.577,143.061 195.579,143.891 195.492 C 144.721 195.405,144.140 195.333,142.600 195.331 C 141.060 195.329,140.381 195.400,141.091 195.489 M190.500 195.491 C 191.325 195.578,192.675 195.578,193.500 195.491 C 194.325 195.405,193.650 195.334,192.000 195.334 C 190.350 195.334,189.675 195.405,190.500 195.491 M136.505 195.887 C 137.114 195.979,138.014 195.977,138.505 195.882 C 138.997 195.787,138.500 195.711,137.400 195.714 C 136.300 195.717,135.897 195.795,136.505 195.887 M146.505 195.887 C 147.114 195.979,148.014 195.977,148.505 195.882 C 148.997 195.787,148.500 195.711,147.400 195.714 C 146.300 195.717,145.897 195.795,146.505 195.887 M186.105 195.887 C 186.714 195.979,187.614 195.977,188.105 195.882 C 188.597 195.787,188.100 195.711,187.000 195.714 C 185.900 195.717,185.497 195.795,186.105 195.887 M197.400 196.003 C 198.720 196.165,200.340 196.589,201.000 196.946 C 201.660 197.303,202.470 197.589,202.800 197.581 C 203.130 197.574,202.410 197.132,201.200 196.600 C 199.756 195.965,198.313 195.645,197.000 195.671 L 195.000 195.709 197.400 196.003 M254.700 195.898 C 256.735 195.971,260.065 195.971,262.100 195.898 C 264.135 195.825,262.470 195.766,258.400 195.766 C 254.330 195.766,252.665 195.825,254.700 195.898 M96.014 196.774 C 95.738 197.290,95.600 209.254,95.600 232.766 L 95.600 267.985 96.500 268.205 C 96.995 268.326,102.170 268.374,108.000 268.312 L 118.600 268.200 118.606 249.100 L 118.612 230.000 118.502 249.006 L 118.392 268.013 107.296 267.906 L 96.200 267.800 96.098 232.878 C 96.029 209.260,96.130 197.704,96.412 197.178 C 96.807 196.440,97.330 196.400,106.595 196.400 C 118.980 196.400,118.398 196.175,118.405 200.964 C 118.414 206.892,119.151 207.788,121.555 204.797 C 123.006 202.990,126.709 199.865,129.046 198.475 C 129.901 197.967,130.265 197.654,129.855 197.780 C 127.499 198.505,122.095 202.932,120.514 205.432 C 119.525 206.996,118.800 205.102,118.800 200.952 C 118.800 195.648,119.639 196.000,106.986 196.000 C 96.957 196.000,96.407 196.039,96.014 196.774 M133.438 196.300 C 133.276 196.465,132.571 196.811,131.871 197.070 C 130.994 197.394,130.848 197.544,131.400 197.556 C 131.840 197.565,132.920 197.225,133.800 196.800 C 134.938 196.250,135.159 196.023,134.567 196.014 C 134.108 196.006,133.600 196.135,133.438 196.300 M151.000 196.822 C 151.880 197.238,152.870 197.580,153.200 197.581 C 153.530 197.582,153.015 197.226,152.056 196.791 C 151.097 196.356,150.107 196.015,149.856 196.032 C 149.605 196.050,150.120 196.405,151.000 196.822 M182.800 196.600 C 182.250 196.914,181.569 197.178,181.287 197.186 C 180.634 197.204,178.506 198.191,177.164 199.099 C 176.594 199.485,175.424 200.273,174.564 200.852 C 172.907 201.967,172.052 202.852,170.227 205.340 C 169.606 206.187,170.736 205.242,172.738 203.240 C 174.740 201.238,176.629 199.600,176.935 199.600 C 177.242 199.600,177.921 199.264,178.446 198.854 C 178.971 198.444,180.390 197.816,181.600 197.458 C 184.031 196.739,185.458 196.006,184.400 196.020 C 184.070 196.025,183.350 196.286,182.800 196.600 M248.000 196.474 C 247.450 196.707,246.460 197.037,245.800 197.208 C 244.712 197.489,244.694 197.519,245.600 197.533 C 246.150 197.541,247.590 197.211,248.800 196.800 C 250.208 196.322,250.640 196.053,250.000 196.052 C 249.450 196.051,248.550 196.241,248.000 196.474 M268.000 196.769 C 269.210 197.197,270.650 197.547,271.200 197.547 C 271.822 197.546,271.444 197.320,270.200 196.948 C 267.114 196.025,265.533 195.897,268.000 196.769 M154.846 198.345 C 155.371 198.755,156.182 199.209,156.648 199.355 C 158.389 199.901,163.634 205.669,164.872 208.400 C 165.102 208.907,165.148 208.898,165.172 208.341 C 165.241 206.710,159.626 200.702,155.953 198.477 C 154.184 197.405,153.546 197.329,154.846 198.345 M204.000 198.022 C 204.330 198.247,205.267 198.784,206.083 199.215 C 207.825 200.136,212.301 204.476,213.285 206.200 C 214.529 208.377,216.091 211.780,216.407 213.000 C 216.692 214.100,216.720 214.116,216.747 213.200 C 216.762 212.650,216.332 211.300,215.791 210.200 C 215.250 209.100,214.806 208.003,214.804 207.762 C 214.802 207.521,214.440 206.998,214.000 206.600 C 213.560 206.202,213.200 205.655,213.200 205.384 C 213.200 204.294,205.167 197.590,203.880 197.606 C 203.582 197.610,203.628 197.768,204.000 198.022 M242.200 198.400 C 240.648 199.428,241.178 199.428,243.096 198.400 C 243.916 197.960,244.321 197.601,243.994 197.603 C 243.667 197.604,242.860 197.963,242.200 198.400 M273.704 198.400 C 275.622 199.428,276.152 199.428,274.600 198.400 C 273.940 197.963,273.133 197.604,272.806 197.603 C 272.479 197.601,272.884 197.960,273.704 198.400 M238.691 200.000 C 238.131 200.440,237.522 200.803,237.337 200.807 C 235.531 200.846,225.600 210.753,225.600 212.516 C 225.600 212.713,225.240 213.331,224.800 213.891 C 224.360 214.450,224.007 215.199,224.016 215.554 C 224.024 215.911,224.290 215.663,224.608 215.000 C 226.349 211.379,233.099 203.200,234.347 203.200 C 234.513 203.200,235.025 202.850,235.484 202.422 C 235.943 201.995,236.922 201.360,237.659 201.012 C 240.055 199.880,241.052 199.212,240.354 199.206 C 239.999 199.203,239.250 199.560,238.691 200.000 M276.800 199.795 C 277.350 200.116,278.383 200.655,279.095 200.993 C 279.807 201.330,281.933 203.090,283.820 204.903 C 285.706 206.716,287.360 208.290,287.494 208.400 C 287.629 208.510,287.128 207.823,286.382 206.874 C 285.123 205.274,279.970 200.800,279.384 200.800 C 279.242 200.800,278.669 200.440,278.109 200.000 C 277.550 199.560,276.801 199.203,276.446 199.206 C 276.009 199.210,276.124 199.401,276.800 199.795 M167.621 208.870 C 166.347 210.350,166.202 210.418,165.721 209.760 C 165.434 209.368,165.200 209.239,165.200 209.475 C 165.200 209.710,165.466 210.123,165.792 210.393 C 166.391 210.891,169.200 208.582,169.200 207.593 C 169.200 207.047,169.168 207.072,167.621 208.870 M287.600 209.120 C 287.600 209.330,287.843 209.704,288.140 209.950 C 289.144 210.784,292.526 218.456,292.922 220.800 C 293.072 221.688,293.096 221.666,293.137 220.600 C 293.162 219.940,292.856 218.680,292.458 217.800 C 292.059 216.920,291.602 215.674,291.442 215.032 C 291.282 214.389,290.802 213.420,290.375 212.878 C 289.949 212.336,289.600 211.717,289.600 211.504 C 289.600 211.290,289.150 210.581,288.600 209.927 C 288.050 209.273,287.600 208.910,287.600 209.120 M255.200 211.564 C 253.653 211.921,251.097 213.194,251.920 213.198 C 252.206 213.199,252.984 212.918,253.650 212.574 C 255.753 211.487,259.848 211.386,262.586 212.356 C 265.615 213.427,266.339 213.429,264.000 212.359 C 262.012 211.449,257.476 211.040,255.200 211.564 M248.600 215.343 C 246.295 217.761,245.200 219.188,245.200 219.776 C 245.200 220.003,245.605 219.573,246.100 218.821 C 246.595 218.069,247.990 216.497,249.199 215.327 C 250.409 214.157,251.219 213.210,250.999 213.223 C 250.780 213.235,249.700 214.189,248.600 215.343 M267.987 215.281 C 269.190 216.534,270.247 217.487,270.336 217.398 C 270.505 217.229,269.001 215.705,266.983 214.001 C 266.332 213.452,266.784 214.027,267.987 215.281 M217.019 215.800 C 217.157 216.680,217.423 218.210,217.611 219.200 C 217.799 220.190,217.963 231.575,217.976 244.500 L 218.000 268.000 206.800 268.000 L 195.600 268.000 195.574 247.700 C 195.549 228.973,195.489 227.230,194.800 225.200 C 194.389 223.990,194.041 223.271,194.026 223.603 C 194.012 223.934,194.218 224.834,194.484 225.603 C 194.827 226.592,195.032 233.020,195.184 247.600 L 195.400 268.200 206.800 268.200 L 218.200 268.200 218.200 243.000 C 218.200 219.718,218.145 217.663,217.484 216.000 L 216.767 214.200 217.019 215.800 M129.000 216.036 C 126.473 216.957,127.391 217.012,130.540 216.129 C 135.740 214.670,142.918 218.306,144.105 223.002 C 144.300 223.773,144.309 223.773,144.354 223.022 C 144.402 222.214,142.584 219.243,141.695 218.677 C 141.416 218.499,140.875 218.035,140.494 217.645 C 138.466 215.576,132.538 214.746,129.000 216.036 M178.748 215.967 C 176.658 216.677,172.401 219.340,172.400 219.938 C 172.399 220.082,171.949 220.723,171.400 221.362 C 170.850 222.001,170.400 222.700,170.400 222.914 C 170.400 223.129,171.116 222.406,171.990 221.307 C 177.674 214.169,188.419 213.951,192.611 220.890 C 193.239 221.930,193.831 222.702,193.926 222.607 C 194.672 221.861,190.062 217.023,188.173 216.571 C 187.528 216.416,186.777 216.114,186.504 215.899 C 185.520 215.124,181.115 215.163,178.748 215.967 M223.009 217.732 C 222.613 218.466,222.390 219.323,222.513 219.634 C 222.676 220.046,222.745 220.006,222.768 219.486 C 222.786 219.093,223.094 218.323,223.454 217.773 C 223.814 217.224,224.023 216.690,223.918 216.585 C 223.814 216.481,223.405 216.997,223.009 217.732 M123.652 219.181 C 120.959 221.832,118.767 225.897,118.850 228.083 C 118.899 229.367,118.907 229.360,119.193 227.800 C 119.748 224.777,121.222 222.280,124.095 219.500 C 125.629 218.015,126.702 216.800,126.477 216.800 C 126.253 216.800,124.982 217.871,123.652 219.181 M270.401 218.116 C 270.401 218.290,270.769 219.155,271.220 220.039 C 271.808 221.192,272.006 222.235,271.920 223.723 L 271.800 225.800 257.929 225.905 C 242.233 226.024,242.676 226.121,244.383 222.937 C 244.832 222.098,245.198 221.139,245.195 220.806 C 245.193 220.473,244.724 221.168,244.155 222.352 C 243.309 224.109,243.198 224.678,243.551 225.452 L 243.983 226.400 257.742 226.400 C 273.498 226.400,272.605 226.614,272.319 222.901 C 272.177 221.072,270.408 216.657,270.401 218.116 M221.500 222.938 C 221.115 224.110,220.812 225.504,220.827 226.035 C 220.852 226.929,221.575 224.822,222.247 221.900 C 222.665 220.082,222.247 220.663,221.500 222.938 M293.246 222.400 C 293.231 222.730,293.418 223.720,293.661 224.600 C 293.904 225.480,294.230 227.550,294.385 229.200 L 294.668 232.200 294.728 229.400 C 294.780 227.043,293.342 220.256,293.246 222.400 M169.500 225.055 C 169.115 225.813,168.804 226.740,168.809 227.116 C 168.814 227.492,169.178 227.005,169.620 226.032 C 170.586 223.902,170.489 223.108,169.500 225.055 M144.645 225.000 C 144.807 225.660,145.004 235.459,145.083 246.776 C 145.182 260.807,145.366 267.518,145.663 267.876 C 146.376 268.735,168.226 268.631,168.557 267.767 C 168.691 267.419,168.758 258.284,168.706 247.467 L 168.611 227.800 168.406 247.800 L 168.200 267.800 157.000 267.800 L 145.800 267.800 145.600 246.600 C 145.444 230.059,145.285 225.224,144.876 224.600 C 144.400 223.875,144.379 223.912,144.645 225.000 M220.551 232.400 C 220.551 234.930,220.616 235.965,220.696 234.700 C 220.775 233.435,220.775 231.365,220.696 230.100 C 220.616 228.835,220.551 229.870,220.551 232.400 M293.200 238.034 C 292.430 238.228,281.205 238.374,268.255 238.358 C 252.454 238.339,244.573 238.467,244.294 238.746 C 243.758 239.282,244.949 243.188,246.028 244.433 C 246.453 244.922,246.800 245.475,246.800 245.661 C 246.800 245.848,247.520 246.720,248.400 247.600 C 249.280 248.480,250.152 249.200,250.339 249.200 C 250.525 249.200,251.098 249.565,251.613 250.011 C 252.127 250.457,253.009 250.918,253.574 251.035 C 254.138 251.153,255.191 251.508,255.914 251.824 C 257.634 252.578,263.815 252.584,266.086 251.834 C 267.029 251.523,268.160 251.183,268.600 251.080 L 269.400 250.893 268.600 250.851 C 268.160 250.828,266.810 251.075,265.600 251.400 C 256.813 253.758,247.024 248.872,244.975 241.105 C 244.298 238.540,241.706 238.792,269.880 238.688 C 288.514 238.620,294.073 238.487,294.460 238.100 C 294.735 237.825,294.879 237.618,294.780 237.641 C 294.681 237.663,293.970 237.840,293.200 238.034 M220.872 239.400 C 220.857 240.280,221.185 241.810,221.600 242.800 C 222.015 243.790,222.365 244.297,222.378 243.926 C 222.390 243.555,222.193 242.745,221.941 242.126 C 221.689 241.507,221.351 240.280,221.191 239.400 L 220.900 237.800 220.872 239.400 M222.447 245.546 C 222.421 246.066,222.779 247.236,223.242 248.146 C 223.706 249.055,224.545 250.700,225.106 251.800 C 226.927 255.365,230.680 259.684,233.900 261.921 C 235.891 263.304,235.455 262.741,232.787 260.485 C 229.148 257.408,226.399 253.948,224.774 250.400 C 224.522 249.850,224.024 248.770,223.668 248.000 C 223.312 247.230,222.902 246.150,222.757 245.600 L 222.495 244.600 222.447 245.546 M276.155 246.395 C 275.300 247.053,274.382 247.773,274.115 247.997 C 273.848 248.221,273.128 248.621,272.515 248.886 C 271.121 249.489,269.345 250.800,269.922 250.800 C 270.159 250.800,270.466 250.617,270.604 250.394 C 270.742 250.171,271.489 249.723,272.263 249.399 C 273.038 249.076,274.579 248.088,275.688 247.205 C 278.309 245.119,277.709 244.863,283.739 250.639 C 290.475 257.090,290.212 256.487,287.414 259.071 C 286.145 260.242,285.270 261.200,285.468 261.200 C 286.474 261.200,290.072 256.881,289.676 256.147 C 289.004 254.900,278.918 245.200,278.293 245.200 C 277.972 245.200,277.010 245.738,276.155 246.395 M284.196 261.606 C 283.947 262.009,282.903 262.620,278.238 265.091 C 276.897 265.802,276.000 266.387,276.244 266.391 C 277.222 266.410,284.037 262.512,284.590 261.616 C 284.731 261.387,284.757 261.200,284.647 261.200 C 284.537 261.200,284.334 261.383,284.196 261.606 M236.565 263.644 C 237.790 264.608,241.202 266.399,241.800 266.392 C 242.257 266.388,240.957 265.621,238.552 264.475 C 237.645 264.044,236.779 263.490,236.628 263.245 C 236.477 263.000,236.159 262.800,235.922 262.800 C 235.686 262.800,235.975 263.180,236.565 263.644 M243.000 266.694 C 243.440 266.805,244.155 267.145,244.589 267.448 C 245.023 267.752,245.653 267.992,245.989 267.983 C 246.325 267.974,245.970 267.622,245.200 267.200 C 244.430 266.778,243.440 266.447,243.000 266.463 L 242.200 266.493 243.000 266.694 M272.400 267.200 C 271.630 267.622,270.190 268.004,269.200 268.050 L 267.400 268.134 268.937 268.294 C 269.782 268.381,271.042 268.239,271.737 267.979 C 275.875 266.425,275.855 266.435,274.800 266.434 C 274.250 266.434,273.170 266.778,272.400 267.200 M247.500 268.282 C 247.995 268.378,248.805 268.378,249.300 268.282 C 249.795 268.187,249.390 268.109,248.400 268.109 C 247.410 268.109,247.005 268.187,247.500 268.282 M252.400 268.996 C 255.312 269.751,262.803 269.757,265.400 269.006 L 267.400 268.428 264.600 268.714 C 261.025 269.079,256.564 269.078,253.000 268.713 L 250.200 268.425 252.400 268.996 " stroke="none" fill="#457084" fill-rule="evenodd"></path></g></svg>