<svg id="svg" version="1.1" xmlns="http://www.w3.org/2000/svg" xmlns:xlink="http://www.w3.org/1999/xlink" width="400" height="116.8" viewBox="0, 0, 400,116.8"><g id="svgg"><path id="path0" d="M111.917 28.631 C 110.230 28.767,108.679 28.985,108.083 29.172 C 107.533 29.344,106.671 29.536,106.167 29.599 C 105.662 29.662,104.821 29.928,104.296 30.190 C 103.772 30.452,103.242 30.667,103.119 30.667 C 102.899 30.667,101.736 31.163,101.083 31.536 C 100.900 31.640,100.073 32.071,99.246 32.492 C 98.418 32.913,97.485 33.443,97.171 33.670 C 96.857 33.898,96.285 34.271,95.898 34.500 C 94.886 35.101,91.891 37.792,91.503 38.449 C 91.322 38.756,90.912 39.161,90.593 39.350 C 90.273 39.539,89.644 40.231,89.196 40.888 C 88.747 41.545,87.921 42.721,87.359 43.500 C 86.798 44.279,86.253 45.179,86.148 45.500 C 86.043 45.821,85.709 46.496,85.407 47.000 C 85.105 47.504,84.695 48.517,84.496 49.250 C 84.296 49.983,83.995 50.734,83.825 50.919 C 83.483 51.291,83.000 52.950,83.000 53.755 C 83.000 54.040,82.846 54.981,82.659 55.845 C 82.172 58.086,82.174 65.084,82.662 66.996 C 82.838 67.686,83.103 68.793,83.251 69.456 C 83.400 70.119,83.697 70.982,83.912 71.373 C 84.127 71.764,84.463 72.663,84.659 73.372 C 85.108 74.995,85.706 76.308,86.426 77.251 C 86.735 77.656,87.172 78.346,87.397 78.785 C 88.412 80.763,92.919 85.376,95.825 87.413 C 96.325 87.763,96.879 88.185,97.056 88.350 C 97.233 88.515,97.649 88.768,97.981 88.913 C 98.312 89.057,98.808 89.295,99.083 89.441 C 99.358 89.587,100.038 89.949,100.594 90.246 C 101.610 90.789,104.320 91.743,107.417 92.649 C 108.558 92.983,109.635 93.168,110.833 93.237 C 111.796 93.292,113.266 93.419,114.100 93.519 C 115.331 93.667,116.006 93.651,117.690 93.434 C 118.831 93.287,120.173 93.167,120.673 93.167 C 121.549 93.167,123.351 92.665,127.417 91.292 C 128.946 90.775,131.217 89.542,132.417 88.577 C 132.783 88.282,133.271 87.984,133.500 87.915 C 133.729 87.845,134.151 87.592,134.438 87.353 C 134.725 87.113,135.489 86.512,136.135 86.017 C 137.312 85.116,141.086 81.115,141.496 80.333 C 141.616 80.104,141.990 79.615,142.326 79.245 C 143.855 77.569,145.768 73.546,145.273 73.050 C 145.202 72.980,141.130 72.940,136.224 72.961 C 126.168 73.004,126.970 72.898,125.830 74.337 C 125.541 74.703,124.879 75.281,124.360 75.622 C 123.841 75.964,123.392 76.299,123.363 76.367 C 123.238 76.653,121.326 77.658,120.167 78.048 C 117.245 79.031,111.115 78.730,108.960 77.498 C 108.800 77.407,108.170 77.067,107.559 76.743 C 103.214 74.438,99.243 68.350,100.963 66.630 L 101.343 66.250 111.796 66.214 C 117.546 66.194,127.967 66.176,134.954 66.172 L 147.658 66.167 147.890 65.708 C 148.446 64.608,148.321 58.048,147.694 55.417 C 147.519 54.683,147.283 53.483,147.170 52.750 C 147.057 52.017,146.889 51.274,146.797 51.101 C 146.704 50.927,146.377 50.072,146.070 49.201 C 145.763 48.330,145.324 47.334,145.096 46.989 C 144.867 46.643,144.629 46.148,144.566 45.888 C 144.074 43.838,139.007 37.736,136.000 35.572 C 135.404 35.143,134.712 34.601,134.462 34.368 C 133.822 33.772,133.043 33.315,130.750 32.189 C 126.645 30.175,125.824 29.833,125.088 29.833 C 124.696 29.833,123.785 29.640,123.063 29.403 C 121.694 28.954,120.176 28.729,117.500 28.578 C 116.629 28.529,115.654 28.470,115.333 28.446 C 115.013 28.423,113.475 28.506,111.917 28.631 M188.136 28.419 C 188.103 28.452,186.826 28.522,185.297 28.575 C 182.997 28.655,182.193 28.754,180.634 29.151 C 179.598 29.414,178.426 29.677,178.030 29.735 C 177.409 29.827,173.992 31.298,171.917 32.368 C 171.550 32.557,170.950 32.862,170.583 33.046 C 169.199 33.739,165.505 36.623,164.142 38.073 C 162.222 40.117,160.502 42.297,159.882 43.472 C 159.657 43.900,159.299 44.438,159.088 44.667 C 158.877 44.896,158.649 45.271,158.582 45.500 C 158.515 45.729,158.206 46.374,157.896 46.933 C 157.586 47.492,157.192 48.354,157.020 48.850 C 156.848 49.345,156.438 50.500,156.108 51.417 C 155.773 52.345,155.506 53.404,155.504 53.807 C 155.502 54.205,155.347 55.284,155.159 56.204 C 154.381 60.022,154.871 67.941,156.061 70.787 C 156.283 71.316,156.581 72.209,156.723 72.770 C 156.999 73.858,159.393 78.295,160.488 79.750 C 160.833 80.208,161.239 80.768,161.390 80.994 C 161.799 81.605,164.439 84.275,165.589 85.240 C 167.794 87.090,168.273 87.461,168.833 87.749 C 169.154 87.914,169.717 88.291,170.083 88.586 C 170.719 89.098,172.607 90.166,172.878 90.166 C 172.949 90.167,173.624 90.458,174.378 90.814 C 176.153 91.651,177.201 92.000,177.941 92.000 C 178.270 92.000,178.811 92.141,179.144 92.314 C 179.930 92.720,181.785 93.033,186.083 93.484 C 188.777 93.766,195.070 92.977,197.499 92.052 C 198.095 91.825,199.229 91.429,200.018 91.171 C 200.807 90.913,202.043 90.357,202.765 89.935 C 203.486 89.512,204.168 89.167,204.280 89.167 C 204.392 89.167,204.543 89.060,204.617 88.930 C 204.690 88.800,205.085 88.503,205.495 88.271 C 206.484 87.710,208.101 86.481,209.471 85.250 C 210.083 84.700,210.808 84.061,211.083 83.831 C 211.358 83.600,211.921 82.975,212.333 82.441 C 212.746 81.907,213.325 81.158,213.619 80.777 C 214.703 79.375,215.679 77.962,215.920 77.446 C 216.056 77.155,216.388 76.617,216.657 76.250 C 217.571 75.006,217.994 73.349,217.486 73.000 C 217.420 72.954,213.467 72.927,208.702 72.940 L 200.038 72.963 199.311 73.402 C 198.911 73.644,198.358 74.130,198.083 74.484 C 197.198 75.623,193.767 77.833,192.885 77.833 C 192.667 77.833,192.288 77.965,192.044 78.125 C 191.287 78.621,185.071 78.653,183.453 78.169 C 182.406 77.856,180.251 76.939,179.500 76.487 C 179.362 76.404,178.953 76.177,178.591 75.981 C 177.715 75.508,176.115 73.970,175.315 72.833 C 174.961 72.329,174.434 71.589,174.145 71.188 C 173.103 69.742,172.580 67.603,173.089 66.875 C 173.576 66.181,173.790 66.175,197.027 66.172 C 209.368 66.171,219.566 66.129,219.690 66.078 C 220.739 65.651,221.036 58.242,220.124 55.280 C 219.874 54.471,219.585 53.308,219.481 52.696 C 219.377 52.084,219.039 50.975,218.729 50.232 C 218.420 49.489,218.167 48.785,218.167 48.669 C 218.167 48.273,216.784 45.253,216.411 44.833 C 216.207 44.604,215.947 44.229,215.832 44.000 C 215.325 42.991,213.141 39.862,212.558 39.309 C 212.205 38.975,211.157 37.978,210.229 37.094 C 209.301 36.209,208.193 35.264,207.766 34.993 C 207.339 34.722,206.943 34.379,206.886 34.230 C 206.829 34.081,206.362 33.774,205.849 33.548 C 205.336 33.322,204.804 33.038,204.667 32.917 C 204.259 32.556,202.136 31.511,201.417 31.317 C 201.050 31.218,200.525 31.037,200.250 30.915 C 198.460 30.123,197.853 29.915,195.853 29.407 C 194.388 29.036,192.872 28.782,191.436 28.667 C 190.234 28.571,189.013 28.462,188.723 28.426 C 188.433 28.389,188.169 28.386,188.136 28.419 M22.236 30.504 C 21.640 30.611,21.513 32.569,22.048 33.386 C 22.384 33.899,22.700 34.697,24.087 38.537 C 24.673 40.162,25.263 41.662,25.396 41.871 C 25.530 42.079,25.723 42.587,25.825 43.000 C 25.927 43.413,26.150 44.087,26.320 44.500 C 26.491 44.913,26.837 45.887,27.091 46.667 C 27.344 47.446,27.617 48.169,27.697 48.273 C 27.777 48.377,28.097 49.202,28.407 50.106 C 29.119 52.181,29.961 54.483,30.167 54.917 C 30.419 55.448,31.803 59.242,32.509 61.333 C 32.865 62.387,33.276 63.458,33.422 63.711 C 33.569 63.965,33.938 65.015,34.243 66.045 C 34.547 67.074,34.953 68.292,35.144 68.750 C 35.735 70.165,37.370 74.492,38.199 76.833 C 38.377 77.337,38.830 78.500,39.204 79.417 C 39.578 80.333,40.087 81.683,40.335 82.417 C 40.582 83.150,40.979 84.134,41.218 84.604 C 41.456 85.074,41.878 86.223,42.156 87.157 C 43.566 91.904,42.820 91.585,52.494 91.574 C 61.944 91.564,61.500 91.662,62.218 89.417 C 62.714 87.867,63.300 86.256,63.825 85.000 C 64.112 84.313,64.710 82.662,65.154 81.333 C 65.598 80.004,66.335 78.017,66.793 76.917 C 67.251 75.817,67.888 74.129,68.209 73.167 C 68.736 71.587,69.291 70.150,69.914 68.750 C 70.036 68.475,70.416 67.350,70.758 66.250 C 71.100 65.150,71.435 64.175,71.504 64.083 C 71.730 63.782,72.692 61.275,73.103 59.920 C 73.562 58.405,74.323 56.398,74.812 55.417 C 74.995 55.050,75.494 53.663,75.922 52.333 C 76.686 49.958,77.356 48.144,78.261 46.000 C 78.707 44.944,79.584 42.546,80.824 38.997 C 81.160 38.033,81.564 37.020,81.720 36.747 C 81.877 36.474,82.147 35.837,82.321 35.333 C 82.495 34.829,82.863 33.779,83.139 33.000 C 83.627 31.621,83.632 31.570,83.352 31.083 L 83.064 30.583 74.426 30.583 L 65.787 30.583 65.116 31.375 C 64.540 32.055,64.370 32.456,63.909 34.208 C 63.615 35.331,63.216 36.587,63.024 37.000 C 62.831 37.412,62.672 37.892,62.670 38.065 C 62.668 38.238,62.336 39.363,61.932 40.565 C 61.529 41.767,61.088 43.200,60.953 43.750 C 60.818 44.300,60.248 46.081,59.687 47.707 C 59.126 49.333,58.667 50.783,58.667 50.929 C 58.667 51.074,58.491 51.656,58.275 52.222 C 57.857 53.321,56.503 57.565,55.740 60.167 C 55.484 61.038,55.143 62.050,54.982 62.417 C 54.820 62.783,54.561 63.781,54.405 64.634 C 53.609 68.986,51.406 68.116,50.270 63.000 C 50.137 62.404,49.803 61.242,49.525 60.417 C 49.248 59.592,48.747 58.017,48.412 56.917 C 48.076 55.817,47.628 54.429,47.415 53.833 C 46.970 52.589,46.672 51.628,45.580 47.917 C 44.794 45.250,44.148 43.236,43.171 40.417 C 42.684 39.012,42.511 38.433,41.670 35.390 C 41.488 34.734,41.196 33.946,41.021 33.640 C 40.846 33.334,40.655 32.745,40.597 32.331 C 40.539 31.917,40.313 31.354,40.095 31.081 L 39.699 30.584 31.210 30.501 C 26.541 30.454,22.503 30.456,22.236 30.504 M337.634 30.422 C 337.585 30.471,334.003 30.513,329.674 30.515 C 321.348 30.520,321.114 30.541,320.916 31.280 C 320.847 31.538,320.803 39.550,320.820 49.083 C 320.845 64.036,320.815 66.531,320.601 67.250 C 320.464 67.708,320.265 68.586,320.160 69.200 C 320.035 69.928,319.776 70.625,319.417 71.200 C 319.113 71.686,318.638 72.467,318.360 72.936 C 317.548 74.309,315.718 75.720,314.265 76.094 C 313.799 76.214,312.967 76.482,312.417 76.688 C 310.831 77.285,308.258 77.216,306.206 76.522 C 305.357 76.235,304.568 76.000,304.454 76.000 C 303.894 76.000,302.002 74.466,301.270 73.419 C 300.187 71.869,300.086 71.638,299.603 69.583 C 298.824 66.270,298.827 66.358,298.911 49.001 C 298.994 31.899,298.966 31.005,298.330 30.665 C 297.924 30.448,282.175 30.442,281.604 30.659 C 280.806 30.962,280.826 30.434,280.830 50.954 C 280.835 73.142,280.887 74.267,282.073 77.900 C 282.308 78.620,282.500 79.301,282.500 79.413 C 282.500 79.677,284.169 82.979,284.903 84.167 C 285.467 85.080,289.299 88.956,290.250 89.576 C 290.987 90.056,294.550 91.824,294.790 91.829 C 294.904 91.831,295.917 92.126,297.040 92.483 C 299.632 93.308,303.740 93.725,306.750 93.470 C 308.899 93.287,312.771 92.568,313.250 92.263 C 313.433 92.146,313.883 91.954,314.250 91.836 C 314.617 91.719,315.404 91.282,316.000 90.866 C 316.596 90.450,317.404 89.891,317.796 89.623 C 318.201 89.347,318.657 88.839,318.855 88.444 C 320.348 85.458,322.314 85.934,322.093 89.227 C 321.999 90.624,322.020 90.784,322.347 91.167 L 322.704 91.583 326.644 91.604 C 334.914 91.649,338.183 91.499,338.626 91.056 L 339.017 90.665 338.965 60.958 C 338.936 44.618,338.854 31.129,338.781 30.981 C 338.606 30.625,337.815 30.240,337.634 30.422 M225.566 31.033 C 225.212 31.719,225.289 42.476,225.654 43.203 L 225.882 43.655 238.030 43.646 C 251.501 43.635,251.000 43.595,251.000 44.677 C 251.000 45.705,250.245 46.773,243.539 55.235 C 243.109 55.777,242.543 56.564,242.280 56.985 C 242.017 57.406,241.480 58.087,241.087 58.500 C 240.694 58.913,239.917 59.925,239.361 60.750 C 238.805 61.575,237.953 62.691,237.467 63.231 C 236.981 63.770,236.096 64.906,235.500 65.755 C 233.621 68.431,232.768 69.565,232.158 70.195 C 231.832 70.532,231.485 70.983,231.387 71.199 C 231.289 71.415,230.788 72.077,230.275 72.671 C 229.762 73.264,229.096 74.138,228.796 74.612 C 228.496 75.087,227.634 76.206,226.881 77.100 C 225.224 79.068,225.330 78.485,225.379 85.333 C 225.418 90.803,225.504 91.492,226.152 91.506 C 226.297 91.509,236.425 91.509,248.657 91.505 L 270.897 91.498 271.284 91.135 L 271.671 90.771 271.627 84.766 L 271.583 78.760 271.167 78.549 C 270.844 78.386,268.293 78.338,259.804 78.336 L 248.859 78.333 248.328 77.886 C 247.625 77.295,247.687 76.297,248.485 75.363 C 248.773 75.026,249.437 74.205,249.962 73.539 C 250.487 72.873,251.422 71.690,252.039 70.909 C 252.656 70.128,253.249 69.324,253.357 69.122 C 253.600 68.669,255.136 66.645,255.411 66.417 C 255.522 66.325,255.823 65.912,256.080 65.500 C 256.337 65.087,256.795 64.473,257.098 64.135 C 257.400 63.797,257.775 63.272,257.930 62.968 C 258.086 62.665,258.437 62.159,258.711 61.845 C 258.985 61.531,259.465 60.893,259.779 60.428 C 260.585 59.231,261.574 57.918,262.880 56.309 C 263.501 55.543,264.214 54.617,264.463 54.251 C 264.713 53.886,265.318 53.062,265.808 52.422 C 266.298 51.782,266.849 50.956,267.033 50.587 C 267.218 50.218,267.647 49.617,267.987 49.250 C 268.603 48.587,268.775 48.356,269.605 47.083 C 269.844 46.717,270.243 46.192,270.492 45.917 C 271.702 44.581,271.776 43.784,271.683 33.042 C 271.658 30.132,274.878 30.483,248.406 30.508 L 225.826 30.530 225.566 31.033 M119.457 43.838 C 119.985 44.026,120.642 44.253,120.917 44.342 C 125.688 45.883,131.071 52.365,129.067 54.155 L 128.556 54.612 115.570 54.627 C 107.348 54.637,102.386 54.581,102.044 54.476 C 98.673 53.434,103.239 46.885,109.074 44.392 C 111.774 43.238,116.998 42.960,119.457 43.838 M191.250 43.671 C 192.634 44.016,194.259 44.600,194.632 44.887 C 194.750 44.978,195.205 45.218,195.643 45.421 C 196.080 45.624,196.696 46.011,197.011 46.282 C 197.326 46.552,197.744 46.882,197.940 47.015 C 199.055 47.768,202.000 52.015,202.000 52.869 C 202.000 53.838,201.343 54.406,200.077 54.533 C 196.805 54.862,174.777 54.579,174.047 54.198 C 172.916 53.609,172.881 53.388,173.640 51.666 C 175.106 48.344,177.508 46.174,181.750 44.338 C 184.160 43.295,188.514 42.989,191.250 43.671 " stroke="none" fill="#0e0e0e" fill-rule="evenodd"></path><path id="path1" d="M357.443 72.488 C 348.793 72.603,349.764 72.144,349.611 76.194 C 349.261 85.421,349.505 90.289,350.358 91.107 L 350.855 91.583 359.053 91.613 C 367.718 91.644,368.712 91.578,369.321 90.929 C 369.790 90.430,369.862 75.474,369.407 73.221 C 369.247 72.434,367.861 72.349,357.443 72.488 " stroke="none" fill="#da3554" fill-rule="evenodd"></path><path id="path2" d="M113.000 27.348 C 112.496 27.425,111.221 27.568,110.167 27.665 C 107.809 27.882,105.602 28.378,104.153 29.017 C 103.550 29.282,102.948 29.500,102.815 29.500 C 102.683 29.500,102.426 29.601,102.245 29.725 C 102.065 29.849,101.692 30.004,101.417 30.069 C 100.968 30.175,100.629 30.365,99.167 31.326 C 98.938 31.477,98.413 31.698,98.000 31.819 C 97.588 31.940,97.005 32.254,96.704 32.518 C 96.403 32.782,95.843 33.158,95.459 33.354 C 94.185 34.004,89.272 38.671,88.212 40.237 C 87.960 40.611,87.406 41.404,86.983 42.000 C 86.559 42.596,85.967 43.533,85.666 44.083 C 85.365 44.633,84.873 45.458,84.572 45.917 C 84.271 46.375,83.930 47.125,83.815 47.583 C 83.700 48.042,83.475 48.642,83.315 48.917 C 82.701 49.973,81.811 53.246,81.263 56.458 C 80.858 58.834,80.893 65.103,81.320 66.712 C 81.496 67.374,81.769 68.479,81.927 69.167 C 82.774 72.843,84.297 76.461,85.848 78.482 C 86.506 79.340,87.672 81.091,87.830 81.457 C 88.046 81.959,91.389 85.390,92.348 86.094 C 92.768 86.402,93.405 86.925,93.764 87.256 C 94.123 87.587,94.885 88.121,95.457 88.442 C 96.029 88.764,96.539 89.094,96.589 89.176 C 96.706 89.365,98.409 90.500,98.575 90.500 C 98.644 90.500,99.386 90.832,100.225 91.237 C 103.982 93.054,107.718 94.191,110.667 94.415 C 111.537 94.481,112.966 94.627,113.840 94.738 C 114.760 94.856,115.884 94.892,116.507 94.824 C 121.374 94.292,123.401 93.936,124.609 93.400 C 124.962 93.243,125.700 92.984,126.250 92.824 C 128.546 92.155,129.229 91.886,130.250 91.248 C 130.617 91.019,131.179 90.681,131.500 90.497 C 131.821 90.314,132.196 90.092,132.333 90.005 C 132.471 89.918,133.194 89.477,133.941 89.026 C 134.688 88.574,135.780 87.802,136.369 87.311 C 136.957 86.819,137.628 86.267,137.859 86.083 C 138.091 85.900,138.873 85.100,139.598 84.307 C 141.969 81.711,142.829 80.602,144.102 78.500 C 144.629 77.629,145.311 76.526,145.618 76.048 C 147.266 73.482,147.337 72.373,145.890 71.823 C 145.651 71.732,141.602 71.667,136.262 71.667 L 127.047 71.667 126.429 72.086 C 126.089 72.316,125.389 72.961,124.873 73.518 C 124.357 74.075,123.556 74.780,123.093 75.083 C 122.629 75.387,122.032 75.830,121.766 76.068 C 121.499 76.305,121.141 76.500,120.969 76.500 C 120.797 76.500,120.228 76.680,119.703 76.899 C 117.867 77.668,112.885 77.634,111.083 76.840 C 110.717 76.678,110.150 76.497,109.824 76.438 C 109.498 76.379,108.938 76.181,108.580 75.999 C 108.222 75.816,107.848 75.667,107.749 75.667 C 107.650 75.667,107.125 75.292,106.583 74.833 C 106.041 74.375,105.520 73.994,105.424 73.987 C 104.693 73.932,101.833 69.441,101.833 68.348 C 101.833 67.474,101.563 67.496,112.473 67.469 C 118.034 67.455,123.071 67.442,123.667 67.440 C 124.263 67.437,129.868 67.452,136.123 67.472 C 150.785 67.519,149.250 68.247,149.250 61.250 C 149.250 56.438,149.193 56.003,147.899 50.923 C 147.578 49.663,146.413 46.699,146.102 46.349 C 145.972 46.203,145.546 45.446,145.155 44.667 C 144.765 43.887,144.232 42.950,143.972 42.583 C 142.080 39.924,140.917 38.455,140.583 38.303 C 140.369 38.205,139.967 37.816,139.689 37.438 C 138.866 36.314,135.753 33.570,135.123 33.412 C 134.872 33.349,134.667 33.236,134.667 33.162 C 134.667 32.890,128.640 29.667,128.131 29.667 C 128.010 29.667,127.463 29.450,126.914 29.186 C 126.366 28.922,125.417 28.621,124.806 28.517 C 124.195 28.413,123.390 28.221,123.018 28.090 C 122.645 27.958,121.870 27.802,121.295 27.742 C 120.720 27.683,119.621 27.529,118.853 27.400 C 117.345 27.148,114.477 27.123,113.000 27.348 M183.167 27.525 C 181.654 27.699,180.079 27.957,179.667 28.098 C 179.254 28.239,178.467 28.458,177.917 28.585 C 176.037 29.018,171.973 30.712,171.149 31.406 C 170.870 31.641,170.566 31.833,170.474 31.833 C 170.328 31.833,169.486 32.373,167.280 33.882 C 166.930 34.121,166.494 34.508,166.310 34.742 C 166.126 34.976,165.868 35.167,165.737 35.167 C 165.325 35.167,161.303 39.371,159.917 41.252 C 158.968 42.539,157.333 45.164,157.333 45.400 C 157.333 45.486,157.225 45.677,157.092 45.823 C 156.960 45.970,156.614 46.651,156.324 47.337 C 156.034 48.022,155.655 48.898,155.482 49.283 C 155.308 49.667,155.165 50.117,155.163 50.283 C 155.161 50.448,154.973 51.033,154.747 51.583 C 154.520 52.133,154.335 52.890,154.334 53.266 C 154.334 53.641,154.193 54.356,154.021 54.856 C 153.264 57.057,153.068 64.857,153.720 66.833 C 153.856 67.246,154.053 68.095,154.158 68.721 C 154.262 69.347,154.682 70.714,155.090 71.759 C 155.499 72.804,155.833 73.726,155.833 73.807 C 155.833 73.888,155.973 74.134,156.144 74.353 C 156.314 74.571,156.510 74.938,156.577 75.167 C 156.675 75.497,158.141 78.143,159.083 79.689 C 160.256 81.613,163.586 85.146,165.895 86.917 C 169.502 89.682,170.515 90.378,171.674 90.886 C 174.005 91.908,174.639 92.167,174.821 92.167 C 174.928 92.167,175.257 92.292,175.550 92.446 C 175.843 92.599,176.458 92.819,176.917 92.934 C 177.375 93.049,178.200 93.327,178.750 93.552 C 179.429 93.830,180.500 94.049,182.083 94.235 C 183.367 94.385,185.092 94.609,185.917 94.733 C 188.163 95.069,195.265 94.139,197.941 93.158 C 200.499 92.220,201.578 91.800,201.750 91.674 C 201.842 91.607,202.235 91.429,202.625 91.278 C 203.014 91.127,203.712 90.736,204.175 90.411 C 204.639 90.085,205.183 89.752,205.384 89.670 C 205.585 89.589,206.245 89.161,206.850 88.720 C 207.455 88.278,208.318 87.654,208.767 87.333 C 211.333 85.500,217.619 77.868,218.250 75.820 C 218.319 75.598,218.590 75.004,218.854 74.500 C 220.267 71.795,219.866 71.683,208.658 71.659 C 198.238 71.637,198.549 71.569,196.661 74.265 C 196.527 74.457,196.103 74.811,195.720 75.051 C 195.338 75.292,194.775 75.706,194.470 75.971 C 194.136 76.262,193.554 76.533,193.000 76.656 C 192.496 76.768,191.483 77.003,190.750 77.178 C 187.621 77.924,184.501 77.527,181.435 75.992 C 180.895 75.721,180.319 75.500,180.154 75.500 C 179.711 75.500,177.436 73.628,176.801 72.741 C 176.498 72.318,176.025 71.696,175.750 71.361 C 174.826 70.232,174.217 68.653,174.410 67.885 L 174.512 67.479 197.348 67.515 C 219.822 67.551,220.192 67.546,220.624 67.224 C 221.778 66.362,221.751 66.519,221.742 60.779 L 221.734 55.583 221.200 54.047 C 220.907 53.201,220.599 52.039,220.515 51.463 C 220.336 50.225,220.133 49.651,219.765 49.346 C 219.617 49.223,219.335 48.589,219.138 47.936 C 218.722 46.558,217.630 44.336,217.159 43.909 C 216.980 43.748,216.833 43.487,216.833 43.331 C 216.833 43.055,216.200 42.007,215.727 41.500 C 215.599 41.362,215.116 40.762,214.654 40.167 C 213.561 38.755,210.873 35.996,209.500 34.874 C 208.904 34.388,208.154 33.759,207.833 33.477 C 207.512 33.196,206.912 32.801,206.500 32.599 C 206.088 32.398,205.099 31.848,204.303 31.376 C 203.508 30.905,202.482 30.409,202.025 30.273 C 201.567 30.137,201.018 29.932,200.805 29.817 C 200.367 29.581,198.818 29.003,197.083 28.428 C 196.442 28.215,195.092 27.949,194.083 27.835 C 193.075 27.721,191.660 27.524,190.940 27.397 C 189.210 27.093,186.540 27.136,183.167 27.525 M119.424 28.092 C 120.520 28.235,122.017 28.505,122.750 28.694 C 123.483 28.883,124.575 29.128,125.176 29.238 C 125.777 29.349,126.602 29.594,127.009 29.784 C 127.417 29.974,128.445 30.444,129.295 30.829 C 131.162 31.673,133.792 33.096,134.250 33.510 C 134.596 33.823,135.090 34.191,136.449 35.147 C 138.975 36.923,143.212 41.926,144.581 44.750 C 144.937 45.483,145.374 46.297,145.553 46.558 C 146.245 47.565,147.509 51.306,147.899 53.500 C 148.038 54.279,148.273 55.442,148.422 56.083 C 149.120 59.089,148.940 65.611,148.138 66.360 L 147.643 66.823 134.863 66.835 C 101.244 66.868,102.369 66.858,101.788 67.148 C 99.551 68.265,104.337 74.914,108.625 76.647 C 109.106 76.841,109.885 77.156,110.355 77.347 C 110.836 77.543,112.095 77.799,113.230 77.932 C 118.479 78.550,122.011 77.346,125.500 73.752 C 126.962 72.245,126.151 72.353,136.282 72.320 C 146.335 72.286,146.167 72.268,146.167 73.383 C 146.167 73.950,144.259 77.532,143.164 79.020 C 142.802 79.513,142.247 80.292,141.932 80.750 C 140.384 82.998,135.440 87.670,133.593 88.627 C 133.286 88.786,132.146 89.458,131.059 90.119 C 128.454 91.705,123.447 93.436,120.750 93.684 C 119.833 93.768,118.708 93.907,118.250 93.993 C 116.602 94.300,115.377 94.355,114.075 94.180 C 113.346 94.083,111.737 93.898,110.500 93.770 C 106.124 93.317,99.711 90.924,96.353 88.489 C 92.161 85.450,88.195 81.472,86.941 79.048 C 86.798 78.771,86.403 78.180,86.063 77.735 C 85.243 76.660,84.421 74.971,84.082 73.662 C 83.930 73.077,83.691 72.374,83.549 72.100 C 83.136 71.301,82.530 69.402,82.414 68.543 C 82.355 68.107,82.157 67.281,81.973 66.708 C 81.523 65.305,81.582 56.821,82.051 55.417 C 82.204 54.958,82.377 54.096,82.435 53.500 C 82.531 52.510,82.892 51.362,83.667 49.583 C 83.827 49.217,84.080 48.542,84.229 48.083 C 84.379 47.625,84.665 46.987,84.866 46.667 C 85.066 46.346,85.506 45.552,85.843 44.902 C 86.721 43.209,89.354 39.648,90.825 38.165 C 92.402 36.575,94.792 34.456,95.337 34.166 C 95.564 34.045,96.127 33.662,96.587 33.315 C 97.047 32.968,97.964 32.454,98.624 32.174 C 99.284 31.893,100.091 31.482,100.416 31.261 C 100.742 31.040,101.550 30.659,102.212 30.413 C 102.875 30.168,103.754 29.813,104.167 29.625 C 107.135 28.270,114.837 27.497,119.424 28.092 M191.667 28.077 C 195.104 28.468,196.539 28.824,200.110 30.171 C 202.778 31.176,206.304 32.958,207.167 33.737 C 207.396 33.944,207.846 34.293,208.167 34.512 C 209.219 35.232,213.389 39.318,214.077 40.303 C 214.447 40.834,214.995 41.576,215.294 41.953 C 215.593 42.329,215.949 42.904,216.085 43.229 C 216.221 43.555,216.548 44.067,216.811 44.369 C 217.297 44.925,217.893 46.203,218.582 48.167 C 218.791 48.762,219.157 49.593,219.395 50.012 C 219.668 50.491,219.894 51.247,220.006 52.053 C 220.104 52.757,220.333 53.764,220.516 54.291 C 221.111 56.012,221.172 56.631,221.173 60.923 C 221.174 65.407,221.103 65.903,220.365 66.559 C 220.031 66.857,219.168 66.869,197.110 66.893 C 171.732 66.919,173.500 66.842,173.500 67.925 C 173.500 69.871,178.249 76.000,179.757 76.000 C 179.809 76.000,180.620 76.335,181.559 76.743 C 184.077 77.840,184.857 78.000,187.660 77.999 C 192.319 77.997,195.143 76.852,197.847 73.868 C 199.334 72.227,198.773 72.306,208.788 72.314 C 217.766 72.321,218.181 72.349,218.576 72.988 C 218.750 73.269,217.610 76.021,216.973 76.859 C 216.740 77.166,216.416 77.679,216.252 78.000 C 215.180 80.103,210.559 85.396,208.715 86.634 C 208.367 86.867,207.762 87.338,207.369 87.680 C 206.977 88.022,206.114 88.621,205.453 89.011 C 204.791 89.402,203.912 89.930,203.499 90.185 C 200.995 91.732,195.934 93.369,192.750 93.660 C 191.833 93.744,190.341 93.928,189.434 94.068 C 187.889 94.308,187.604 94.303,184.934 93.989 C 180.698 93.491,179.825 93.346,179.000 93.005 C 178.588 92.835,177.950 92.642,177.583 92.577 C 176.628 92.407,171.947 90.418,170.667 89.638 C 166.834 87.301,162.859 83.831,160.639 80.882 C 158.901 78.573,156.375 74.008,156.080 72.642 C 156.014 72.335,155.813 71.794,155.634 71.441 C 154.251 68.710,153.593 59.666,154.499 55.833 C 154.705 54.962,154.932 53.800,155.005 53.250 C 155.184 51.889,156.805 47.331,157.444 46.391 C 157.621 46.130,157.855 45.710,157.963 45.458 C 158.071 45.206,158.485 44.494,158.884 43.875 C 159.282 43.256,159.746 42.527,159.915 42.256 C 160.759 40.895,164.586 36.653,165.664 35.881 C 166.021 35.626,166.936 34.936,167.698 34.347 C 169.119 33.250,171.402 31.830,172.443 31.395 C 172.765 31.260,173.679 30.845,174.473 30.472 C 176.219 29.651,176.941 29.386,178.250 29.084 C 178.800 28.957,179.925 28.692,180.750 28.495 C 183.340 27.876,188.248 27.688,191.667 28.077 M21.750 29.286 C 20.250 29.582,19.830 30.314,20.314 31.788 C 20.488 32.317,20.801 33.313,21.009 34.000 C 21.217 34.688,21.569 35.618,21.792 36.067 C 22.015 36.516,22.296 37.191,22.417 37.567 C 22.538 37.943,22.802 38.662,23.004 39.167 C 23.206 39.671,23.547 40.597,23.763 41.226 C 23.978 41.854,24.223 42.454,24.307 42.559 C 24.391 42.664,24.582 43.177,24.732 43.700 C 24.882 44.222,25.072 44.691,25.154 44.742 C 25.237 44.793,25.356 45.153,25.419 45.543 C 25.483 45.932,25.634 46.475,25.756 46.750 C 26.107 47.545,26.940 49.681,27.219 50.500 C 27.776 52.139,28.994 55.489,29.493 56.750 C 29.782 57.483,30.252 58.833,30.536 59.750 C 30.820 60.667,31.228 61.678,31.443 61.997 C 31.658 62.316,31.833 62.686,31.833 62.819 C 31.833 62.953,31.972 63.366,32.142 63.739 C 32.580 64.700,33.281 66.625,33.495 67.452 C 33.594 67.838,33.910 68.700,34.195 69.369 C 34.481 70.037,34.883 71.108,35.089 71.750 C 35.731 73.749,36.667 76.394,36.917 76.917 C 37.352 77.825,38.023 79.573,38.180 80.206 C 38.265 80.548,38.513 81.298,38.732 81.872 C 38.951 82.447,39.222 83.217,39.334 83.583 C 39.447 83.950,39.787 84.781,40.092 85.430 C 40.396 86.080,40.845 87.317,41.089 88.180 C 41.664 90.212,42.426 91.621,43.264 92.204 L 43.917 92.658 52.482 92.710 L 61.048 92.761 61.766 92.306 C 62.468 91.861,63.167 90.825,63.167 90.231 C 63.167 90.076,63.349 89.563,63.573 89.091 C 63.796 88.619,64.070 87.861,64.181 87.408 C 64.292 86.954,64.677 85.908,65.035 85.083 C 65.394 84.258,65.788 83.246,65.911 82.833 C 66.253 81.686,67.407 78.665,67.788 77.917 C 67.975 77.550,68.372 76.500,68.671 75.583 C 68.969 74.667,69.271 73.842,69.341 73.750 C 69.411 73.658,69.598 73.133,69.757 72.583 C 69.915 72.033,70.372 70.815,70.773 69.877 C 71.173 68.938,71.500 68.071,71.500 67.949 C 71.500 67.548,72.982 63.430,73.402 62.667 C 73.527 62.438,74.083 60.938,74.635 59.333 C 75.714 56.203,76.400 54.412,76.637 54.107 C 76.719 54.002,76.871 53.565,76.976 53.135 C 77.081 52.704,77.308 52.104,77.482 51.801 C 77.655 51.498,77.844 50.979,77.901 50.648 C 77.959 50.317,78.341 49.230,78.750 48.232 C 79.159 47.233,79.495 46.244,79.497 46.034 C 79.499 45.823,79.752 45.111,80.061 44.451 C 80.369 43.790,80.742 42.832,80.890 42.321 C 81.038 41.810,81.423 40.812,81.746 40.103 C 82.069 39.395,82.336 38.613,82.339 38.366 C 82.341 38.119,82.533 37.542,82.765 37.083 C 82.997 36.625,83.444 35.555,83.758 34.706 C 84.072 33.856,84.480 32.866,84.665 32.504 C 85.260 31.336,84.963 29.915,84.021 29.428 C 83.398 29.105,66.055 29.028,65.219 29.344 C 64.689 29.544,63.833 30.304,63.833 30.574 C 63.833 30.672,63.656 31.090,63.440 31.501 C 63.224 31.913,62.915 32.813,62.753 33.500 C 62.445 34.803,61.738 37.203,61.156 38.917 C 60.661 40.373,60.395 41.236,59.929 42.896 C 59.700 43.710,59.401 44.499,59.265 44.651 C 59.128 44.802,58.968 45.261,58.910 45.671 C 58.852 46.081,58.558 47.204,58.256 48.167 C 57.335 51.107,56.670 53.387,56.553 54.000 C 56.493 54.321,56.278 54.921,56.077 55.333 C 55.875 55.746,55.508 56.833,55.260 57.750 C 55.013 58.667,54.742 59.567,54.658 59.750 C 54.484 60.131,53.785 62.386,53.496 63.500 C 52.958 65.568,51.713 65.116,51.437 62.754 C 51.374 62.205,51.144 61.380,50.927 60.920 C 50.710 60.460,50.444 59.746,50.335 59.333 C 50.121 58.523,49.386 56.143,48.329 52.833 C 47.964 51.688,47.563 50.375,47.440 49.917 C 46.300 45.684,45.098 41.848,44.644 41.000 C 44.473 40.679,44.118 39.589,43.855 38.576 C 43.593 37.564,43.259 36.506,43.113 36.224 C 42.967 35.942,42.775 35.259,42.686 34.706 C 42.597 34.153,42.369 33.396,42.179 33.023 C 41.989 32.651,41.833 32.154,41.833 31.918 C 41.833 30.410,40.801 29.498,38.884 29.314 C 37.466 29.177,22.426 29.153,21.750 29.286 M224.949 29.375 C 224.186 29.940,224.067 31.040,224.079 37.417 L 224.090 43.417 224.556 44.109 C 225.198 45.060,224.663 45.025,237.768 44.987 C 244.134 44.968,249.384 44.996,249.436 45.047 C 249.612 45.224,248.463 47.019,247.014 48.833 C 245.988 50.116,245.838 50.310,244.750 51.741 C 244.292 52.344,243.515 53.343,243.025 53.960 C 242.534 54.578,241.939 55.421,241.703 55.833 C 241.466 56.246,240.968 56.923,240.595 57.339 C 239.585 58.464,238.636 59.634,238.167 60.332 C 237.083 61.944,236.809 62.305,236.089 63.065 C 235.664 63.513,235.167 64.150,234.985 64.481 C 234.561 65.250,233.943 66.114,233.360 66.750 C 233.108 67.025,232.428 67.912,231.847 68.721 C 231.267 69.530,230.403 70.617,229.926 71.138 C 229.180 71.951,228.245 73.249,227.730 74.184 C 227.539 74.531,226.463 75.825,225.436 76.943 C 224.138 78.356,224.003 79.178,224.002 85.667 C 224.000 91.403,224.039 91.661,225.009 92.371 C 225.419 92.672,226.240 92.682,248.581 92.683 L 271.729 92.683 272.323 92.089 L 272.917 91.494 272.954 85.206 C 272.993 78.521,272.950 78.081,272.211 77.499 C 271.787 77.166,271.599 77.160,260.786 77.170 C 254.739 77.176,249.773 77.159,249.750 77.132 C 249.447 76.779,249.550 76.297,250.066 75.645 C 250.383 75.244,251.037 74.354,251.519 73.667 C 252.002 72.979,252.632 72.136,252.921 71.793 C 253.209 71.451,253.589 70.891,253.764 70.550 C 253.940 70.209,254.293 69.749,254.549 69.527 C 254.805 69.306,255.154 68.853,255.324 68.521 C 255.493 68.188,255.929 67.579,256.292 67.167 C 256.654 66.754,257.081 66.164,257.240 65.856 C 257.398 65.548,257.747 65.060,258.014 64.773 C 258.448 64.307,259.532 62.776,261.233 60.228 C 261.547 59.758,261.947 59.270,262.122 59.145 C 262.296 59.019,262.581 58.673,262.755 58.375 C 262.929 58.077,263.130 57.833,263.200 57.833 C 263.271 57.833,263.529 57.515,263.774 57.125 C 264.588 55.831,265.230 54.928,266.177 53.750 C 266.693 53.108,267.408 52.136,267.766 51.589 C 268.124 51.042,268.511 50.479,268.625 50.339 C 268.740 50.198,269.083 49.783,269.387 49.417 C 269.691 49.050,270.116 48.450,270.333 48.083 C 270.549 47.717,271.050 47.064,271.446 46.632 C 271.842 46.201,272.167 45.705,272.167 45.530 C 272.167 45.355,272.335 44.997,272.542 44.735 C 272.917 44.259,272.917 44.256,272.917 37.504 C 272.917 29.953,272.885 29.725,271.795 29.345 C 270.999 29.068,225.325 29.097,224.949 29.375 M280.940 29.333 C 280.209 29.560,279.867 29.962,279.609 30.896 C 279.379 31.731,279.344 62.270,279.570 66.333 C 279.613 67.112,279.595 68.237,279.531 68.833 C 279.446 69.614,279.519 70.639,279.791 72.500 C 279.999 73.921,280.254 75.721,280.358 76.500 C 280.477 77.394,280.715 78.255,281.002 78.833 C 281.252 79.337,281.580 80.176,281.730 80.697 C 281.880 81.218,282.190 81.867,282.418 82.138 C 282.646 82.409,282.833 82.783,282.833 82.967 C 282.833 83.152,283.159 83.703,283.558 84.193 C 283.957 84.683,284.404 85.308,284.553 85.583 C 285.406 87.161,289.380 90.551,291.173 91.231 C 291.589 91.389,292.250 91.772,292.643 92.083 C 293.107 92.450,293.688 92.717,294.303 92.845 C 294.824 92.954,295.709 93.219,296.269 93.434 C 297.727 93.994,299.120 94.333,299.993 94.338 C 300.410 94.341,301.757 94.480,302.987 94.648 C 304.381 94.837,305.449 94.903,305.820 94.822 C 306.148 94.751,306.942 94.646,307.583 94.588 C 311.876 94.204,315.235 93.168,316.695 91.778 C 316.909 91.575,317.415 91.185,317.819 90.913 C 318.224 90.640,318.987 89.915,319.515 89.302 L 320.475 88.188 320.656 88.707 C 320.762 89.013,320.793 89.655,320.729 90.274 C 320.484 92.669,320.420 92.653,330.586 92.684 L 338.869 92.709 339.476 92.102 L 340.083 91.494 340.083 61.039 C 340.083 26.888,340.188 29.750,338.923 29.338 C 338.244 29.117,321.630 29.124,320.795 29.346 C 319.483 29.694,319.479 29.755,319.445 50.547 C 319.413 69.461,319.431 69.058,318.567 70.187 C 318.471 70.313,318.182 70.856,317.925 71.392 C 317.669 71.929,317.228 72.566,316.945 72.809 C 316.663 73.051,316.066 73.584,315.620 73.992 C 314.788 74.754,313.575 75.233,311.333 75.685 C 308.257 76.306,303.437 74.756,302.270 72.771 C 302.047 72.393,301.712 71.908,301.525 71.693 C 301.337 71.478,301.115 70.915,301.030 70.443 C 300.945 69.970,300.714 68.721,300.517 67.667 C 300.166 65.791,300.157 65.377,300.121 48.250 C 300.079 28.939,300.142 30.045,299.054 29.492 C 298.505 29.214,281.797 29.066,280.940 29.333 M249.362 29.836 L 271.343 29.828 271.744 30.229 C 272.333 30.818,272.358 31.172,272.302 38.000 L 272.250 44.250 271.755 45.083 C 271.483 45.542,270.958 46.303,270.588 46.774 C 269.385 48.310,268.260 49.843,267.753 50.638 C 267.042 51.753,263.798 56.099,262.942 57.083 C 262.544 57.542,262.121 58.104,262.002 58.333 C 261.883 58.563,261.552 59.017,261.268 59.344 C 260.709 59.985,259.137 62.179,258.562 63.120 C 258.367 63.439,257.897 64.086,257.517 64.558 C 256.584 65.719,254.397 68.659,253.610 69.812 C 253.258 70.328,252.689 71.087,252.345 71.500 C 252.002 71.912,251.523 72.563,251.283 72.946 C 251.042 73.329,250.628 73.892,250.364 74.196 C 249.258 75.472,248.667 76.381,248.667 76.806 C 248.667 77.738,248.457 77.721,260.081 77.688 C 271.651 77.656,271.608 77.653,272.041 78.508 C 272.396 79.209,272.491 90.471,272.148 91.224 C 271.786 92.019,272.464 91.995,248.533 92.057 L 225.815 92.117 225.337 91.670 C 224.660 91.038,224.628 90.675,224.703 84.558 C 224.780 78.273,224.659 78.801,226.526 76.578 C 227.294 75.664,228.276 74.392,228.709 73.750 C 229.142 73.108,229.854 72.165,230.290 71.654 C 231.705 69.996,234.821 65.858,235.500 64.736 C 235.718 64.377,236.336 63.607,236.874 63.025 C 237.412 62.444,238.250 61.356,238.737 60.609 C 239.224 59.861,240.030 58.800,240.530 58.250 C 241.030 57.700,241.713 56.837,242.048 56.333 C 242.384 55.829,243.218 54.704,243.902 53.833 C 246.359 50.706,248.599 47.766,249.458 46.540 C 251.175 44.092,252.039 44.258,237.698 44.293 C 224.960 44.324,225.468 44.355,224.986 43.500 C 224.593 42.803,224.659 31.041,225.060 30.430 C 225.440 29.848,225.929 29.652,226.733 29.759 C 227.090 29.806,237.273 29.841,249.362 29.836 M338.451 29.841 C 339.482 30.201,339.417 28.081,339.417 61.104 L 339.417 91.324 339.037 91.704 L 338.657 92.083 331.204 92.120 C 320.914 92.171,321.426 92.287,321.402 89.890 C 321.374 86.907,320.628 86.623,319.127 89.021 C 318.683 89.729,315.818 91.764,314.138 92.564 C 311.364 93.884,305.728 94.510,301.876 93.926 C 300.937 93.783,299.835 93.667,299.426 93.667 C 299.017 93.667,297.836 93.396,296.800 93.066 C 294.028 92.182,293.642 92.037,293.000 91.641 C 292.679 91.443,291.779 90.960,291.000 90.567 C 285.787 87.942,281.696 81.382,280.590 73.874 L 280.179 71.083 280.146 51.117 C 280.110 28.865,280.023 30.640,281.183 30.044 C 281.768 29.744,298.071 29.748,298.667 30.049 C 299.519 30.479,299.509 30.259,299.502 48.827 L 299.496 66.101 300.072 68.711 C 300.704 71.575,300.692 71.543,301.756 73.065 C 303.128 75.028,306.544 76.500,309.728 76.500 C 310.728 76.500,311.107 76.419,313.750 75.637 C 316.400 74.853,318.714 72.191,319.737 68.750 C 320.077 67.604,320.084 67.277,320.113 50.333 C 320.129 40.846,320.148 32.581,320.155 31.968 C 320.165 31.039,320.234 30.774,320.569 30.384 L 320.971 29.917 329.194 29.830 C 333.716 29.783,337.537 29.726,337.683 29.705 C 337.830 29.684,338.176 29.745,338.451 29.841 M40.167 30.258 C 40.598 30.510,40.810 30.793,40.980 31.341 C 41.106 31.749,41.359 32.496,41.540 33.000 C 41.722 33.504,42.012 34.442,42.184 35.083 C 42.356 35.725,42.605 36.550,42.738 36.917 C 42.871 37.283,43.107 38.106,43.262 38.744 C 43.418 39.383,43.797 40.528,44.103 41.288 C 44.410 42.049,44.769 43.102,44.900 43.628 C 45.031 44.153,45.264 44.921,45.417 45.333 C 45.570 45.746,46.034 47.246,46.447 48.667 C 47.489 52.247,47.583 52.553,48.147 54.250 C 49.024 56.886,49.338 57.893,49.589 58.885 C 49.724 59.418,50.060 60.383,50.335 61.031 C 50.611 61.678,50.879 62.517,50.933 62.896 C 51.095 64.052,51.658 65.600,52.047 65.963 C 52.559 66.439,53.302 66.292,53.430 65.689 C 53.481 65.447,53.997 63.750,54.575 61.917 C 55.154 60.083,55.762 58.096,55.926 57.500 C 56.090 56.904,56.318 56.226,56.432 55.993 C 56.546 55.759,56.765 55.084,56.918 54.493 C 57.070 53.901,57.405 52.854,57.661 52.167 C 58.180 50.771,58.656 49.191,59.266 46.833 C 59.491 45.962,59.778 45.063,59.903 44.833 C 60.028 44.604,60.295 43.817,60.495 43.083 C 60.696 42.350,61.144 40.887,61.492 39.833 C 62.323 37.312,63.076 34.841,63.422 33.500 C 64.395 29.726,63.801 29.926,74.217 29.871 C 83.325 29.822,83.624 29.843,83.963 30.553 C 84.303 31.266,84.325 31.520,84.095 32.131 C 83.967 32.471,83.666 33.275,83.427 33.917 C 83.187 34.558,82.698 35.833,82.340 36.750 C 81.199 39.671,79.289 44.890,79.078 45.667 C 78.965 46.079,78.639 46.904,78.352 47.500 C 78.066 48.096,77.526 49.558,77.152 50.750 C 76.777 51.942,76.093 53.817,75.630 54.917 C 74.797 56.898,74.340 58.137,73.590 60.442 C 73.133 61.848,72.351 63.847,72.165 64.083 C 72.093 64.175,71.772 65.075,71.451 66.083 C 71.131 67.092,70.418 69.079,69.867 70.500 C 69.316 71.921,68.605 73.871,68.287 74.833 C 67.969 75.796,67.468 77.108,67.173 77.750 C 66.878 78.392,66.466 79.404,66.258 80.000 C 64.969 83.680,64.651 84.548,64.441 84.958 C 64.311 85.210,63.937 86.204,63.610 87.167 C 62.201 91.301,62.100 91.489,61.047 91.938 C 60.168 92.313,44.683 92.270,43.950 91.891 C 43.060 91.431,42.273 89.999,41.636 87.676 C 41.448 86.993,41.042 85.879,40.732 85.198 C 40.422 84.518,40.022 83.488,39.843 82.908 C 39.664 82.328,39.363 81.552,39.175 81.184 C 38.988 80.816,38.655 79.967,38.436 79.299 C 38.217 78.630,37.268 76.021,36.327 73.500 C 35.386 70.979,34.224 67.792,33.744 66.417 C 33.265 65.042,32.106 61.892,31.169 59.417 C 30.232 56.942,29.220 54.242,28.921 53.417 C 28.622 52.592,28.060 51.054,27.672 50.000 C 27.285 48.946,26.725 47.402,26.428 46.570 C 26.131 45.737,25.845 44.987,25.793 44.903 C 25.741 44.819,25.585 44.337,25.447 43.833 C 25.308 43.329,24.937 42.317,24.622 41.583 C 24.308 40.850,23.855 39.725,23.617 39.083 C 23.379 38.442,22.831 37.017,22.401 35.917 C 20.780 31.779,20.601 30.884,21.257 30.228 L 21.681 29.804 30.632 29.860 C 39.298 29.915,39.602 29.928,40.167 30.258 M111.917 44.175 C 111.642 44.253,110.854 44.462,110.167 44.639 C 108.784 44.996,106.855 45.949,106.083 46.656 C 105.808 46.908,105.344 47.277,105.052 47.477 C 104.435 47.900,102.761 50.042,102.015 51.364 C 101.391 52.470,101.356 53.140,101.895 53.646 L 102.289 54.017 115.103 54.014 C 122.150 54.013,128.046 54.009,128.204 54.006 C 128.702 53.996,129.003 53.178,128.760 52.498 C 127.507 48.990,124.026 45.945,119.603 44.488 C 118.057 43.978,113.299 43.785,111.917 44.175 M183.157 44.477 C 182.282 44.727,181.307 45.089,180.991 45.281 C 180.675 45.472,180.230 45.685,180.003 45.755 C 177.078 46.645,173.040 52.435,174.556 53.567 C 175.295 54.118,200.038 54.118,200.779 53.567 C 201.666 52.907,201.264 51.811,199.133 49.077 C 195.822 44.829,188.893 42.833,183.157 44.477 M191.667 45.049 C 194.103 45.686,196.437 46.916,198.000 48.388 C 199.621 49.914,200.976 53.000,200.125 53.228 C 199.154 53.488,175.363 53.339,175.095 53.071 C 174.304 52.280,175.953 49.368,178.084 47.796 C 178.633 47.390,179.186 46.932,179.312 46.779 C 179.438 46.626,179.625 46.500,179.729 46.499 C 179.832 46.498,180.581 46.161,181.394 45.749 C 182.206 45.337,183.069 44.997,183.310 44.993 C 183.552 44.989,184.200 44.888,184.750 44.768 C 186.379 44.415,189.768 44.552,191.667 45.049 M120.178 45.315 C 120.768 45.626,121.745 46.086,122.350 46.337 C 123.546 46.834,123.861 47.056,124.876 48.121 C 125.245 48.509,125.682 48.869,125.846 48.921 C 126.010 48.973,126.414 49.421,126.743 49.917 C 127.072 50.413,127.410 50.861,127.493 50.912 C 127.748 51.070,128.211 52.892,128.058 53.133 C 127.907 53.369,102.720 53.489,102.342 53.255 C 101.910 52.989,102.357 51.493,103.145 50.568 C 103.386 50.285,103.876 49.640,104.233 49.137 C 104.590 48.633,105.210 48.013,105.610 47.760 C 106.010 47.507,106.436 47.160,106.556 46.989 C 107.024 46.321,109.877 45.194,112.167 44.774 C 112.396 44.732,114.051 44.709,115.845 44.724 L 119.106 44.750 120.178 45.315 M359.000 71.837 C 353.912 71.885,349.737 71.941,349.722 71.962 C 348.956 73.003,348.991 72.531,348.985 81.803 C 348.981 87.400,349.041 90.701,349.155 91.125 C 349.506 92.426,348.793 92.343,359.663 92.358 L 369.371 92.372 369.810 91.932 C 370.341 91.401,370.459 89.180,370.484 79.167 C 370.498 73.587,370.480 73.220,370.175 72.719 C 369.545 71.686,370.135 71.732,359.000 71.837 M368.792 72.691 C 369.604 72.943,369.661 73.656,369.677 83.728 C 369.688 90.520,369.687 90.541,369.321 90.929 C 368.712 91.578,367.718 91.644,359.053 91.613 L 350.855 91.583 350.358 91.107 C 349.629 90.409,349.500 89.308,349.501 83.820 C 349.501 76.629,349.654 73.386,350.012 72.944 C 350.447 72.407,367.152 72.182,368.792 72.691 " stroke="none" fill="#9d9d9d" fill-rule="evenodd"></path><path id="path3" d="M110.833 28.176 C 107.966 28.494,105.446 29.041,104.167 29.625 C 103.754 29.813,102.875 30.168,102.212 30.413 C 101.550 30.659,100.742 31.040,100.416 31.261 C 100.091 31.482,99.284 31.893,98.624 32.174 C 97.964 32.454,97.047 32.968,96.587 33.315 C 96.127 33.662,95.564 34.045,95.337 34.166 C 94.792 34.456,92.402 36.575,90.825 38.165 C 89.354 39.648,86.721 43.209,85.843 44.902 C 85.506 45.552,85.066 46.346,84.866 46.667 C 84.665 46.987,84.379 47.625,84.229 48.083 C 84.080 48.542,83.827 49.217,83.667 49.583 C 82.892 51.362,82.531 52.510,82.435 53.500 C 82.377 54.096,82.204 54.958,82.051 55.417 C 81.582 56.821,81.523 65.305,81.973 66.708 C 82.157 67.281,82.355 68.107,82.414 68.543 C 82.530 69.402,83.136 71.301,83.549 72.100 C 83.691 72.374,83.930 73.077,84.082 73.662 C 84.421 74.971,85.243 76.660,86.063 77.735 C 86.403 78.180,86.798 78.771,86.941 79.048 C 88.195 81.472,92.161 85.450,96.353 88.489 C 99.711 90.924,106.124 93.317,110.500 93.770 C 111.737 93.898,113.346 94.083,114.075 94.180 C 115.377 94.355,116.602 94.300,118.250 93.993 C 118.708 93.907,119.833 93.768,120.750 93.684 C 123.447 93.436,128.454 91.705,131.059 90.119 C 132.146 89.458,133.286 88.786,133.593 88.627 C 135.440 87.670,140.384 82.998,141.932 80.750 C 142.247 80.292,142.802 79.513,143.164 79.020 C 144.259 77.532,146.167 73.950,146.167 73.383 C 146.167 72.268,146.335 72.286,136.282 72.320 C 126.151 72.353,126.962 72.245,125.500 73.752 C 122.011 77.346,118.479 78.550,113.230 77.932 C 112.095 77.799,110.836 77.543,110.355 77.347 C 109.885 77.156,109.106 76.841,108.625 76.647 C 104.337 74.914,99.551 68.265,101.788 67.148 C 102.369 66.858,101.244 66.868,134.863 66.835 L 147.643 66.823 148.138 66.360 C 148.940 65.611,149.120 59.089,148.422 56.083 C 148.273 55.442,148.038 54.279,147.899 53.500 C 147.509 51.306,146.245 47.565,145.553 46.558 C 145.374 46.297,144.937 45.483,144.581 44.750 C 143.212 41.926,138.975 36.923,136.449 35.147 C 135.090 34.191,134.596 33.823,134.250 33.510 C 133.792 33.096,131.162 31.673,129.295 30.829 C 128.445 30.444,127.417 29.974,127.009 29.784 C 126.602 29.594,125.777 29.349,125.176 29.238 C 124.575 29.128,123.483 28.883,122.750 28.694 C 119.344 27.818,115.559 27.653,110.833 28.176 M184.167 28.010 C 183.112 28.079,181.575 28.298,180.750 28.495 C 179.925 28.692,178.800 28.957,178.250 29.084 C 176.941 29.386,176.219 29.651,174.473 30.472 C 173.679 30.845,172.765 31.260,172.443 31.395 C 171.402 31.830,169.119 33.250,167.698 34.347 C 166.936 34.936,166.021 35.626,165.664 35.881 C 164.586 36.653,160.759 40.895,159.915 42.256 C 159.746 42.527,159.282 43.256,158.884 43.875 C 158.485 44.494,158.071 45.206,157.963 45.458 C 157.855 45.710,157.621 46.130,157.444 46.391 C 156.805 47.331,155.184 51.889,155.005 53.250 C 154.932 53.800,154.705 54.962,154.499 55.833 C 153.593 59.666,154.251 68.710,155.634 71.441 C 155.813 71.794,156.014 72.335,156.080 72.642 C 156.375 74.008,158.901 78.573,160.639 80.882 C 162.859 83.831,166.834 87.301,170.667 89.638 C 171.947 90.418,176.628 92.407,177.583 92.577 C 177.950 92.642,178.588 92.835,179.000 93.005 C 179.825 93.346,180.698 93.491,184.934 93.989 C 187.604 94.303,187.889 94.308,189.434 94.068 C 190.341 93.928,191.833 93.744,192.750 93.660 C 194.793 93.473,195.038 93.424,196.917 92.826 C 200.486 91.689,202.136 91.028,203.499 90.185 C 203.912 89.930,204.791 89.402,205.453 89.011 C 206.114 88.621,206.977 88.022,207.369 87.680 C 207.762 87.338,208.367 86.867,208.715 86.634 C 210.559 85.396,215.180 80.103,216.252 78.000 C 216.416 77.679,216.740 77.166,216.973 76.859 C 217.610 76.021,218.750 73.269,218.576 72.988 C 218.181 72.349,217.766 72.321,208.788 72.314 C 198.773 72.306,199.334 72.227,197.847 73.868 C 193.933 78.187,187.489 79.325,181.559 76.743 C 180.620 76.335,179.809 76.000,179.757 76.000 C 178.249 76.000,173.500 69.871,173.500 67.925 C 173.500 66.842,171.732 66.919,197.110 66.893 C 219.168 66.869,220.031 66.857,220.365 66.559 C 221.103 65.903,221.174 65.407,221.173 60.923 C 221.172 56.631,221.111 56.012,220.516 54.291 C 220.333 53.764,220.104 52.757,220.006 52.053 C 219.894 51.247,219.668 50.491,219.395 50.012 C 219.157 49.593,218.791 48.762,218.582 48.167 C 217.893 46.203,217.297 44.925,216.811 44.369 C 216.548 44.067,216.221 43.555,216.085 43.229 C 215.949 42.904,215.593 42.329,215.294 41.953 C 214.995 41.576,214.447 40.834,214.077 40.303 C 213.389 39.318,209.219 35.232,208.167 34.512 C 207.846 34.293,207.396 33.944,207.167 33.737 C 206.938 33.530,206.375 33.157,205.917 32.907 C 198.168 28.678,192.696 27.446,184.167 28.010 M117.500 28.578 C 120.176 28.729,121.694 28.954,123.063 29.403 C 123.785 29.640,124.696 29.833,125.088 29.833 C 125.824 29.833,126.645 30.175,130.750 32.189 C 133.043 33.315,133.822 33.772,134.462 34.368 C 134.712 34.601,135.404 35.143,136.000 35.572 C 139.007 37.736,144.074 43.838,144.566 45.888 C 144.629 46.148,144.867 46.643,145.096 46.989 C 145.324 47.334,145.763 48.330,146.070 49.201 C 146.377 50.072,146.704 50.927,146.797 51.101 C 146.889 51.274,147.057 52.017,147.170 52.750 C 147.283 53.483,147.519 54.683,147.694 55.417 C 148.321 58.048,148.446 64.608,147.890 65.708 L 147.658 66.167 134.954 66.172 C 127.967 66.176,117.546 66.194,111.796 66.214 L 101.343 66.250 100.963 66.630 C 99.243 68.350,103.214 74.438,107.559 76.743 C 108.170 77.067,108.800 77.407,108.960 77.498 C 111.115 78.730,117.245 79.031,120.167 78.048 C 121.326 77.658,123.238 76.653,123.363 76.367 C 123.392 76.299,123.841 75.964,124.360 75.622 C 124.879 75.281,125.541 74.703,125.830 74.337 C 126.970 72.898,126.168 73.004,136.224 72.961 C 141.130 72.940,145.202 72.980,145.273 73.050 C 145.768 73.546,143.855 77.569,142.326 79.245 C 141.990 79.615,141.616 80.104,141.496 80.333 C 141.086 81.115,137.312 85.116,136.135 86.017 C 135.489 86.512,134.725 87.113,134.438 87.353 C 134.151 87.592,133.729 87.845,133.500 87.915 C 133.271 87.984,132.783 88.282,132.417 88.577 C 131.217 89.542,128.946 90.775,127.417 91.292 C 123.351 92.665,121.549 93.167,120.673 93.167 C 120.173 93.167,118.831 93.287,117.690 93.434 C 116.006 93.651,115.331 93.667,114.100 93.519 C 113.266 93.419,111.796 93.292,110.833 93.237 C 109.635 93.168,108.558 92.983,107.417 92.649 C 104.320 91.743,101.610 90.789,100.594 90.246 C 100.038 89.949,99.358 89.587,99.083 89.441 C 98.808 89.295,98.312 89.057,97.981 88.913 C 97.649 88.768,97.233 88.515,97.056 88.350 C 96.879 88.185,96.325 87.763,95.825 87.413 C 92.919 85.376,88.412 80.763,87.397 78.785 C 87.172 78.346,86.735 77.656,86.426 77.251 C 85.706 76.308,85.108 74.995,84.659 73.372 C 84.463 72.663,84.127 71.764,83.912 71.373 C 83.697 70.982,83.400 70.119,83.251 69.456 C 83.103 68.793,82.838 67.686,82.662 66.996 C 82.174 65.084,82.172 58.086,82.659 55.845 C 82.846 54.981,83.000 54.040,83.000 53.755 C 83.000 52.950,83.483 51.291,83.825 50.919 C 83.995 50.734,84.296 49.983,84.496 49.250 C 84.695 48.517,85.105 47.504,85.407 47.000 C 85.709 46.496,86.043 45.821,86.148 45.500 C 86.253 45.179,86.798 44.279,87.359 43.500 C 87.921 42.721,88.747 41.545,89.196 40.888 C 89.644 40.231,90.273 39.539,90.593 39.350 C 90.912 39.161,91.322 38.756,91.503 38.449 C 91.891 37.792,94.886 35.101,95.898 34.500 C 96.285 34.271,96.857 33.898,97.171 33.670 C 97.485 33.443,98.418 32.913,99.246 32.492 C 100.073 32.071,100.900 31.640,101.083 31.536 C 101.736 31.163,102.899 30.667,103.119 30.667 C 103.242 30.667,103.772 30.452,104.296 30.190 C 104.821 29.928,105.662 29.662,106.167 29.599 C 106.671 29.536,107.533 29.344,108.083 29.172 C 109.067 28.864,114.127 28.358,115.333 28.446 C 115.654 28.470,116.629 28.529,117.500 28.578 M191.436 28.667 C 192.872 28.782,194.388 29.036,195.853 29.407 C 197.853 29.915,198.460 30.123,200.250 30.915 C 200.525 31.037,201.050 31.218,201.417 31.317 C 202.136 31.511,204.259 32.556,204.667 32.917 C 204.804 33.038,205.336 33.322,205.849 33.548 C 206.362 33.774,206.829 34.081,206.886 34.230 C 206.943 34.379,207.339 34.722,207.766 34.993 C 208.193 35.264,209.301 36.209,210.229 37.094 C 211.157 37.978,212.205 38.975,212.558 39.309 C 213.141 39.862,215.325 42.991,215.832 44.000 C 215.947 44.229,216.207 44.604,216.411 44.833 C 216.784 45.253,218.167 48.273,218.167 48.669 C 218.167 48.785,218.420 49.489,218.729 50.232 C 219.039 50.975,219.377 52.084,219.481 52.696 C 219.585 53.308,219.874 54.471,220.124 55.280 C 221.036 58.242,220.739 65.651,219.690 66.078 C 219.566 66.129,209.368 66.171,197.027 66.172 C 173.790 66.175,173.576 66.181,173.089 66.875 C 172.580 67.603,173.103 69.742,174.145 71.188 C 174.434 71.589,174.961 72.329,175.315 72.833 C 176.115 73.970,177.715 75.508,178.591 75.981 C 178.953 76.177,179.362 76.404,179.500 76.487 C 180.251 76.939,182.406 77.856,183.453 78.169 C 185.071 78.653,191.287 78.621,192.044 78.125 C 192.288 77.965,192.667 77.833,192.885 77.833 C 193.767 77.833,197.198 75.623,198.083 74.484 C 198.358 74.130,198.911 73.644,199.311 73.402 L 200.038 72.963 208.702 72.940 C 213.467 72.927,217.420 72.954,217.486 73.000 C 217.994 73.349,217.571 75.006,216.657 76.250 C 216.388 76.617,216.056 77.155,215.920 77.446 C 215.679 77.962,214.703 79.375,213.619 80.777 C 213.325 81.158,212.746 81.907,212.333 82.441 C 211.921 82.975,211.358 83.600,211.083 83.831 C 210.808 84.061,210.083 84.700,209.471 85.250 C 208.101 86.481,206.484 87.710,205.495 88.271 C 205.085 88.503,204.690 88.800,204.617 88.930 C 204.543 89.060,204.392 89.167,204.280 89.167 C 204.168 89.167,203.486 89.512,202.765 89.935 C 202.043 90.357,200.807 90.913,200.018 91.171 C 199.229 91.429,198.095 91.825,197.499 92.052 C 195.070 92.977,188.777 93.766,186.083 93.484 C 181.785 93.033,179.930 92.720,179.144 92.314 C 178.811 92.141,178.270 92.000,177.941 92.000 C 177.201 92.000,176.153 91.651,174.378 90.814 C 173.624 90.458,172.949 90.167,172.878 90.166 C 172.607 90.166,170.719 89.098,170.083 88.586 C 169.717 88.291,169.154 87.914,168.833 87.749 C 168.273 87.461,167.794 87.090,165.589 85.240 C 164.439 84.275,161.799 81.605,161.390 80.994 C 161.239 80.768,160.833 80.208,160.488 79.750 C 159.393 78.295,156.999 73.858,156.723 72.770 C 156.581 72.209,156.283 71.316,156.061 70.787 C 154.871 67.941,154.381 60.022,155.159 56.204 C 155.347 55.284,155.502 54.205,155.504 53.807 C 155.506 53.404,155.773 52.345,156.108 51.417 C 156.438 50.500,156.848 49.345,157.020 48.850 C 157.192 48.354,157.586 47.492,157.896 46.933 C 158.206 46.374,158.515 45.729,158.582 45.500 C 158.649 45.271,158.877 44.896,159.088 44.667 C 159.299 44.438,159.657 43.900,159.882 43.472 C 160.502 42.297,162.222 40.117,164.142 38.073 C 165.505 36.623,169.199 33.739,170.583 33.046 C 170.950 32.862,171.550 32.557,171.917 32.368 C 173.992 31.298,177.409 29.827,178.030 29.735 C 178.426 29.677,179.598 29.414,180.634 29.151 C 182.193 28.754,182.997 28.655,185.297 28.575 C 186.826 28.522,188.103 28.452,188.136 28.419 C 188.169 28.386,188.433 28.389,188.723 28.426 C 189.013 28.462,190.234 28.571,191.436 28.667 M225.718 29.827 C 224.784 30.223,224.767 30.353,224.759 36.980 C 224.751 43.361,224.773 43.573,225.486 44.119 C 225.688 44.274,228.542 44.315,237.698 44.293 C 252.039 44.258,251.175 44.092,249.458 46.540 C 248.599 47.766,246.359 50.706,243.902 53.833 C 243.218 54.704,242.384 55.829,242.048 56.333 C 241.713 56.837,241.030 57.700,240.530 58.250 C 240.030 58.800,239.224 59.861,238.737 60.609 C 238.250 61.356,237.412 62.444,236.874 63.025 C 236.336 63.607,235.718 64.377,235.500 64.736 C 234.821 65.858,231.705 69.996,230.290 71.654 C 229.854 72.165,229.142 73.108,228.709 73.750 C 228.276 74.392,227.294 75.664,226.526 76.578 C 224.659 78.801,224.780 78.273,224.703 84.558 C 224.628 90.675,224.660 91.038,225.337 91.670 L 225.815 92.117 248.533 92.057 C 272.464 91.995,271.786 92.019,272.148 91.224 C 272.491 90.471,272.396 79.209,272.041 78.508 C 271.608 77.653,271.651 77.656,260.081 77.688 C 246.797 77.726,247.183 77.865,250.364 74.196 C 250.628 73.892,251.042 73.329,251.283 72.946 C 251.523 72.563,252.002 71.912,252.345 71.500 C 252.689 71.087,253.258 70.328,253.610 69.812 C 254.397 68.659,256.584 65.719,257.517 64.558 C 257.897 64.086,258.367 63.439,258.562 63.120 C 259.137 62.179,260.709 59.985,261.268 59.344 C 261.552 59.017,261.883 58.563,262.002 58.333 C 262.121 58.104,262.544 57.542,262.942 57.083 C 263.798 56.099,267.042 51.753,267.753 50.638 C 268.260 49.843,269.385 48.310,270.588 46.774 C 270.958 46.303,271.483 45.542,271.755 45.083 L 272.250 44.250 272.302 38.000 C 272.358 31.172,272.333 30.818,271.744 30.229 L 271.343 29.828 249.362 29.836 C 237.273 29.841,227.090 29.806,226.733 29.759 C 226.375 29.711,225.919 29.742,225.718 29.827 M329.194 29.830 L 320.971 29.917 320.569 30.384 C 320.234 30.774,320.165 31.039,320.155 31.968 C 320.148 32.581,320.129 40.846,320.113 50.333 C 320.084 67.277,320.077 67.604,319.737 68.750 C 318.714 72.191,316.400 74.853,313.750 75.637 C 311.107 76.419,310.728 76.500,309.728 76.500 C 306.544 76.500,303.128 75.028,301.756 73.065 C 300.692 71.543,300.704 71.575,300.072 68.711 L 299.496 66.101 299.502 48.827 C 299.509 30.259,299.519 30.479,298.667 30.049 C 298.071 29.748,281.768 29.744,281.183 30.044 C 280.023 30.640,280.110 28.865,280.146 51.117 L 280.179 71.083 280.590 73.874 C 281.696 81.382,285.787 87.942,291.000 90.567 C 291.779 90.960,292.679 91.443,293.000 91.641 C 293.642 92.037,294.028 92.182,296.800 93.066 C 297.836 93.396,299.017 93.667,299.426 93.667 C 299.835 93.667,300.937 93.783,301.876 93.926 C 305.728 94.510,311.364 93.884,314.138 92.564 C 315.818 91.764,318.683 89.729,319.127 89.021 C 320.628 86.623,321.374 86.907,321.402 89.890 C 321.426 92.287,320.914 92.171,331.204 92.120 L 338.657 92.083 339.037 91.704 L 339.417 91.324 339.417 61.104 C 339.417 35.588,339.381 30.816,339.184 30.450 C 338.951 30.015,338.183 29.633,337.683 29.705 C 337.537 29.726,333.716 29.783,329.194 29.830 M21.257 30.228 C 20.601 30.884,20.780 31.779,22.401 35.917 C 22.831 37.017,23.379 38.442,23.617 39.083 C 23.855 39.725,24.308 40.850,24.622 41.583 C 24.937 42.317,25.308 43.329,25.447 43.833 C 25.585 44.337,25.741 44.819,25.793 44.903 C 25.845 44.987,26.131 45.737,26.428 46.570 C 26.725 47.402,27.285 48.946,27.672 50.000 C 28.060 51.054,28.622 52.592,28.921 53.417 C 29.220 54.242,30.232 56.942,31.169 59.417 C 32.106 61.892,33.265 65.042,33.744 66.417 C 34.224 67.792,35.386 70.979,36.327 73.500 C 37.268 76.021,38.217 78.630,38.436 79.299 C 38.655 79.967,38.988 80.816,39.175 81.184 C 39.363 81.552,39.664 82.328,39.843 82.908 C 40.022 83.488,40.422 84.518,40.732 85.198 C 41.042 85.879,41.448 86.993,41.636 87.676 C 42.273 89.999,43.060 91.431,43.950 91.891 C 44.683 92.270,60.168 92.313,61.047 91.938 C 62.100 91.489,62.201 91.301,63.610 87.167 C 63.937 86.204,64.311 85.210,64.441 84.958 C 64.651 84.548,64.969 83.680,66.258 80.000 C 66.466 79.404,66.878 78.392,67.173 77.750 C 67.468 77.108,67.969 75.796,68.287 74.833 C 68.605 73.871,69.316 71.921,69.867 70.500 C 70.418 69.079,71.131 67.092,71.451 66.083 C 71.772 65.075,72.093 64.175,72.165 64.083 C 72.351 63.847,73.133 61.848,73.590 60.442 C 74.340 58.137,74.797 56.898,75.630 54.917 C 76.093 53.817,76.777 51.942,77.152 50.750 C 77.526 49.558,78.066 48.096,78.352 47.500 C 78.639 46.904,78.965 46.079,79.078 45.667 C 79.289 44.890,81.199 39.671,82.340 36.750 C 82.698 35.833,83.187 34.558,83.427 33.917 C 83.666 33.275,83.967 32.471,84.095 32.131 C 84.325 31.520,84.303 31.266,83.963 30.553 C 83.624 29.843,83.325 29.822,74.217 29.871 C 63.801 29.926,64.395 29.726,63.422 33.500 C 63.076 34.841,62.323 37.312,61.492 39.833 C 61.144 40.887,60.696 42.350,60.495 43.083 C 60.295 43.817,60.028 44.604,59.903 44.833 C 59.778 45.063,59.491 45.962,59.266 46.833 C 58.656 49.191,58.180 50.771,57.661 52.167 C 57.405 52.854,57.070 53.901,56.918 54.493 C 56.765 55.084,56.546 55.759,56.432 55.993 C 56.318 56.226,56.090 56.904,55.926 57.500 C 55.762 58.096,55.154 60.083,54.575 61.917 C 53.997 63.750,53.481 65.447,53.430 65.689 C 53.302 66.292,52.559 66.439,52.047 65.963 C 51.658 65.600,51.095 64.052,50.933 62.896 C 50.879 62.517,50.611 61.678,50.335 61.031 C 50.060 60.383,49.724 59.418,49.589 58.885 C 49.338 57.893,49.024 56.886,48.147 54.250 C 47.583 52.553,47.489 52.247,46.447 48.667 C 46.034 47.246,45.570 45.746,45.417 45.333 C 45.264 44.921,45.031 44.153,44.900 43.628 C 44.769 43.102,44.410 42.049,44.103 41.288 C 43.797 40.528,43.418 39.383,43.262 38.744 C 43.107 38.106,42.871 37.283,42.738 36.917 C 42.605 36.550,42.356 35.725,42.184 35.083 C 42.012 34.442,41.722 33.504,41.540 33.000 C 41.359 32.496,41.106 31.749,40.980 31.341 C 40.525 29.872,40.897 29.925,30.632 29.860 L 21.681 29.804 21.257 30.228 M40.095 31.081 C 40.313 31.354,40.539 31.917,40.597 32.331 C 40.655 32.745,40.846 33.334,41.021 33.640 C 41.196 33.946,41.488 34.734,41.670 35.390 C 42.511 38.433,42.684 39.012,43.171 40.417 C 44.148 43.236,44.794 45.250,45.580 47.917 C 46.672 51.628,46.970 52.589,47.415 53.833 C 47.628 54.429,48.076 55.817,48.412 56.917 C 48.747 58.017,49.248 59.592,49.525 60.417 C 49.803 61.242,50.137 62.404,50.270 63.000 C 51.406 68.116,53.609 68.986,54.405 64.634 C 54.561 63.781,54.820 62.783,54.982 62.417 C 55.143 62.050,55.484 61.038,55.740 60.167 C 56.503 57.565,57.857 53.321,58.275 52.222 C 58.491 51.656,58.667 51.074,58.667 50.929 C 58.667 50.783,59.126 49.333,59.687 47.707 C 60.248 46.081,60.818 44.300,60.953 43.750 C 61.088 43.200,61.529 41.767,61.932 40.565 C 62.336 39.363,62.668 38.238,62.670 38.065 C 62.672 37.892,62.831 37.412,63.024 37.000 C 63.216 36.587,63.615 35.331,63.909 34.208 C 64.370 32.456,64.540 32.055,65.116 31.375 L 65.787 30.583 74.426 30.583 L 83.064 30.583 83.352 31.083 C 83.632 31.570,83.627 31.621,83.139 33.000 C 82.863 33.779,82.495 34.829,82.321 35.333 C 82.147 35.837,81.877 36.474,81.720 36.747 C 81.564 37.020,81.160 38.033,80.824 38.997 C 79.584 42.546,78.707 44.944,78.261 46.000 C 77.356 48.144,76.686 49.958,75.922 52.333 C 75.494 53.663,74.995 55.050,74.812 55.417 C 74.323 56.398,73.562 58.405,73.103 59.920 C 72.692 61.275,71.730 63.782,71.504 64.083 C 71.435 64.175,71.100 65.150,70.758 66.250 C 70.416 67.350,70.036 68.475,69.914 68.750 C 69.291 70.150,68.736 71.587,68.209 73.167 C 67.888 74.129,67.251 75.817,66.793 76.917 C 66.335 78.017,65.598 80.004,65.154 81.333 C 64.710 82.662,64.112 84.313,63.825 85.000 C 63.300 86.256,62.714 87.867,62.218 89.417 C 61.500 91.662,61.944 91.564,52.494 91.574 C 42.820 91.585,43.566 91.904,42.156 87.157 C 41.878 86.223,41.456 85.074,41.218 84.604 C 40.979 84.134,40.582 83.150,40.335 82.417 C 40.087 81.683,39.578 80.333,39.204 79.417 C 38.830 78.500,38.377 77.337,38.199 76.833 C 37.370 74.492,35.735 70.165,35.144 68.750 C 34.953 68.292,34.547 67.074,34.243 66.045 C 33.938 65.015,33.569 63.965,33.422 63.711 C 33.276 63.458,32.865 62.387,32.509 61.333 C 31.803 59.242,30.419 55.448,30.167 54.917 C 29.961 54.483,29.119 52.181,28.407 50.106 C 28.097 49.202,27.777 48.377,27.697 48.273 C 27.617 48.169,27.344 47.446,27.091 46.667 C 26.837 45.887,26.491 44.913,26.320 44.500 C 26.150 44.087,25.927 43.413,25.825 43.000 C 25.723 42.587,25.530 42.079,25.396 41.871 C 25.263 41.662,24.673 40.162,24.087 38.537 C 22.700 34.697,22.384 33.899,22.048 33.386 C 21.857 33.094,21.766 32.589,21.760 31.776 C 21.747 30.273,20.825 30.398,31.210 30.501 L 39.699 30.584 40.095 31.081 M338.233 30.523 C 338.461 30.627,338.708 30.833,338.781 30.981 C 338.854 31.129,338.936 44.618,338.965 60.958 L 339.017 90.665 338.626 91.056 C 338.183 91.499,334.914 91.649,326.644 91.604 L 322.704 91.583 322.347 91.167 C 322.020 90.784,321.999 90.624,322.093 89.227 C 322.314 85.934,320.348 85.458,318.855 88.444 C 318.657 88.839,318.201 89.347,317.796 89.623 C 317.404 89.891,316.596 90.450,316.000 90.866 C 315.404 91.282,314.617 91.719,314.250 91.836 C 313.883 91.954,313.433 92.146,313.250 92.263 C 312.771 92.568,308.899 93.287,306.750 93.470 C 303.740 93.725,299.632 93.308,297.040 92.483 C 295.917 92.126,294.904 91.831,294.790 91.829 C 294.550 91.824,290.987 90.056,290.250 89.576 C 289.299 88.956,285.467 85.080,284.903 84.167 C 284.169 82.979,282.500 79.677,282.500 79.413 C 282.500 79.301,282.308 78.620,282.073 77.900 C 280.887 74.267,280.835 73.142,280.830 50.954 C 280.826 30.434,280.806 30.962,281.604 30.659 C 282.175 30.442,297.924 30.448,298.330 30.665 C 298.966 31.005,298.994 31.899,298.911 49.001 C 298.827 66.358,298.824 66.270,299.603 69.583 C 300.331 72.677,302.843 76.000,304.454 76.000 C 304.568 76.000,305.357 76.235,306.206 76.522 C 308.258 77.216,310.831 77.285,312.417 76.688 C 312.967 76.482,313.799 76.214,314.265 76.094 C 315.718 75.720,317.548 74.309,318.360 72.936 C 318.638 72.467,319.113 71.686,319.417 71.200 C 319.776 70.625,320.035 69.928,320.160 69.200 C 320.265 68.586,320.464 67.708,320.601 67.250 C 320.815 66.531,320.845 64.036,320.820 49.083 C 320.803 39.550,320.847 31.538,320.916 31.280 C 321.114 30.541,321.348 30.520,329.674 30.515 C 334.003 30.513,337.585 30.471,337.634 30.422 C 337.751 30.304,337.755 30.305,338.233 30.523 M271.327 30.827 C 271.714 31.214,271.722 31.418,271.668 39.557 C 271.634 44.659,271.635 44.655,270.492 45.917 C 270.243 46.192,269.844 46.717,269.605 47.083 C 268.775 48.356,268.603 48.587,267.987 49.250 C 267.647 49.617,267.218 50.218,267.033 50.587 C 266.849 50.956,266.298 51.782,265.808 52.422 C 265.318 53.062,264.713 53.886,264.463 54.251 C 264.214 54.617,263.501 55.543,262.880 56.309 C 261.574 57.918,260.585 59.231,259.779 60.428 C 259.465 60.893,258.985 61.531,258.711 61.845 C 258.437 62.159,258.086 62.665,257.930 62.968 C 257.775 63.272,257.400 63.797,257.098 64.135 C 256.795 64.473,256.337 65.087,256.080 65.500 C 255.823 65.912,255.522 66.325,255.411 66.417 C 255.136 66.645,253.600 68.669,253.357 69.122 C 253.249 69.324,252.656 70.128,252.039 70.909 C 251.422 71.690,250.487 72.873,249.962 73.539 C 249.437 74.205,248.773 75.026,248.485 75.363 C 247.687 76.297,247.625 77.295,248.328 77.886 L 248.859 78.333 259.804 78.336 C 268.293 78.338,270.844 78.386,271.167 78.549 L 271.583 78.760 271.627 84.766 L 271.671 90.771 271.284 91.135 L 270.897 91.498 248.657 91.505 C 236.425 91.509,226.297 91.509,226.152 91.506 C 225.504 91.492,225.418 90.803,225.379 85.333 C 225.330 78.485,225.224 79.068,226.881 77.100 C 227.634 76.206,228.496 75.087,228.796 74.612 C 229.096 74.138,229.762 73.264,230.275 72.671 C 230.788 72.077,231.289 71.415,231.387 71.199 C 231.485 70.983,231.832 70.532,232.158 70.195 C 232.768 69.565,233.621 68.431,235.500 65.755 C 236.096 64.906,236.981 63.770,237.467 63.231 C 237.953 62.691,238.805 61.575,239.361 60.750 C 239.917 59.925,240.694 58.913,241.087 58.500 C 241.480 58.087,242.017 57.406,242.280 56.985 C 242.543 56.564,243.109 55.777,243.539 55.235 C 250.245 46.773,251.000 45.705,251.000 44.677 C 251.000 43.595,251.501 43.635,238.030 43.646 L 225.882 43.655 225.654 43.203 C 225.289 42.476,225.212 31.719,225.566 31.033 L 225.826 30.530 248.406 30.508 C 270.928 30.487,270.987 30.487,271.327 30.827 M111.241 43.647 C 107.642 44.630,105.532 45.990,103.071 48.909 C 100.973 51.399,100.398 52.902,101.169 53.882 C 101.760 54.634,101.939 54.643,115.570 54.627 L 128.556 54.612 129.067 54.155 C 131.071 52.365,125.688 45.883,120.917 44.342 C 120.642 44.253,119.985 44.026,119.457 43.838 C 117.986 43.312,112.898 43.194,111.241 43.647 M183.833 43.667 C 181.035 44.361,177.987 45.991,176.583 47.545 C 174.724 49.604,174.269 50.240,173.640 51.666 C 172.881 53.388,172.916 53.609,174.047 54.198 C 174.777 54.579,196.805 54.862,200.077 54.533 C 201.343 54.406,202.000 53.838,202.000 52.869 C 202.000 52.015,199.055 47.768,197.940 47.015 C 197.744 46.882,197.326 46.552,197.011 46.282 C 196.696 46.011,196.080 45.624,195.643 45.421 C 195.205 45.218,194.750 44.978,194.632 44.887 C 192.899 43.554,186.985 42.886,183.833 43.667 M119.603 44.488 C 124.026 45.945,127.507 48.990,128.760 52.498 C 129.003 53.178,128.702 53.996,128.204 54.006 C 128.046 54.009,122.150 54.013,115.103 54.014 L 102.289 54.017 101.895 53.646 C 101.356 53.140,101.391 52.470,102.015 51.364 C 102.761 50.042,104.435 47.900,105.052 47.477 C 105.344 47.277,105.808 46.908,106.083 46.656 C 106.855 45.949,108.784 44.996,110.167 44.639 C 110.854 44.462,111.642 44.253,111.917 44.175 C 113.299 43.785,118.057 43.978,119.603 44.488 M191.644 44.425 C 195.804 45.526,198.667 47.735,200.769 51.465 C 201.440 52.656,201.442 53.073,200.779 53.567 C 200.038 54.118,175.295 54.118,174.556 53.567 C 173.040 52.435,177.078 46.645,180.003 45.755 C 180.230 45.685,180.675 45.472,180.991 45.281 C 183.128 43.985,188.386 43.563,191.644 44.425 " stroke="none" fill="#747474" fill-rule="evenodd"></path></g></svg>